<svg width="960" height="1080" viewBox="0 0 960 1080" fill="none" xmlns="http://www.w3.org/2000/svg">
<g clip-path="url(#clip0_375_8971)">
<rect width="960" height="1080" fill="#FDFDFD"/>
<g filter="url(#filter0_d_375_8971)">
<rect width="30" height="1080" fill="white"/>
<rect y="100" width="30" height="0.5" fill="black" fill-opacity="0.4"/>
<rect y="214" width="30" height="0.5" fill="black" fill-opacity="0.4"/>
<rect y="328" width="30" height="0.5" fill="black" fill-opacity="0.4"/>
<g clip-path="url(#clip1_375_8971)">
<rect x="-5" y="442" width="40" height="0.5" fill="black" fill-opacity="0.4"/>
<path d="M19.496 499.556V500.564H15.896V505.1H19.496V506.108H11V505.1H14.96V500.564H11V499.556H19.496ZM19.496 513.244V514.192L11 517.804V516.628L13.088 515.764L13.088 511.516L11 510.64V509.5L19.496 513.244ZM18.2 513.7V513.676L14.024 511.912L14.024 515.38L18.2 513.7ZM19.496 521.201V523.721C19.496 524.113 19.456 524.485 19.376 524.837C19.304 525.197 19.176 525.513 18.992 525.785C18.816 526.065 18.576 526.285 18.272 526.445C17.976 526.613 17.608 526.697 17.168 526.697C16.704 526.697 16.32 526.609 16.016 526.433C15.712 526.257 15.472 526.029 15.296 525.749C15.12 525.477 14.996 525.177 14.924 524.849C14.852 524.521 14.816 524.209 14.816 523.913V522.209H11V521.201H19.496ZM15.752 522.209V523.913C15.752 524.417 15.864 524.825 16.088 525.137C16.32 525.457 16.676 525.617 17.156 525.617C17.636 525.617 17.988 525.457 18.212 525.137C18.444 524.825 18.56 524.417 18.56 523.913V522.209H15.752ZM19.496 530.583V533.103C19.496 533.495 19.456 533.867 19.376 534.219C19.304 534.579 19.176 534.895 18.992 535.167C18.816 535.447 18.576 535.667 18.272 535.827C17.976 535.995 17.608 536.079 17.168 536.079C16.704 536.079 16.32 535.991 16.016 535.815C15.712 535.639 15.472 535.411 15.296 535.131C15.12 534.859 14.996 534.559 14.924 534.231C14.852 533.903 14.816 533.591 14.816 533.295V531.591H11V530.583H19.496ZM15.752 531.591V533.295C15.752 533.799 15.864 534.207 16.088 534.519C16.32 534.839 16.676 534.999 17.156 534.999C17.636 534.999 17.988 534.839 18.212 534.519C18.444 534.207 18.56 533.799 18.56 533.295V531.591H15.752ZM19.496 539.964V540.972H11V539.964H19.496ZM19.496 545.349V546.621L12.44 551.541V551.565H19.496V552.573H11V551.301L18.056 546.381V546.357H11V545.349H19.496ZM19.496 556.957V562.297H18.56V557.965H15.896V562.009H14.96V557.965H11.936V562.513H11V556.957H19.496ZM17.996 570.37C18.268 570.202 18.464 569.978 18.584 569.698C18.712 569.418 18.776 569.126 18.776 568.822C18.776 568.598 18.748 568.378 18.692 568.162C18.636 567.946 18.552 567.75 18.44 567.574C18.328 567.406 18.18 567.27 17.996 567.166C17.812 567.062 17.596 567.01 17.348 567.01C17.156 567.01 16.984 567.038 16.832 567.094C16.688 567.158 16.556 567.258 16.436 567.394C16.316 567.53 16.204 567.714 16.1 567.946C15.996 568.178 15.892 568.462 15.788 568.798C15.684 569.126 15.572 569.442 15.452 569.746C15.332 570.058 15.18 570.33 14.996 570.562C14.812 570.802 14.58 570.99 14.3 571.126C14.028 571.27 13.684 571.342 13.268 571.342C12.844 571.342 12.476 571.258 12.164 571.09C11.852 570.922 11.592 570.698 11.384 570.418C11.184 570.146 11.036 569.83 10.94 569.47C10.836 569.11 10.784 568.738 10.784 568.354C10.784 568.106 10.808 567.858 10.856 567.61C10.896 567.362 10.96 567.122 11.048 566.89C11.144 566.666 11.264 566.454 11.408 566.254C11.56 566.054 11.744 565.882 11.96 565.738L12.668 566.602C12.356 566.786 12.12 567.042 11.96 567.37C11.8 567.698 11.72 568.046 11.72 568.414C11.72 568.63 11.752 568.846 11.816 569.062C11.88 569.286 11.972 569.486 12.092 569.662C12.22 569.838 12.376 569.982 12.56 570.094C12.744 570.206 12.956 570.262 13.196 570.262C13.46 570.262 13.672 570.218 13.832 570.13C14 570.042 14.144 569.906 14.264 569.722C14.384 569.538 14.492 569.306 14.588 569.026C14.684 568.746 14.796 568.418 14.924 568.042C15.02 567.738 15.128 567.458 15.248 567.202C15.376 566.946 15.528 566.722 15.704 566.53C15.888 566.346 16.104 566.198 16.352 566.086C16.608 565.982 16.912 565.93 17.264 565.93C17.672 565.93 18.028 566.01 18.332 566.17C18.636 566.33 18.888 566.546 19.088 566.818C19.296 567.09 19.452 567.398 19.556 567.742C19.66 568.086 19.712 568.446 19.712 568.822C19.712 569.302 19.636 569.738 19.484 570.13C19.34 570.53 19.084 570.886 18.716 571.198L17.996 570.37ZM17.996 579.306C18.268 579.138 18.464 578.914 18.584 578.634C18.712 578.354 18.776 578.062 18.776 577.758C18.776 577.534 18.748 577.314 18.692 577.098C18.636 576.882 18.552 576.686 18.44 576.51C18.328 576.342 18.18 576.206 17.996 576.102C17.812 575.998 17.596 575.946 17.348 575.946C17.156 575.946 16.984 575.974 16.832 576.03C16.688 576.094 16.556 576.194 16.436 576.33C16.316 576.466 16.204 576.65 16.1 576.882C15.996 577.114 15.892 577.398 15.788 577.734C15.684 578.062 15.572 578.378 15.452 578.682C15.332 578.994 15.18 579.266 14.996 579.498C14.812 579.738 14.58 579.926 14.3 580.062C14.028 580.206 13.684 580.278 13.268 580.278C12.844 580.278 12.476 580.194 12.164 580.026C11.852 579.858 11.592 579.634 11.384 579.354C11.184 579.082 11.036 578.766 10.94 578.406C10.836 578.046 10.784 577.674 10.784 577.29C10.784 577.042 10.808 576.794 10.856 576.546C10.896 576.298 10.96 576.058 11.048 575.826C11.144 575.602 11.264 575.39 11.408 575.19C11.56 574.99 11.744 574.818 11.96 574.674L12.668 575.538C12.356 575.722 12.12 575.978 11.96 576.306C11.8 576.634 11.72 576.982 11.72 577.35C11.72 577.566 11.752 577.782 11.816 577.998C11.88 578.222 11.972 578.422 12.092 578.598C12.22 578.774 12.376 578.918 12.56 579.03C12.744 579.142 12.956 579.198 13.196 579.198C13.46 579.198 13.672 579.154 13.832 579.066C14 578.978 14.144 578.842 14.264 578.658C14.384 578.474 14.492 578.242 14.588 577.962C14.684 577.682 14.796 577.354 14.924 576.978C15.02 576.674 15.128 576.394 15.248 576.138C15.376 575.882 15.528 575.658 15.704 575.466C15.888 575.282 16.104 575.134 16.352 575.022C16.608 574.918 16.912 574.866 17.264 574.866C17.672 574.866 18.028 574.946 18.332 575.106C18.636 575.266 18.888 575.482 19.088 575.754C19.296 576.026 19.452 576.334 19.556 576.678C19.66 577.022 19.712 577.382 19.712 577.758C19.712 578.238 19.636 578.674 19.484 579.066C19.34 579.466 19.084 579.822 18.716 580.134L17.996 579.306Z" fill="black" fill-opacity="0.6"/>
<rect x="-5" y="637.5" width="40" height="0.5" fill="black" fill-opacity="0.4"/>
</g>
<rect y="751.5" width="30" height="0.5" fill="black" fill-opacity="0.4"/>
<rect y="865.5" width="30" height="0.5" fill="black" fill-opacity="0.4"/>
<rect y="979.5" width="30" height="0.5" fill="black" fill-opacity="0.4"/>
</g>
<g filter="url(#filter1_d_375_8971)">
<rect width="30" height="960" transform="translate(0 30) rotate(-90)" fill="white"/>
<rect x="100" y="30" width="30" height="0.5" transform="rotate(-90 100 30)" fill="black" fill-opacity="0.4"/>
<rect x="217.666" y="30" width="30" height="0.5" transform="rotate(-90 217.666 30)" fill="black" fill-opacity="0.4"/>
<rect x="335.334" y="30" width="30" height="0.5" transform="rotate(-90 335.334 30)" fill="black" fill-opacity="0.4"/>
<path d="M454.056 10.504H455.556L458.436 17.164H458.46L461.364 10.504H462.828V19H461.82V11.872H461.796L458.748 19H458.136L455.088 11.872H455.064V19H454.056V10.504ZM471.159 19.216C470.511 19.216 469.915 19.104 469.371 18.88C468.835 18.656 468.367 18.348 467.967 17.956C467.575 17.556 467.267 17.084 467.043 16.54C466.827 15.988 466.719 15.392 466.719 14.752C466.719 14.112 466.827 13.52 467.043 12.976C467.267 12.424 467.575 11.952 467.967 11.56C468.367 11.16 468.835 10.848 469.371 10.624C469.915 10.4 470.511 10.288 471.159 10.288C471.807 10.288 472.399 10.4 472.935 10.624C473.479 10.848 473.947 11.16 474.339 11.56C474.739 11.952 475.047 12.424 475.263 12.976C475.487 13.52 475.599 14.112 475.599 14.752C475.599 15.392 475.487 15.988 475.263 16.54C475.047 17.084 474.739 17.556 474.339 17.956C473.947 18.348 473.479 18.656 472.935 18.88C472.399 19.104 471.807 19.216 471.159 19.216ZM471.159 18.28C471.655 18.28 472.107 18.188 472.515 18.004C472.931 17.82 473.287 17.568 473.583 17.248C473.879 16.928 474.107 16.556 474.267 16.132C474.435 15.7 474.519 15.24 474.519 14.752C474.519 14.264 474.435 13.808 474.267 13.384C474.107 12.952 473.879 12.576 473.583 12.256C473.287 11.936 472.931 11.684 472.515 11.5C472.107 11.316 471.655 11.224 471.159 11.224C470.663 11.224 470.207 11.316 469.791 11.5C469.383 11.684 469.031 11.936 468.735 12.256C468.439 12.576 468.207 12.952 468.039 13.384C467.879 13.808 467.799 14.264 467.799 14.752C467.799 15.24 467.879 15.7 468.039 16.132C468.207 16.556 468.439 16.928 468.735 17.248C469.031 17.568 469.383 17.82 469.791 18.004C470.207 18.188 470.663 18.28 471.159 18.28ZM479.487 10.504H480.759L485.679 17.56H485.703V10.504H486.711V19H485.439L480.519 11.944H480.495V19H479.487V10.504ZM491.094 10.504H496.434V11.44H492.102V14.104H496.146V15.04H492.102V18.064H496.65V19H491.094V10.504ZM502.48 15.34L499.312 10.504H500.596L502.984 14.344L505.444 10.504H506.656L503.488 15.34V19H502.48V15.34Z" fill="black" fill-opacity="0.6"/>
<rect x="624.166" y="30" width="30" height="0.5" transform="rotate(-90 624.166 30)" fill="black" fill-opacity="0.4"/>
<rect x="741.834" y="30" width="30" height="0.5" transform="rotate(-90 741.834 30)" fill="black" fill-opacity="0.4"/>
<rect x="859.5" y="30" width="30" height="0.5" transform="rotate(-90 859.5 30)" fill="black" fill-opacity="0.4"/>
</g>
<g filter="url(#filter2_d_375_8971)">
<rect x="272" y="962" width="417" height="58" rx="29" fill="#FDFDFD"/>
<rect x="288" y="976" width="115" height="30" rx="15" fill="#131515"/>
<path d="M307 987C306.448 987 306 987.448 306 988V994C306 994.552 306.448 995 307 995H308C308.552 995 309 994.552 309 994V988C309 987.448 308.552 987 308 987H307ZM312 987C311.448 987 311 987.448 311 988V994C311 994.552 311.448 995 312 995H313C313.552 995 314 994.552 314 994V988C314 987.448 313.552 987 313 987H312Z" fill="white"/>
<path d="M329.056 986.504H331.576C331.968 986.504 332.34 986.544 332.692 986.624C333.052 986.696 333.368 986.824 333.64 987.008C333.92 987.184 334.14 987.424 334.3 987.728C334.468 988.024 334.552 988.392 334.552 988.832C334.552 989.296 334.464 989.68 334.288 989.984C334.112 990.288 333.884 990.528 333.604 990.704C333.332 990.88 333.032 991.004 332.704 991.076C332.376 991.148 332.064 991.184 331.768 991.184H330.064V995H329.056V986.504ZM330.064 990.248H331.768C332.272 990.248 332.68 990.136 332.992 989.912C333.312 989.68 333.472 989.324 333.472 988.844C333.472 988.364 333.312 988.012 332.992 987.788C332.68 987.556 332.272 987.44 331.768 987.44H330.064V990.248ZM340.307 986.504H341.255L344.867 995H343.691L342.827 992.912H338.579L337.703 995H336.563L340.307 986.504ZM340.763 987.8H340.739L338.975 991.976H342.443L340.763 987.8ZM348.264 986.504H350.436C350.844 986.504 351.248 986.528 351.648 986.576C352.056 986.624 352.42 986.728 352.74 986.888C353.06 987.048 353.32 987.284 353.52 987.596C353.72 987.9 353.82 988.316 353.82 988.844C353.82 989.468 353.632 989.972 353.256 990.356C352.88 990.74 352.36 990.984 351.696 991.088L354.108 995H352.872L350.568 991.184H349.272V995H348.264V986.504ZM349.272 990.248H350.172C350.452 990.248 350.74 990.24 351.036 990.224C351.34 990.208 351.616 990.156 351.864 990.068C352.12 989.98 352.328 989.844 352.488 989.66C352.656 989.468 352.74 989.196 352.74 988.844C352.74 988.54 352.68 988.296 352.56 988.112C352.44 987.928 352.28 987.788 352.08 987.692C351.888 987.588 351.668 987.52 351.42 987.488C351.18 987.456 350.936 987.44 350.688 987.44H349.272V990.248ZM363.357 987.44H360.549V995H359.541V987.44H356.733V986.504H363.357V987.44ZM375.687 995H374.679V987.8H374.655L373.131 989.084L372.531 988.352L374.811 986.504H375.687V995Z" fill="white"/>
<rect x="403" y="990" width="24" height="2" fill="black" fill-opacity="0.1"/>
<path d="M402 991C402 990.448 402.448 990 403 990H421C421.552 990 422 990.448 422 991V991C422 991.552 421.552 992 421 992H403C402.448 992 402 991.552 402 991V991Z" fill="#131515"/>
<rect x="427" y="976" width="30" height="30" rx="15" fill="black" fill-opacity="0.05"/>
<path d="M438.644 994.572L442.62 990.624C442.76 990.493 442.895 990.353 443.026 990.204C443.157 990.045 443.273 989.882 443.376 989.714C443.479 989.546 443.558 989.369 443.614 989.182C443.679 988.995 443.712 988.799 443.712 988.594C443.712 988.351 443.665 988.132 443.572 987.936C443.488 987.74 443.367 987.577 443.208 987.446C443.059 987.306 442.877 987.199 442.662 987.124C442.457 987.049 442.237 987.012 442.004 987.012C441.519 987.012 441.117 987.147 440.8 987.418C440.483 987.689 440.282 988.062 440.198 988.538L438.742 988.412C438.807 987.973 438.933 987.595 439.12 987.278C439.316 986.951 439.554 986.681 439.834 986.466C440.123 986.251 440.45 986.093 440.814 985.99C441.187 985.887 441.589 985.836 442.018 985.836C442.447 985.836 442.849 985.897 443.222 986.018C443.605 986.13 443.936 986.303 444.216 986.536C444.505 986.76 444.729 987.045 444.888 987.39C445.056 987.726 445.14 988.123 445.14 988.58C445.14 988.907 445.089 989.215 444.986 989.504C444.893 989.784 444.767 990.05 444.608 990.302C444.449 990.554 444.267 990.792 444.062 991.016C443.857 991.24 443.642 991.459 443.418 991.674L440.156 994.824H445.14V996H438.644V994.572Z" fill="black" fill-opacity="0.3"/>
<rect x="457" y="990" width="24" height="2" fill="black" fill-opacity="0.1"/>
<rect x="481" y="976" width="30" height="30" rx="15" fill="black" fill-opacity="0.05"/>
<path d="M494.058 993.578C494.217 994.054 494.427 994.409 494.688 994.642C494.959 994.875 495.355 994.992 495.878 994.992C496.139 994.992 496.382 994.95 496.606 994.866C496.839 994.773 497.045 994.651 497.222 994.502C497.399 994.343 497.539 994.157 497.642 993.942C497.745 993.718 497.796 993.471 497.796 993.2C497.796 992.789 497.707 992.463 497.53 992.22C497.362 991.968 497.143 991.781 496.872 991.66C496.601 991.529 496.303 991.445 495.976 991.408C495.649 991.371 495.327 991.352 495.01 991.352V990.176C495.523 990.176 495.943 990.143 496.27 990.078C496.597 990.003 496.853 989.901 497.04 989.77C497.227 989.639 497.357 989.476 497.432 989.28C497.507 989.084 497.544 988.865 497.544 988.622C497.544 988.09 497.385 987.689 497.068 987.418C496.751 987.147 496.354 987.012 495.878 987.012C495.514 987.012 495.183 987.119 494.884 987.334C494.595 987.539 494.375 987.815 494.226 988.16L492.854 987.698C493.115 987.063 493.512 986.597 494.044 986.298C494.585 985.99 495.187 985.836 495.85 985.836C496.251 985.836 496.634 985.892 496.998 986.004C497.371 986.107 497.698 986.27 497.978 986.494C498.258 986.718 498.477 987.003 498.636 987.348C498.804 987.684 498.888 988.081 498.888 988.538C498.888 989.061 498.729 989.527 498.412 989.938C498.104 990.349 497.698 990.629 497.194 990.778V990.806C497.502 990.862 497.777 990.965 498.02 991.114C498.263 991.263 498.468 991.45 498.636 991.674C498.804 991.898 498.93 992.15 499.014 992.43C499.098 992.701 499.14 992.99 499.14 993.298C499.14 993.774 499.047 994.194 498.86 994.558C498.683 994.913 498.44 995.211 498.132 995.454C497.833 995.687 497.483 995.865 497.082 995.986C496.69 996.107 496.275 996.168 495.836 996.168C495.08 996.168 494.413 995.995 493.834 995.65C493.265 995.305 492.868 994.759 492.644 994.012L494.058 993.578Z" fill="black" fill-opacity="0.3"/>
<rect x="511" y="990" width="24" height="2" fill="black" fill-opacity="0.1"/>
<rect x="535" y="976" width="30" height="30" rx="15" fill="black" fill-opacity="0.05"/>
<path d="M550.704 993.816H546.476V992.444L550.424 986.088H552.048V992.64H553.448V993.816H552.048V996H550.704V993.816ZM550.704 987.684H550.676L547.652 992.64H550.704V987.684Z" fill="black" fill-opacity="0.3"/>
<rect x="565" y="990" width="24" height="2" fill="black" fill-opacity="0.1"/>
<rect x="589" y="976" width="30" height="30" rx="15" fill="black" fill-opacity="0.05"/>
<path d="M606.594 987.348H602.576L602.534 989.826C602.599 989.798 602.693 989.77 602.814 989.742C602.935 989.714 603.057 989.691 603.178 989.672C603.309 989.653 603.435 989.639 603.556 989.63C603.677 989.621 603.78 989.616 603.864 989.616C604.331 989.616 604.751 989.695 605.124 989.854C605.507 990.013 605.833 990.237 606.104 990.526C606.375 990.815 606.58 991.161 606.72 991.562C606.869 991.963 606.944 992.407 606.944 992.892C606.944 993.387 606.851 993.835 606.664 994.236C606.487 994.637 606.239 994.983 605.922 995.272C605.605 995.561 605.236 995.785 604.816 995.944C604.396 996.093 603.943 996.168 603.458 996.168C602.786 996.168 602.179 995.995 601.638 995.65C601.097 995.305 600.709 994.81 600.476 994.166L601.834 993.704C602.011 994.161 602.249 994.493 602.548 994.698C602.847 994.894 603.22 994.992 603.668 994.992C603.929 994.992 604.177 994.945 604.41 994.852C604.653 994.759 604.858 994.628 605.026 994.46C605.203 994.283 605.343 994.068 605.446 993.816C605.549 993.564 605.6 993.279 605.6 992.962C605.6 992.234 605.376 991.693 604.928 991.338C604.489 990.974 603.915 990.792 603.206 990.792C602.954 990.792 602.632 990.839 602.24 990.932C601.857 991.016 601.498 991.142 601.162 991.31L601.274 986.088H606.594V987.348Z" fill="black" fill-opacity="0.3"/>
<rect x="619" y="990" width="24" height="2" fill="black" fill-opacity="0.1"/>
<rect x="643" y="976" width="30" height="30" rx="15" fill="black" fill-opacity="0.05"/>
<rect x="656" y="989" width="4" height="4" rx="2" fill="black" fill-opacity="0.3"/>
</g>
<g filter="url(#filter3_d_375_8971)">
<rect x="653" y="661" width="70.8241" height="70.8242" rx="35.4121" fill="white" shape-rendering="crispEdges"/>
<path d="M672.421 692.82C670.307 701.543 675.663 710.327 684.385 712.441C693.107 714.555 701.892 709.198 704.006 700.476C706.12 691.754 700.763 682.97 692.041 680.856" stroke="#F2F2F2" stroke-width="6" stroke-linecap="round"/>
<path d="M674.832 705.868C677.02 709.046 680.341 711.462 684.386 712.442C685.328 712.67 686.271 712.812 687.207 712.871" stroke="#A1D3D7" stroke-width="6" stroke-linecap="round"/>
<path d="M701.429 706.105C706.652 698.806 704.968 688.656 697.669 683.434C690.371 678.212 680.22 679.895 674.998 687.194C673.752 688.935 672.899 690.839 672.422 692.8" stroke="#A1D3D7" stroke-width="6" stroke-linecap="round"/>
<path d="M697.67 683.433C691.221 678.818 682.545 679.596 677.01 684.875" stroke="#259FA7" stroke-width="6" stroke-linecap="round"/>
<path d="M713.88 697.679C714.581 683.613 703.746 671.642 689.68 670.942C675.615 670.241 663.644 681.075 662.943 695.141C662.242 709.207 673.076 721.178 687.142 721.878" stroke="#F2F2F2" stroke-width="6" stroke-linecap="round"/>
<path d="M688.22 721.908C702.302 722.013 713.804 710.682 713.91 696.599C714.015 682.516 702.684 671.015 688.601 670.909C674.518 670.804 663.016 682.135 662.911 696.218" stroke="#F2F2F2" stroke-width="6" stroke-linecap="round"/>
<path d="M704.377 716.305C699.999 719.821 694.621 721.743 689.139 721.904" stroke="#259FA7" stroke-width="6" stroke-linecap="round"/>
<path d="M687.694 680.406C691.14 680.293 694.649 681.272 697.669 683.433C703.09 687.311 705.413 693.908 704.11 700.037" stroke="#259FA7" stroke-width="6" stroke-linecap="round"/>
<rect x="685.842" y="682.504" width="20" height="20" rx="10" transform="rotate(34.5301 685.842 682.504)" fill="#259FA7"/>
<path d="M662.943 695.143C662.733 699.347 663.554 703.364 665.184 706.949" stroke="#259FA7" stroke-width="6" stroke-linecap="round"/>
</g>
<g opacity="0.6">
<g filter="url(#filter4_d_375_8971)">
<rect x="721.617" y="60.6172" width="206.767" height="85.188" rx="6.61654" fill="white" shape-rendering="crispEdges"/>
<g filter="url(#filter5_d_375_8971)">
<rect x="849.443" y="83.1445" width="58.5763" height="58.5764" rx="29.2882" transform="rotate(-16.132 849.443 83.1445)" fill="white" shape-rendering="crispEdges"/>
<path d="M874.848 95.3415C870.408 101.29 871.631 109.711 877.579 114.151C883.528 118.591 891.949 117.368 896.389 111.419C900.829 105.471 899.606 97.0493 893.657 92.6096" stroke="#F2F2F2" stroke-width="4.96241" stroke-linecap="round"/>
<path d="M874.177 110.43C872.455 107.637 871.745 104.212 872.44 100.741C873.896 93.4625 880.977 88.7428 888.255 90.1991C894.236 91.3957 898.489 96.3904 899.007 102.172" stroke="#CBCBCB" stroke-width="4.96241" stroke-linecap="round"/>
<path d="M906.182 98.0476C903.367 86.745 891.923 79.8647 880.62 82.6798C869.318 85.4949 862.437 96.9395 865.252 108.242C868.067 119.545 879.512 126.425 890.815 123.61" stroke="#F2F2F2" stroke-width="4.96241" stroke-linecap="round"/>
<path d="M891.675 123.375C902.848 120.084 909.239 108.359 905.948 97.1855C902.657 86.0122 890.932 79.6221 879.758 82.9128C868.585 86.2035 862.195 97.9289 865.486 109.102" stroke="#F2F2F2" stroke-width="4.96241" stroke-linecap="round"/>
<path d="M906.634 100.396C907.888 109.885 902.52 119.334 893.181 122.868C884.135 126.29 874.208 123.085 868.74 115.662" stroke="#959595" stroke-width="4.96241" stroke-linecap="round"/>
<path d="M889.937 90.6504C891.278 91.1054 892.5 91.7514 893.583 92.5477" stroke="#959595" stroke-width="4.96241" stroke-linecap="round"/>
<path d="M874.848 95.3415C870.408 101.29 871.631 109.711 877.579 114.151C883.528 118.591 891.949 117.368 896.389 111.419C900.829 105.471 899.606 97.0493 893.657 92.6096" stroke="#F2F2F2" stroke-width="4.96241" stroke-linecap="round"/>
<path d="M897.322 109.982C900.97 103.517 898.686 95.3199 892.221 91.6723C885.757 88.0247 877.559 90.3082 873.912 96.7728C871.941 100.266 871.701 104.266 872.918 107.78" stroke="#CACACA" stroke-width="4.96241" stroke-linecap="round"/>
<path d="M874.177 110.43C872.455 107.637 871.745 104.212 872.44 100.741C873.896 93.4625 880.977 88.7428 888.255 90.1991C894.236 91.3957 898.489 96.3904 899.007 102.172" stroke="#CBCBCB" stroke-width="4.96241" stroke-linecap="round"/>
<path d="M872.439 100.742C873.896 93.4638 880.977 88.7441 888.255 90.2003C891.97 90.9436 895.018 93.1519 896.919 96.1037" stroke="#959595" stroke-width="4.96241" stroke-linecap="round"/>
<path d="M906.182 98.0476C903.367 86.745 891.923 79.8647 880.62 82.6798C869.318 85.4949 862.437 96.9395 865.252 108.242C868.067 119.545 879.512 126.425 890.815 123.61" stroke="#F2F2F2" stroke-width="4.96241" stroke-linecap="round"/>
<path d="M891.675 123.375C902.848 120.084 909.239 108.359 905.948 97.1855C902.657 86.0122 890.932 79.6221 879.758 82.9128C868.585 86.2035 862.195 97.9289 865.486 109.102" stroke="#F2F2F2" stroke-width="4.96241" stroke-linecap="round"/>
<path d="M903.107 115.074C896.518 124.679 883.39 127.123 873.785 120.533C870.227 118.092 867.651 114.753 866.154 111.029" stroke="#656565" stroke-width="4.96241" stroke-linecap="round"/>
<path d="M889.937 90.6504C891.278 91.1054 892.5 91.7514 893.583 92.5477" stroke="#959595" stroke-width="4.96241" stroke-linecap="round"/>
</g>
<path d="M740.332 118.168H738.397V123.379H737.702V118.168H735.767V117.523H740.332V118.168ZM742.716 117.523H743.411V123.379H742.716V117.523ZM746.428 117.523H747.461L749.446 122.113H749.463L751.464 117.523H752.473V123.379H751.779V118.466H751.762L749.661 123.379H749.24L747.139 118.466H747.122V123.379H746.428V117.523ZM755.494 117.523H759.175V118.168H756.189V120.004H758.976V120.65H756.189V122.734H759.323V123.379H755.494V117.523ZM768.546 123.528C768.099 123.528 767.689 123.451 767.314 123.296C766.944 123.142 766.622 122.93 766.346 122.659C766.076 122.384 765.864 122.058 765.709 121.683C765.56 121.303 765.486 120.892 765.486 120.451C765.486 120.01 765.56 119.602 765.709 119.227C765.864 118.847 766.076 118.521 766.346 118.251C766.622 117.975 766.944 117.76 767.314 117.606C767.689 117.452 768.099 117.374 768.546 117.374C768.993 117.374 769.401 117.452 769.77 117.606C770.145 117.76 770.468 117.975 770.738 118.251C771.013 118.521 771.226 118.847 771.375 119.227C771.529 119.602 771.606 120.01 771.606 120.451C771.606 120.892 771.529 121.303 771.375 121.683C771.226 122.058 771.013 122.384 770.738 122.659C770.468 122.93 770.145 123.142 769.77 123.296C769.401 123.451 768.993 123.528 768.546 123.528ZM768.546 122.883C768.888 122.883 769.199 122.819 769.481 122.692C769.767 122.566 770.013 122.392 770.217 122.171C770.421 121.951 770.578 121.694 770.688 121.402C770.804 121.104 770.862 120.787 770.862 120.451C770.862 120.115 770.804 119.8 770.688 119.508C770.578 119.21 770.421 118.951 770.217 118.731C770.013 118.51 769.767 118.337 769.481 118.21C769.199 118.083 768.888 118.02 768.546 118.02C768.204 118.02 767.89 118.083 767.603 118.21C767.322 118.337 767.079 118.51 766.875 118.731C766.671 118.951 766.511 119.21 766.396 119.508C766.285 119.8 766.23 120.115 766.23 120.451C766.23 120.787 766.285 121.104 766.396 121.402C766.511 121.694 766.671 121.951 766.875 122.171C767.079 122.392 767.322 122.566 767.603 122.692C767.89 122.819 768.204 122.883 768.546 122.883ZM778.677 121.146C778.677 121.466 778.636 121.769 778.553 122.056C778.476 122.342 778.349 122.596 778.173 122.817C778.002 123.032 777.776 123.205 777.495 123.338C777.214 123.464 776.872 123.528 776.469 123.528C776.067 123.528 775.725 123.464 775.444 123.338C775.162 123.205 774.934 123.032 774.757 122.817C774.586 122.596 774.459 122.342 774.377 122.056C774.299 121.769 774.261 121.466 774.261 121.146V117.523H774.956V121.047C774.956 121.284 774.98 121.512 775.03 121.733C775.08 121.954 775.162 122.149 775.278 122.32C775.394 122.491 775.548 122.629 775.741 122.734C775.934 122.833 776.177 122.883 776.469 122.883C776.761 122.883 777.004 122.833 777.197 122.734C777.39 122.629 777.544 122.491 777.66 122.32C777.776 122.149 777.859 121.954 777.908 121.733C777.958 121.512 777.983 121.284 777.983 121.047V117.523H778.677V121.146ZM785.601 118.168H783.665V123.379H782.971V118.168H781.035V117.523H785.601V118.168ZM790.764 118.557C790.648 118.37 790.493 118.235 790.3 118.152C790.107 118.064 789.906 118.02 789.697 118.02C789.542 118.02 789.391 118.039 789.242 118.077C789.093 118.116 788.958 118.174 788.836 118.251C788.721 118.328 788.627 118.43 788.555 118.557C788.484 118.684 788.448 118.833 788.448 119.004C788.448 119.136 788.467 119.255 788.506 119.359C788.55 119.459 788.619 119.55 788.712 119.632C788.806 119.715 788.933 119.792 789.093 119.864C789.253 119.936 789.448 120.007 789.68 120.079C789.906 120.151 790.124 120.228 790.333 120.31C790.548 120.393 790.736 120.498 790.896 120.625C791.061 120.752 791.191 120.911 791.285 121.104C791.384 121.292 791.433 121.529 791.433 121.816C791.433 122.108 791.376 122.362 791.26 122.577C791.144 122.792 790.99 122.971 790.797 123.114C790.609 123.252 790.391 123.354 790.143 123.42C789.895 123.492 789.639 123.528 789.374 123.528C789.203 123.528 789.032 123.511 788.861 123.478C788.69 123.451 788.525 123.406 788.365 123.346C788.211 123.28 788.065 123.197 787.927 123.098C787.789 122.993 787.67 122.866 787.571 122.717L788.167 122.229C788.293 122.444 788.47 122.607 788.696 122.717C788.922 122.828 789.162 122.883 789.415 122.883C789.564 122.883 789.713 122.861 789.862 122.817C790.016 122.772 790.154 122.709 790.276 122.626C790.397 122.538 790.496 122.431 790.573 122.304C790.65 122.177 790.689 122.031 790.689 121.865C790.689 121.683 790.659 121.537 790.598 121.427C790.537 121.311 790.444 121.212 790.317 121.129C790.19 121.047 790.03 120.972 789.837 120.906C789.644 120.84 789.418 120.763 789.159 120.674C788.949 120.608 788.757 120.534 788.58 120.451C788.404 120.363 788.249 120.258 788.117 120.137C787.99 120.01 787.888 119.861 787.811 119.69C787.739 119.514 787.703 119.304 787.703 119.062C787.703 118.78 787.759 118.535 787.869 118.326C787.979 118.116 788.128 117.942 788.315 117.804C788.503 117.661 788.715 117.554 788.952 117.482C789.189 117.41 789.437 117.374 789.697 117.374C790.027 117.374 790.328 117.427 790.598 117.532C790.874 117.631 791.119 117.807 791.334 118.061L790.764 118.557ZM794.143 117.523H794.838V123.379H794.143V117.523ZM797.748 117.523H799.997C800.19 117.523 800.394 117.545 800.609 117.589C800.824 117.634 801.037 117.705 801.246 117.804C801.461 117.898 801.665 118.022 801.858 118.177C802.057 118.331 802.23 118.519 802.379 118.739C802.528 118.954 802.647 119.205 802.735 119.492C802.823 119.773 802.867 120.093 802.867 120.451C802.867 120.809 802.823 121.132 802.735 121.419C802.647 121.7 802.528 121.951 802.379 122.171C802.23 122.386 802.057 122.571 801.858 122.726C801.665 122.88 801.461 123.007 801.246 123.106C801.037 123.2 800.824 123.269 800.609 123.313C800.394 123.357 800.19 123.379 799.997 123.379H797.748V117.523ZM798.442 122.734H799.766C800.102 122.734 800.413 122.69 800.7 122.601C800.987 122.513 801.235 122.378 801.445 122.196C801.654 122.009 801.819 121.772 801.941 121.485C802.062 121.198 802.123 120.854 802.123 120.451C802.123 120.049 802.062 119.704 801.941 119.417C801.819 119.131 801.654 118.896 801.445 118.714C801.235 118.527 800.987 118.389 800.7 118.301C800.413 118.212 800.102 118.168 799.766 118.168H798.442V122.734ZM805.549 117.523H809.229V118.168H806.243V120.004H809.03V120.65H806.243V122.734H809.378V123.379H805.549V117.523ZM815.879 117.523H816.574V120.004H819.7V117.523H820.395V123.379H819.7V120.65H816.574V123.379H815.879V117.523ZM826.132 123.528C825.686 123.528 825.275 123.451 824.9 123.296C824.531 123.142 824.208 122.93 823.932 122.659C823.662 122.384 823.45 122.058 823.296 121.683C823.147 121.303 823.072 120.892 823.072 120.451C823.072 120.01 823.147 119.602 823.296 119.227C823.45 118.847 823.662 118.521 823.932 118.251C824.208 117.975 824.531 117.76 824.9 117.606C825.275 117.452 825.686 117.374 826.132 117.374C826.579 117.374 826.987 117.452 827.356 117.606C827.731 117.76 828.054 117.975 828.324 118.251C828.6 118.521 828.812 118.847 828.961 119.227C829.115 119.602 829.193 120.01 829.193 120.451C829.193 120.892 829.115 121.303 828.961 121.683C828.812 122.058 828.6 122.384 828.324 122.659C828.054 122.93 827.731 123.142 827.356 123.296C826.987 123.451 826.579 123.528 826.132 123.528ZM826.132 122.883C826.474 122.883 826.786 122.819 827.067 122.692C827.354 122.566 827.599 122.392 827.803 122.171C828.007 121.951 828.164 121.694 828.274 121.402C828.39 121.104 828.448 120.787 828.448 120.451C828.448 120.115 828.39 119.8 828.274 119.508C828.164 119.21 828.007 118.951 827.803 118.731C827.599 118.51 827.354 118.337 827.067 118.21C826.786 118.083 826.474 118.02 826.132 118.02C825.791 118.02 825.476 118.083 825.19 118.21C824.908 118.337 824.666 118.51 824.462 118.731C824.258 118.951 824.098 119.21 823.982 119.508C823.872 119.8 823.817 120.115 823.817 120.451C823.817 120.787 823.872 121.104 823.982 121.402C824.098 121.694 824.258 121.951 824.462 122.171C824.666 122.392 824.908 122.566 825.19 122.692C825.476 122.819 825.791 122.883 826.132 122.883ZM831.872 117.523H832.906L834.891 122.113H834.907L836.909 117.523H837.918V123.379H837.223V118.466H837.207L835.106 123.379H834.684L832.583 118.466H832.567V123.379H831.872V117.523ZM840.939 117.523H844.619V118.168H841.633V120.004H844.421V120.65H841.633V122.734H844.768V123.379H840.939V117.523Z" fill="black" fill-opacity="0.6"/>
<line x1="850.639" y1="119.965" x2="873.797" y2="119.965" stroke="#656565" stroke-width="0.827068"/>
<path d="M740.332 102.454H738.397V107.664H737.702V102.454H735.767V101.808H740.332V102.454ZM742.716 101.808H743.411V107.664H742.716V101.808ZM746.428 101.808H747.461L749.446 106.399H749.463L751.464 101.808H752.473V107.664H751.779V102.751H751.762L749.661 107.664H749.24L747.139 102.751H747.122V107.664H746.428V101.808ZM755.494 101.808H759.175V102.454H756.189V104.29H758.976V104.935H756.189V107.019H759.323V107.664H755.494V101.808ZM767.727 101.808H768.381L770.87 107.664H770.06L769.464 106.225H766.536L765.932 107.664H765.147L767.727 101.808ZM768.041 102.702H768.025L766.809 105.58H769.199L768.041 102.702ZM776.381 102.454H774.445V107.664H773.751V102.454H771.815V101.808H776.381V102.454ZM782.63 101.808H783.324V104.29H786.451V101.808H787.145V107.664H786.451V104.935H783.324V107.664H782.63V101.808ZM792.883 107.813C792.436 107.813 792.025 107.736 791.65 107.581C791.281 107.427 790.958 107.215 790.683 106.945C790.412 106.669 790.2 106.344 790.046 105.969C789.897 105.588 789.822 105.177 789.822 104.736C789.822 104.295 789.897 103.887 790.046 103.512C790.2 103.132 790.412 102.806 790.683 102.536C790.958 102.261 791.281 102.046 791.65 101.891C792.025 101.737 792.436 101.66 792.883 101.66C793.329 101.66 793.737 101.737 794.107 101.891C794.482 102.046 794.804 102.261 795.074 102.536C795.35 102.806 795.562 103.132 795.711 103.512C795.866 103.887 795.943 104.295 795.943 104.736C795.943 105.177 795.866 105.588 795.711 105.969C795.562 106.344 795.35 106.669 795.074 106.945C794.804 107.215 794.482 107.427 794.107 107.581C793.737 107.736 793.329 107.813 792.883 107.813ZM792.883 107.168C793.224 107.168 793.536 107.104 793.817 106.978C794.104 106.851 794.349 106.677 794.553 106.457C794.757 106.236 794.914 105.98 795.025 105.687C795.141 105.39 795.198 105.073 795.198 104.736C795.198 104.4 795.141 104.086 795.025 103.793C794.914 103.496 794.757 103.236 794.553 103.016C794.349 102.795 794.104 102.622 793.817 102.495C793.536 102.368 793.224 102.305 792.883 102.305C792.541 102.305 792.226 102.368 791.94 102.495C791.659 102.622 791.416 102.795 791.212 103.016C791.008 103.236 790.848 103.496 790.732 103.793C790.622 104.086 790.567 104.4 790.567 104.736C790.567 105.073 790.622 105.39 790.732 105.687C790.848 105.98 791.008 106.236 791.212 106.457C791.416 106.677 791.659 106.851 791.94 106.978C792.226 107.104 792.541 107.168 792.883 107.168ZM798.622 101.808H799.656L801.641 106.399H801.658L803.659 101.808H804.668V107.664H803.973V102.751H803.957L801.856 107.664H801.434L799.334 102.751H799.317V107.664H798.622V101.808ZM807.689 101.808H811.369V102.454H808.384V104.29H811.171V104.935H808.384V107.019H811.518V107.664H807.689V101.808Z" fill="black" fill-opacity="0.6"/>
<line x1="817.639" y1="104.251" x2="871.398" y2="104.251" stroke="#CACACA" stroke-width="0.827068"/>
<path d="M740.332 87.5668H738.397V92.7773H737.702V87.5668H735.767V86.9217H740.332V87.5668ZM742.716 86.9217H743.411V92.7773H742.716V86.9217ZM746.428 86.9217H747.461L749.446 91.5119H749.463L751.464 86.9217H752.473V92.7773H751.779V87.8646H751.762L749.661 92.7773H749.24L747.139 87.8646H747.122V92.7773H746.428V86.9217ZM755.494 86.9217H759.175V87.5668H756.189V89.4029H758.976V90.048H756.189V92.1322H759.323V92.7773H755.494V86.9217ZM767.727 86.9217H768.381L770.87 92.7773H770.06L769.464 91.3382H766.536L765.932 92.7773H765.147L767.727 86.9217ZM768.041 87.8149H768.025L766.809 90.6931H769.199L768.041 87.8149ZM775.99 87.9555C775.875 87.7681 775.72 87.633 775.527 87.5503C775.334 87.4621 775.133 87.4179 774.923 87.4179C774.769 87.4179 774.617 87.4372 774.469 87.4758C774.32 87.5144 774.185 87.5723 774.063 87.6495C773.948 87.7267 773.854 87.8287 773.782 87.9555C773.71 88.0824 773.675 88.2312 773.675 88.4022C773.675 88.5345 773.694 88.653 773.733 88.7578C773.777 88.857 773.846 88.948 773.939 89.0307C774.033 89.1134 774.16 89.1906 774.32 89.2623C774.48 89.334 774.675 89.4057 774.907 89.4773C775.133 89.549 775.351 89.6262 775.56 89.7089C775.775 89.7916 775.963 89.8964 776.123 90.0232C776.288 90.15 776.418 90.3099 776.511 90.5029C776.611 90.6904 776.66 90.9275 776.66 91.2142C776.66 91.5064 776.602 91.7601 776.487 91.9751C776.371 92.1901 776.216 92.3693 776.024 92.5127C775.836 92.6505 775.618 92.7525 775.37 92.8187C775.122 92.8904 774.866 92.9262 774.601 92.9262C774.43 92.9262 774.259 92.9097 774.088 92.8766C773.917 92.849 773.752 92.8049 773.592 92.7443C773.438 92.6781 773.291 92.5954 773.154 92.4961C773.016 92.3914 772.897 92.2646 772.798 92.1157L773.393 91.6277C773.52 91.8428 773.697 92.0054 773.923 92.1157C774.149 92.226 774.389 92.2811 774.642 92.2811C774.791 92.2811 774.94 92.259 775.089 92.2149C775.243 92.1708 775.381 92.1074 775.502 92.0247C775.624 91.9365 775.723 91.829 775.8 91.7022C775.877 91.5753 775.916 91.4292 775.916 91.2638C775.916 91.0819 775.886 90.9357 775.825 90.8255C775.764 90.7097 775.671 90.6104 775.544 90.5277C775.417 90.445 775.257 90.3706 775.064 90.3044C774.871 90.2382 774.645 90.1611 774.386 90.0728C774.176 90.0067 773.983 89.9322 773.807 89.8495C773.631 89.7613 773.476 89.6565 773.344 89.5352C773.217 89.4084 773.115 89.2595 773.038 89.0886C772.966 88.9122 772.93 88.7027 772.93 88.4601C772.93 88.1788 772.985 87.9335 773.096 87.724C773.206 87.5144 773.355 87.3408 773.542 87.2029C773.73 87.0595 773.942 86.952 774.179 86.8804C774.416 86.8087 774.664 86.7728 774.923 86.7728C775.254 86.7728 775.555 86.8252 775.825 86.93C776.101 87.0292 776.346 87.2057 776.561 87.4593L775.99 87.9555ZM779.37 86.9217H780.065V92.1322H782.745V92.7773H779.37V86.9217ZM785.069 86.9217H788.749V87.5668H785.764V89.4029H788.551V90.048H785.764V92.1322H788.898V92.7773H785.069V86.9217ZM791.535 86.9217H795.215V87.5668H792.229V89.4029H795.017V90.048H792.229V92.1322H795.364V92.7773H791.535V86.9217ZM798 86.9217H799.737C800.007 86.9217 800.264 86.9493 800.506 87.0044C800.755 87.054 800.972 87.1423 801.16 87.2691C801.353 87.3904 801.504 87.5558 801.615 87.7653C801.731 87.9693 801.788 88.223 801.788 88.5262C801.788 88.846 801.728 89.1107 801.606 89.3202C801.485 89.5297 801.328 89.6951 801.135 89.8164C800.948 89.9377 800.741 90.0232 800.515 90.0728C800.289 90.1225 800.074 90.1473 799.87 90.1473H798.695V92.7773H798V86.9217ZM798.695 89.5022H799.87C800.217 89.5022 800.498 89.425 800.713 89.2706C800.934 89.1107 801.044 88.8653 801.044 88.5345C801.044 88.2037 800.934 87.9611 800.713 87.8067C800.498 87.6468 800.217 87.5668 799.87 87.5668H798.695V89.5022Z" fill="black" fill-opacity="0.6"/>
<line x1="807.639" y1="89.3638" x2="885.383" y2="89.3638" stroke="#959595" stroke-width="0.827068"/>
</g>
</g>
<g filter="url(#filter6_d_375_8971)">
<rect x="93" y="323" width="70.8241" height="70.8242" rx="35.4121" fill="white" shape-rendering="crispEdges"/>
<path d="M115.104 349.055C109.804 356.298 111.379 366.466 118.622 371.765C125.864 377.065 136.032 375.49 141.332 368.247C146.631 361.004 145.056 350.837 137.814 345.537" stroke="#F2F2F2" stroke-width="6" stroke-linecap="round"/>
<path d="M113.073 352.75C113.531 351.577 114.134 350.439 114.886 349.36C120.018 341.998 130.147 340.189 137.509 345.321C144.562 350.237 146.518 359.738 142.16 367" stroke="#FFD9C9" stroke-width="6" stroke-linecap="round"/>
<path d="M153.894 359.365C154.421 345.292 143.44 333.455 129.366 332.928C115.293 332.401 103.457 343.382 102.929 357.455C102.402 371.529 113.383 383.365 127.457 383.892" stroke="#F2F2F2" stroke-width="6" stroke-linecap="round"/>
<path d="M128.537 383.911C142.62 383.842 153.981 372.37 153.912 358.287C153.844 344.204 142.372 332.843 128.289 332.911C114.206 332.98 102.845 344.452 102.913 358.535" stroke="#F2F2F2" stroke-width="6" stroke-linecap="round"/>
<path d="M149.226 373.143C141.09 384.638 125.175 387.361 113.68 379.225C104.406 372.661 100.841 361.034 104.083 350.749" stroke="#F35F3F" stroke-width="6" stroke-linecap="round"/>
<path d="M127.498 342.418C130.942 342.263 134.462 343.198 137.509 345.322C141.992 348.446 144.416 353.423 144.467 358.5" stroke="#F35F3F" stroke-width="6" stroke-linecap="round"/>
<rect x="125.672" y="344.539" width="20" height="20" rx="10" transform="rotate(33.8235 125.672 344.539)" fill="#F35F3F"/>
</g>
</g>
<defs>
<filter id="filter0_d_375_8971" x="-116" y="-112" width="262" height="1312" filterUnits="userSpaceOnUse" color-interpolation-filters="sRGB">
<feFlood flood-opacity="0" result="BackgroundImageFix"/>
<feColorMatrix in="SourceAlpha" type="matrix" values="0 0 0 0 0 0 0 0 0 0 0 0 0 0 0 0 0 0 127 0" result="hardAlpha"/>
<feOffset dy="4"/>
<feGaussianBlur stdDeviation="58"/>
<feComposite in2="hardAlpha" operator="out"/>
<feColorMatrix type="matrix" values="0 0 0 0 0 0 0 0 0 0 0 0 0 0 0 0 0 0 0.05 0"/>
<feBlend mode="normal" in2="BackgroundImageFix" result="effect1_dropShadow_375_8971"/>
<feBlend mode="normal" in="SourceGraphic" in2="effect1_dropShadow_375_8971" result="shape"/>
</filter>
<filter id="filter1_d_375_8971" x="-116" y="-112" width="1192" height="262" filterUnits="userSpaceOnUse" color-interpolation-filters="sRGB">
<feFlood flood-opacity="0" result="BackgroundImageFix"/>
<feColorMatrix in="SourceAlpha" type="matrix" values="0 0 0 0 0 0 0 0 0 0 0 0 0 0 0 0 0 0 127 0" result="hardAlpha"/>
<feOffset dy="4"/>
<feGaussianBlur stdDeviation="58"/>
<feComposite in2="hardAlpha" operator="out"/>
<feColorMatrix type="matrix" values="0 0 0 0 0 0 0 0 0 0 0 0 0 0 0 0 0 0 0.05 0"/>
<feBlend mode="normal" in2="BackgroundImageFix" result="effect1_dropShadow_375_8971"/>
<feBlend mode="normal" in="SourceGraphic" in2="effect1_dropShadow_375_8971" result="shape"/>
</filter>
<filter id="filter2_d_375_8971" x="179.2" y="872.4" width="602.6" height="243.6" filterUnits="userSpaceOnUse" color-interpolation-filters="sRGB">
<feFlood flood-opacity="0" result="BackgroundImageFix"/>
<feColorMatrix in="SourceAlpha" type="matrix" values="0 0 0 0 0 0 0 0 0 0 0 0 0 0 0 0 0 0 127 0" result="hardAlpha"/>
<feOffset dy="3.2"/>
<feGaussianBlur stdDeviation="46.4"/>
<feComposite in2="hardAlpha" operator="out"/>
<feColorMatrix type="matrix" values="0 0 0 0 0 0 0 0 0 0 0 0 0 0 0 0 0 0 0.05 0"/>
<feBlend mode="normal" in2="BackgroundImageFix" result="effect1_dropShadow_375_8971"/>
<feBlend mode="normal" in="SourceGraphic" in2="effect1_dropShadow_375_8971" result="shape"/>
</filter>
<filter id="filter3_d_375_8971" x="595" y="605" width="186.824" height="186.824" filterUnits="userSpaceOnUse" color-interpolation-filters="sRGB">
<feFlood flood-opacity="0" result="BackgroundImageFix"/>
<feColorMatrix in="SourceAlpha" type="matrix" values="0 0 0 0 0 0 0 0 0 0 0 0 0 0 0 0 0 0 127 0" result="hardAlpha"/>
<feOffset dy="2"/>
<feGaussianBlur stdDeviation="29"/>
<feComposite in2="hardAlpha" operator="out"/>
<feColorMatrix type="matrix" values="0 0 0 0 0 0 0 0 0 0 0 0 0 0 0 0 0 0 0.05 0"/>
<feBlend mode="normal" in2="BackgroundImageFix" result="effect1_dropShadow_375_8971"/>
<feBlend mode="normal" in="SourceGraphic" in2="effect1_dropShadow_375_8971" result="shape"/>
</filter>
<filter id="filter4_d_375_8971" x="625.677" y="-32.0144" width="398.647" height="277.067" filterUnits="userSpaceOnUse" color-interpolation-filters="sRGB">
<feFlood flood-opacity="0" result="BackgroundImageFix"/>
<feColorMatrix in="SourceAlpha" type="matrix" values="0 0 0 0 0 0 0 0 0 0 0 0 0 0 0 0 0 0 127 0" result="hardAlpha"/>
<feOffset dy="3.30827"/>
<feGaussianBlur stdDeviation="47.9699"/>
<feComposite in2="hardAlpha" operator="out"/>
<feColorMatrix type="matrix" values="0 0 0 0 0 0 0 0 0 0 0 0 0 0 0 0 0 0 0.05 0"/>
<feBlend mode="normal" in2="BackgroundImageFix" result="effect1_dropShadow_375_8971"/>
<feBlend mode="normal" in="SourceGraphic" in2="effect1_dropShadow_375_8971" result="shape"/>
</filter>
<filter id="filter5_d_375_8971" x="801.473" y="20.5514" width="168.485" height="168.487" filterUnits="userSpaceOnUse" color-interpolation-filters="sRGB">
<feFlood flood-opacity="0" result="BackgroundImageFix"/>
<feColorMatrix in="SourceAlpha" type="matrix" values="0 0 0 0 0 0 0 0 0 0 0 0 0 0 0 0 0 0 127 0" result="hardAlpha"/>
<feOffset dy="1.65414"/>
<feGaussianBlur stdDeviation="23.985"/>
<feComposite in2="hardAlpha" operator="out"/>
<feColorMatrix type="matrix" values="0 0 0 0 0 0 0 0 0 0 0 0 0 0 0 0 0 0 0.05 0"/>
<feBlend mode="normal" in2="BackgroundImageFix" result="effect1_dropShadow_375_8971"/>
<feBlend mode="normal" in="SourceGraphic" in2="effect1_dropShadow_375_8971" result="shape"/>
</filter>
<filter id="filter6_d_375_8971" x="35" y="267" width="186.824" height="186.824" filterUnits="userSpaceOnUse" color-interpolation-filters="sRGB">
<feFlood flood-opacity="0" result="BackgroundImageFix"/>
<feColorMatrix in="SourceAlpha" type="matrix" values="0 0 0 0 0 0 0 0 0 0 0 0 0 0 0 0 0 0 127 0" result="hardAlpha"/>
<feOffset dy="2"/>
<feGaussianBlur stdDeviation="29"/>
<feComposite in2="hardAlpha" operator="out"/>
<feColorMatrix type="matrix" values="0 0 0 0 0 0 0 0 0 0 0 0 0 0 0 0 0 0 0.05 0"/>
<feBlend mode="normal" in2="BackgroundImageFix" result="effect1_dropShadow_375_8971"/>
<feBlend mode="normal" in="SourceGraphic" in2="effect1_dropShadow_375_8971" result="shape"/>
</filter>
<clipPath id="clip0_375_8971">
<rect width="960" height="1080" fill="white"/>
</clipPath>
<clipPath id="clip1_375_8971">
<rect width="30" height="196" fill="white" transform="translate(0 442)"/>
</clipPath>
</defs>
</svg>
