<svg width="960" height="1080" viewBox="0 0 960 1080" fill="none" xmlns="http://www.w3.org/2000/svg">
<g clip-path="url(#clip0_375_8513)">
<rect width="960" height="1080" fill="#FDFDFD"/>
<g filter="url(#filter0_d_375_8513)">
<rect width="30" height="1080" fill="white"/>
<rect y="100" width="30" height="0.5" fill="black" fill-opacity="0.4"/>
<rect y="214" width="30" height="0.5" fill="black" fill-opacity="0.4"/>
<rect y="328" width="30" height="0.5" fill="black" fill-opacity="0.4"/>
<g clip-path="url(#clip1_375_8513)">
<rect x="-5" y="442" width="40" height="0.5" fill="black" fill-opacity="0.4"/>
<path d="M19.496 499.556V500.564H15.896V505.1H19.496V506.108H11V505.1H14.96V500.564H11V499.556H19.496ZM19.496 513.244V514.192L11 517.804V516.628L13.088 515.764L13.088 511.516L11 510.64V509.5L19.496 513.244ZM18.2 513.7V513.676L14.024 511.912L14.024 515.38L18.2 513.7ZM19.496 521.201V523.721C19.496 524.113 19.456 524.485 19.376 524.837C19.304 525.197 19.176 525.513 18.992 525.785C18.816 526.065 18.576 526.285 18.272 526.445C17.976 526.613 17.608 526.697 17.168 526.697C16.704 526.697 16.32 526.609 16.016 526.433C15.712 526.257 15.472 526.029 15.296 525.749C15.12 525.477 14.996 525.177 14.924 524.849C14.852 524.521 14.816 524.209 14.816 523.913V522.209H11V521.201H19.496ZM15.752 522.209V523.913C15.752 524.417 15.864 524.825 16.088 525.137C16.32 525.457 16.676 525.617 17.156 525.617C17.636 525.617 17.988 525.457 18.212 525.137C18.444 524.825 18.56 524.417 18.56 523.913V522.209H15.752ZM19.496 530.583V533.103C19.496 533.495 19.456 533.867 19.376 534.219C19.304 534.579 19.176 534.895 18.992 535.167C18.816 535.447 18.576 535.667 18.272 535.827C17.976 535.995 17.608 536.079 17.168 536.079C16.704 536.079 16.32 535.991 16.016 535.815C15.712 535.639 15.472 535.411 15.296 535.131C15.12 534.859 14.996 534.559 14.924 534.231C14.852 533.903 14.816 533.591 14.816 533.295V531.591H11V530.583H19.496ZM15.752 531.591V533.295C15.752 533.799 15.864 534.207 16.088 534.519C16.32 534.839 16.676 534.999 17.156 534.999C17.636 534.999 17.988 534.839 18.212 534.519C18.444 534.207 18.56 533.799 18.56 533.295V531.591H15.752ZM19.496 539.964V540.972H11V539.964H19.496ZM19.496 545.349V546.621L12.44 551.541V551.565H19.496V552.573H11V551.301L18.056 546.381V546.357H11V545.349H19.496ZM19.496 556.957V562.297H18.56V557.965H15.896V562.009H14.96V557.965H11.936V562.513H11V556.957H19.496ZM17.996 570.37C18.268 570.202 18.464 569.978 18.584 569.698C18.712 569.418 18.776 569.126 18.776 568.822C18.776 568.598 18.748 568.378 18.692 568.162C18.636 567.946 18.552 567.75 18.44 567.574C18.328 567.406 18.18 567.27 17.996 567.166C17.812 567.062 17.596 567.01 17.348 567.01C17.156 567.01 16.984 567.038 16.832 567.094C16.688 567.158 16.556 567.258 16.436 567.394C16.316 567.53 16.204 567.714 16.1 567.946C15.996 568.178 15.892 568.462 15.788 568.798C15.684 569.126 15.572 569.442 15.452 569.746C15.332 570.058 15.18 570.33 14.996 570.562C14.812 570.802 14.58 570.99 14.3 571.126C14.028 571.27 13.684 571.342 13.268 571.342C12.844 571.342 12.476 571.258 12.164 571.09C11.852 570.922 11.592 570.698 11.384 570.418C11.184 570.146 11.036 569.83 10.94 569.47C10.836 569.11 10.784 568.738 10.784 568.354C10.784 568.106 10.808 567.858 10.856 567.61C10.896 567.362 10.96 567.122 11.048 566.89C11.144 566.666 11.264 566.454 11.408 566.254C11.56 566.054 11.744 565.882 11.96 565.738L12.668 566.602C12.356 566.786 12.12 567.042 11.96 567.37C11.8 567.698 11.72 568.046 11.72 568.414C11.72 568.63 11.752 568.846 11.816 569.062C11.88 569.286 11.972 569.486 12.092 569.662C12.22 569.838 12.376 569.982 12.56 570.094C12.744 570.206 12.956 570.262 13.196 570.262C13.46 570.262 13.672 570.218 13.832 570.13C14 570.042 14.144 569.906 14.264 569.722C14.384 569.538 14.492 569.306 14.588 569.026C14.684 568.746 14.796 568.418 14.924 568.042C15.02 567.738 15.128 567.458 15.248 567.202C15.376 566.946 15.528 566.722 15.704 566.53C15.888 566.346 16.104 566.198 16.352 566.086C16.608 565.982 16.912 565.93 17.264 565.93C17.672 565.93 18.028 566.01 18.332 566.17C18.636 566.33 18.888 566.546 19.088 566.818C19.296 567.09 19.452 567.398 19.556 567.742C19.66 568.086 19.712 568.446 19.712 568.822C19.712 569.302 19.636 569.738 19.484 570.13C19.34 570.53 19.084 570.886 18.716 571.198L17.996 570.37ZM17.996 579.306C18.268 579.138 18.464 578.914 18.584 578.634C18.712 578.354 18.776 578.062 18.776 577.758C18.776 577.534 18.748 577.314 18.692 577.098C18.636 576.882 18.552 576.686 18.44 576.51C18.328 576.342 18.18 576.206 17.996 576.102C17.812 575.998 17.596 575.946 17.348 575.946C17.156 575.946 16.984 575.974 16.832 576.03C16.688 576.094 16.556 576.194 16.436 576.33C16.316 576.466 16.204 576.65 16.1 576.882C15.996 577.114 15.892 577.398 15.788 577.734C15.684 578.062 15.572 578.378 15.452 578.682C15.332 578.994 15.18 579.266 14.996 579.498C14.812 579.738 14.58 579.926 14.3 580.062C14.028 580.206 13.684 580.278 13.268 580.278C12.844 580.278 12.476 580.194 12.164 580.026C11.852 579.858 11.592 579.634 11.384 579.354C11.184 579.082 11.036 578.766 10.94 578.406C10.836 578.046 10.784 577.674 10.784 577.29C10.784 577.042 10.808 576.794 10.856 576.546C10.896 576.298 10.96 576.058 11.048 575.826C11.144 575.602 11.264 575.39 11.408 575.19C11.56 574.99 11.744 574.818 11.96 574.674L12.668 575.538C12.356 575.722 12.12 575.978 11.96 576.306C11.8 576.634 11.72 576.982 11.72 577.35C11.72 577.566 11.752 577.782 11.816 577.998C11.88 578.222 11.972 578.422 12.092 578.598C12.22 578.774 12.376 578.918 12.56 579.03C12.744 579.142 12.956 579.198 13.196 579.198C13.46 579.198 13.672 579.154 13.832 579.066C14 578.978 14.144 578.842 14.264 578.658C14.384 578.474 14.492 578.242 14.588 577.962C14.684 577.682 14.796 577.354 14.924 576.978C15.02 576.674 15.128 576.394 15.248 576.138C15.376 575.882 15.528 575.658 15.704 575.466C15.888 575.282 16.104 575.134 16.352 575.022C16.608 574.918 16.912 574.866 17.264 574.866C17.672 574.866 18.028 574.946 18.332 575.106C18.636 575.266 18.888 575.482 19.088 575.754C19.296 576.026 19.452 576.334 19.556 576.678C19.66 577.022 19.712 577.382 19.712 577.758C19.712 578.238 19.636 578.674 19.484 579.066C19.34 579.466 19.084 579.822 18.716 580.134L17.996 579.306Z" fill="black" fill-opacity="0.6"/>
<rect x="-5" y="637.5" width="40" height="0.5" fill="black" fill-opacity="0.4"/>
</g>
<rect y="751.5" width="30" height="0.5" fill="black" fill-opacity="0.4"/>
<rect y="865.5" width="30" height="0.5" fill="black" fill-opacity="0.4"/>
<rect y="979.5" width="30" height="0.5" fill="black" fill-opacity="0.4"/>
</g>
<g filter="url(#filter1_d_375_8513)">
<rect width="30" height="960" transform="translate(0 30) rotate(-90)" fill="white"/>
<rect x="100" y="30" width="30" height="0.5" transform="rotate(-90 100 30)" fill="black" fill-opacity="0.4"/>
<rect x="217.666" y="30" width="30" height="0.5" transform="rotate(-90 217.666 30)" fill="black" fill-opacity="0.4"/>
<rect x="335.334" y="30" width="30" height="0.5" transform="rotate(-90 335.334 30)" fill="black" fill-opacity="0.4"/>
<path d="M454.056 10.504H455.556L458.436 17.164H458.46L461.364 10.504H462.828V19H461.82V11.872H461.796L458.748 19H458.136L455.088 11.872H455.064V19H454.056V10.504ZM471.159 19.216C470.511 19.216 469.915 19.104 469.371 18.88C468.835 18.656 468.367 18.348 467.967 17.956C467.575 17.556 467.267 17.084 467.043 16.54C466.827 15.988 466.719 15.392 466.719 14.752C466.719 14.112 466.827 13.52 467.043 12.976C467.267 12.424 467.575 11.952 467.967 11.56C468.367 11.16 468.835 10.848 469.371 10.624C469.915 10.4 470.511 10.288 471.159 10.288C471.807 10.288 472.399 10.4 472.935 10.624C473.479 10.848 473.947 11.16 474.339 11.56C474.739 11.952 475.047 12.424 475.263 12.976C475.487 13.52 475.599 14.112 475.599 14.752C475.599 15.392 475.487 15.988 475.263 16.54C475.047 17.084 474.739 17.556 474.339 17.956C473.947 18.348 473.479 18.656 472.935 18.88C472.399 19.104 471.807 19.216 471.159 19.216ZM471.159 18.28C471.655 18.28 472.107 18.188 472.515 18.004C472.931 17.82 473.287 17.568 473.583 17.248C473.879 16.928 474.107 16.556 474.267 16.132C474.435 15.7 474.519 15.24 474.519 14.752C474.519 14.264 474.435 13.808 474.267 13.384C474.107 12.952 473.879 12.576 473.583 12.256C473.287 11.936 472.931 11.684 472.515 11.5C472.107 11.316 471.655 11.224 471.159 11.224C470.663 11.224 470.207 11.316 469.791 11.5C469.383 11.684 469.031 11.936 468.735 12.256C468.439 12.576 468.207 12.952 468.039 13.384C467.879 13.808 467.799 14.264 467.799 14.752C467.799 15.24 467.879 15.7 468.039 16.132C468.207 16.556 468.439 16.928 468.735 17.248C469.031 17.568 469.383 17.82 469.791 18.004C470.207 18.188 470.663 18.28 471.159 18.28ZM479.487 10.504H480.759L485.679 17.56H485.703V10.504H486.711V19H485.439L480.519 11.944H480.495V19H479.487V10.504ZM491.094 10.504H496.434V11.44H492.102V14.104H496.146V15.04H492.102V18.064H496.65V19H491.094V10.504ZM502.48 15.34L499.312 10.504H500.596L502.984 14.344L505.444 10.504H506.656L503.488 15.34V19H502.48V15.34Z" fill="black" fill-opacity="0.6"/>
<rect x="624.166" y="30" width="30" height="0.5" transform="rotate(-90 624.166 30)" fill="black" fill-opacity="0.4"/>
<rect x="741.834" y="30" width="30" height="0.5" transform="rotate(-90 741.834 30)" fill="black" fill-opacity="0.4"/>
<rect x="859.5" y="30" width="30" height="0.5" transform="rotate(-90 859.5 30)" fill="black" fill-opacity="0.4"/>
</g>
<g filter="url(#filter2_d_375_8513)">
<rect x="272" y="962" width="417" height="58" rx="29" fill="#FDFDFD"/>
<rect x="288" y="976" width="115" height="30" rx="15" fill="#131515"/>
<path d="M307 987C306.448 987 306 987.448 306 988V994C306 994.552 306.448 995 307 995H308C308.552 995 309 994.552 309 994V988C309 987.448 308.552 987 308 987H307ZM312 987C311.448 987 311 987.448 311 988V994C311 994.552 311.448 995 312 995H313C313.552 995 314 994.552 314 994V988C314 987.448 313.552 987 313 987H312Z" fill="white"/>
<path d="M329.056 986.504H331.576C331.968 986.504 332.34 986.544 332.692 986.624C333.052 986.696 333.368 986.824 333.64 987.008C333.92 987.184 334.14 987.424 334.3 987.728C334.468 988.024 334.552 988.392 334.552 988.832C334.552 989.296 334.464 989.68 334.288 989.984C334.112 990.288 333.884 990.528 333.604 990.704C333.332 990.88 333.032 991.004 332.704 991.076C332.376 991.148 332.064 991.184 331.768 991.184H330.064V995H329.056V986.504ZM330.064 990.248H331.768C332.272 990.248 332.68 990.136 332.992 989.912C333.312 989.68 333.472 989.324 333.472 988.844C333.472 988.364 333.312 988.012 332.992 987.788C332.68 987.556 332.272 987.44 331.768 987.44H330.064V990.248ZM340.307 986.504H341.255L344.867 995H343.691L342.827 992.912H338.579L337.703 995H336.563L340.307 986.504ZM340.763 987.8H340.739L338.975 991.976H342.443L340.763 987.8ZM348.264 986.504H350.436C350.844 986.504 351.248 986.528 351.648 986.576C352.056 986.624 352.42 986.728 352.74 986.888C353.06 987.048 353.32 987.284 353.52 987.596C353.72 987.9 353.82 988.316 353.82 988.844C353.82 989.468 353.632 989.972 353.256 990.356C352.88 990.74 352.36 990.984 351.696 991.088L354.108 995H352.872L350.568 991.184H349.272V995H348.264V986.504ZM349.272 990.248H350.172C350.452 990.248 350.74 990.24 351.036 990.224C351.34 990.208 351.616 990.156 351.864 990.068C352.12 989.98 352.328 989.844 352.488 989.66C352.656 989.468 352.74 989.196 352.74 988.844C352.74 988.54 352.68 988.296 352.56 988.112C352.44 987.928 352.28 987.788 352.08 987.692C351.888 987.588 351.668 987.52 351.42 987.488C351.18 987.456 350.936 987.44 350.688 987.44H349.272V990.248ZM363.357 987.44H360.549V995H359.541V987.44H356.733V986.504H363.357V987.44ZM375.687 995H374.679V987.8H374.655L373.131 989.084L372.531 988.352L374.811 986.504H375.687V995Z" fill="white"/>
<rect x="403" y="990" width="24" height="2" fill="black" fill-opacity="0.1"/>
<rect x="427" y="976" width="30" height="30" rx="15" fill="black" fill-opacity="0.05"/>
<path d="M438.644 994.572L442.62 990.624C442.76 990.493 442.895 990.353 443.026 990.204C443.157 990.045 443.273 989.882 443.376 989.714C443.479 989.546 443.558 989.369 443.614 989.182C443.679 988.995 443.712 988.799 443.712 988.594C443.712 988.351 443.665 988.132 443.572 987.936C443.488 987.74 443.367 987.577 443.208 987.446C443.059 987.306 442.877 987.199 442.662 987.124C442.457 987.049 442.237 987.012 442.004 987.012C441.519 987.012 441.117 987.147 440.8 987.418C440.483 987.689 440.282 988.062 440.198 988.538L438.742 988.412C438.807 987.973 438.933 987.595 439.12 987.278C439.316 986.951 439.554 986.681 439.834 986.466C440.123 986.251 440.45 986.093 440.814 985.99C441.187 985.887 441.589 985.836 442.018 985.836C442.447 985.836 442.849 985.897 443.222 986.018C443.605 986.13 443.936 986.303 444.216 986.536C444.505 986.76 444.729 987.045 444.888 987.39C445.056 987.726 445.14 988.123 445.14 988.58C445.14 988.907 445.089 989.215 444.986 989.504C444.893 989.784 444.767 990.05 444.608 990.302C444.449 990.554 444.267 990.792 444.062 991.016C443.857 991.24 443.642 991.459 443.418 991.674L440.156 994.824H445.14V996H438.644V994.572Z" fill="black" fill-opacity="0.3"/>
<rect x="457" y="990" width="24" height="2" fill="black" fill-opacity="0.1"/>
<rect x="481" y="976" width="30" height="30" rx="15" fill="black" fill-opacity="0.05"/>
<path d="M494.058 993.578C494.217 994.054 494.427 994.409 494.688 994.642C494.959 994.875 495.355 994.992 495.878 994.992C496.139 994.992 496.382 994.95 496.606 994.866C496.839 994.773 497.045 994.651 497.222 994.502C497.399 994.343 497.539 994.157 497.642 993.942C497.745 993.718 497.796 993.471 497.796 993.2C497.796 992.789 497.707 992.463 497.53 992.22C497.362 991.968 497.143 991.781 496.872 991.66C496.601 991.529 496.303 991.445 495.976 991.408C495.649 991.371 495.327 991.352 495.01 991.352V990.176C495.523 990.176 495.943 990.143 496.27 990.078C496.597 990.003 496.853 989.901 497.04 989.77C497.227 989.639 497.357 989.476 497.432 989.28C497.507 989.084 497.544 988.865 497.544 988.622C497.544 988.09 497.385 987.689 497.068 987.418C496.751 987.147 496.354 987.012 495.878 987.012C495.514 987.012 495.183 987.119 494.884 987.334C494.595 987.539 494.375 987.815 494.226 988.16L492.854 987.698C493.115 987.063 493.512 986.597 494.044 986.298C494.585 985.99 495.187 985.836 495.85 985.836C496.251 985.836 496.634 985.892 496.998 986.004C497.371 986.107 497.698 986.27 497.978 986.494C498.258 986.718 498.477 987.003 498.636 987.348C498.804 987.684 498.888 988.081 498.888 988.538C498.888 989.061 498.729 989.527 498.412 989.938C498.104 990.349 497.698 990.629 497.194 990.778V990.806C497.502 990.862 497.777 990.965 498.02 991.114C498.263 991.263 498.468 991.45 498.636 991.674C498.804 991.898 498.93 992.15 499.014 992.43C499.098 992.701 499.14 992.99 499.14 993.298C499.14 993.774 499.047 994.194 498.86 994.558C498.683 994.913 498.44 995.211 498.132 995.454C497.833 995.687 497.483 995.865 497.082 995.986C496.69 996.107 496.275 996.168 495.836 996.168C495.08 996.168 494.413 995.995 493.834 995.65C493.265 995.305 492.868 994.759 492.644 994.012L494.058 993.578Z" fill="black" fill-opacity="0.3"/>
<rect x="511" y="990" width="24" height="2" fill="black" fill-opacity="0.1"/>
<rect x="535" y="976" width="30" height="30" rx="15" fill="black" fill-opacity="0.05"/>
<path d="M550.704 993.816H546.476V992.444L550.424 986.088H552.048V992.64H553.448V993.816H552.048V996H550.704V993.816ZM550.704 987.684H550.676L547.652 992.64H550.704V987.684Z" fill="black" fill-opacity="0.3"/>
<rect x="565" y="990" width="24" height="2" fill="black" fill-opacity="0.1"/>
<rect x="589" y="976" width="30" height="30" rx="15" fill="black" fill-opacity="0.05"/>
<path d="M606.594 987.348H602.576L602.534 989.826C602.599 989.798 602.693 989.77 602.814 989.742C602.935 989.714 603.057 989.691 603.178 989.672C603.309 989.653 603.435 989.639 603.556 989.63C603.677 989.621 603.78 989.616 603.864 989.616C604.331 989.616 604.751 989.695 605.124 989.854C605.507 990.013 605.833 990.237 606.104 990.526C606.375 990.815 606.58 991.161 606.72 991.562C606.869 991.963 606.944 992.407 606.944 992.892C606.944 993.387 606.851 993.835 606.664 994.236C606.487 994.637 606.239 994.983 605.922 995.272C605.605 995.561 605.236 995.785 604.816 995.944C604.396 996.093 603.943 996.168 603.458 996.168C602.786 996.168 602.179 995.995 601.638 995.65C601.097 995.305 600.709 994.81 600.476 994.166L601.834 993.704C602.011 994.161 602.249 994.493 602.548 994.698C602.847 994.894 603.22 994.992 603.668 994.992C603.929 994.992 604.177 994.945 604.41 994.852C604.653 994.759 604.858 994.628 605.026 994.46C605.203 994.283 605.343 994.068 605.446 993.816C605.549 993.564 605.6 993.279 605.6 992.962C605.6 992.234 605.376 991.693 604.928 991.338C604.489 990.974 603.915 990.792 603.206 990.792C602.954 990.792 602.632 990.839 602.24 990.932C601.857 991.016 601.498 991.142 601.162 991.31L601.274 986.088H606.594V987.348Z" fill="black" fill-opacity="0.3"/>
<rect x="619" y="990" width="24" height="2" fill="black" fill-opacity="0.1"/>
<rect x="643" y="976" width="30" height="30" rx="15" fill="black" fill-opacity="0.05"/>
<rect x="656" y="989" width="4" height="4" rx="2" fill="black" fill-opacity="0.3"/>
</g>
<g filter="url(#filter3_d_375_8513)">
<rect x="653" y="661" width="70.8241" height="70.8242" rx="35.4121" fill="white" shape-rendering="crispEdges"/>
</g>
<g filter="url(#filter4_d_375_8513)">
<rect x="93" y="323" width="70.8241" height="70.8242" rx="35.4121" fill="white" shape-rendering="crispEdges"/>
</g>
</g>
<defs>
<filter id="filter0_d_375_8513" x="-116" y="-112" width="262" height="1312" filterUnits="userSpaceOnUse" color-interpolation-filters="sRGB">
<feFlood flood-opacity="0" result="BackgroundImageFix"/>
<feColorMatrix in="SourceAlpha" type="matrix" values="0 0 0 0 0 0 0 0 0 0 0 0 0 0 0 0 0 0 127 0" result="hardAlpha"/>
<feOffset dy="4"/>
<feGaussianBlur stdDeviation="58"/>
<feComposite in2="hardAlpha" operator="out"/>
<feColorMatrix type="matrix" values="0 0 0 0 0 0 0 0 0 0 0 0 0 0 0 0 0 0 0.05 0"/>
<feBlend mode="normal" in2="BackgroundImageFix" result="effect1_dropShadow_375_8513"/>
<feBlend mode="normal" in="SourceGraphic" in2="effect1_dropShadow_375_8513" result="shape"/>
</filter>
<filter id="filter1_d_375_8513" x="-116" y="-112" width="1192" height="262" filterUnits="userSpaceOnUse" color-interpolation-filters="sRGB">
<feFlood flood-opacity="0" result="BackgroundImageFix"/>
<feColorMatrix in="SourceAlpha" type="matrix" values="0 0 0 0 0 0 0 0 0 0 0 0 0 0 0 0 0 0 127 0" result="hardAlpha"/>
<feOffset dy="4"/>
<feGaussianBlur stdDeviation="58"/>
<feComposite in2="hardAlpha" operator="out"/>
<feColorMatrix type="matrix" values="0 0 0 0 0 0 0 0 0 0 0 0 0 0 0 0 0 0 0.05 0"/>
<feBlend mode="normal" in2="BackgroundImageFix" result="effect1_dropShadow_375_8513"/>
<feBlend mode="normal" in="SourceGraphic" in2="effect1_dropShadow_375_8513" result="shape"/>
</filter>
<filter id="filter2_d_375_8513" x="179.2" y="872.4" width="602.6" height="243.6" filterUnits="userSpaceOnUse" color-interpolation-filters="sRGB">
<feFlood flood-opacity="0" result="BackgroundImageFix"/>
<feColorMatrix in="SourceAlpha" type="matrix" values="0 0 0 0 0 0 0 0 0 0 0 0 0 0 0 0 0 0 127 0" result="hardAlpha"/>
<feOffset dy="3.2"/>
<feGaussianBlur stdDeviation="46.4"/>
<feComposite in2="hardAlpha" operator="out"/>
<feColorMatrix type="matrix" values="0 0 0 0 0 0 0 0 0 0 0 0 0 0 0 0 0 0 0.05 0"/>
<feBlend mode="normal" in2="BackgroundImageFix" result="effect1_dropShadow_375_8513"/>
<feBlend mode="normal" in="SourceGraphic" in2="effect1_dropShadow_375_8513" result="shape"/>
</filter>
<filter id="filter3_d_375_8513" x="595" y="605" width="186.824" height="186.824" filterUnits="userSpaceOnUse" color-interpolation-filters="sRGB">
<feFlood flood-opacity="0" result="BackgroundImageFix"/>
<feColorMatrix in="SourceAlpha" type="matrix" values="0 0 0 0 0 0 0 0 0 0 0 0 0 0 0 0 0 0 127 0" result="hardAlpha"/>
<feOffset dy="2"/>
<feGaussianBlur stdDeviation="29"/>
<feComposite in2="hardAlpha" operator="out"/>
<feColorMatrix type="matrix" values="0 0 0 0 0 0 0 0 0 0 0 0 0 0 0 0 0 0 0.02 0"/>
<feBlend mode="normal" in2="BackgroundImageFix" result="effect1_dropShadow_375_8513"/>
<feBlend mode="normal" in="SourceGraphic" in2="effect1_dropShadow_375_8513" result="shape"/>
</filter>
<filter id="filter4_d_375_8513" x="35" y="267" width="186.824" height="186.824" filterUnits="userSpaceOnUse" color-interpolation-filters="sRGB">
<feFlood flood-opacity="0" result="BackgroundImageFix"/>
<feColorMatrix in="SourceAlpha" type="matrix" values="0 0 0 0 0 0 0 0 0 0 0 0 0 0 0 0 0 0 127 0" result="hardAlpha"/>
<feOffset dy="2"/>
<feGaussianBlur stdDeviation="29"/>
<feComposite in2="hardAlpha" operator="out"/>
<feColorMatrix type="matrix" values="0 0 0 0 0 0 0 0 0 0 0 0 0 0 0 0 0 0 0.02 0"/>
<feBlend mode="normal" in2="BackgroundImageFix" result="effect1_dropShadow_375_8513"/>
<feBlend mode="normal" in="SourceGraphic" in2="effect1_dropShadow_375_8513" result="shape"/>
</filter>
<clipPath id="clip0_375_8513">
<rect width="960" height="1080" fill="white"/>
</clipPath>
<clipPath id="clip1_375_8513">
<rect width="30" height="196" fill="white" transform="translate(0 442)"/>
</clipPath>
</defs>
</svg>
