<svg width="208" height="164" viewBox="0 0 208 164" fill="none" xmlns="http://www.w3.org/2000/svg">
<g clip-path="url(#clip0_390_9904)">
<rect width="206.75" height="163.366" transform="translate(0.998047)" fill="white"/>
<g filter="url(#filter0_d_390_9904)">
<rect x="128.814" y="22.5234" width="58.5715" height="58.5715" rx="29.2857" transform="rotate(-16.132 128.814 22.5234)" fill="white" shape-rendering="crispEdges"/>
<path d="M154.217 34.7169C149.778 40.6649 151.001 49.0855 156.949 53.5248C162.897 57.9642 171.317 56.7412 175.757 50.7932C180.196 44.8452 178.973 36.4246 173.025 31.9853" stroke="#F2F2F2" stroke-width="4.962" stroke-linecap="round"/>
<path d="M153.546 49.8087C151.824 47.0165 151.114 43.591 151.809 40.1205C153.265 32.8428 160.345 28.1234 167.623 29.5796C173.603 30.7762 177.856 35.7704 178.374 41.5513" stroke="#CBCBCB" stroke-width="4.962" stroke-linecap="round"/>
<path d="M185.551 37.4212C182.736 26.1196 171.292 19.2398 159.99 22.0547C148.689 24.8696 141.809 36.3132 144.624 47.6148C147.439 58.9164 158.882 65.7962 170.184 62.9813" stroke="#F2F2F2" stroke-width="4.962" stroke-linecap="round"/>
<path d="M171.045 62.7471C182.218 59.4567 188.607 47.7322 185.317 36.5598C182.027 25.3875 170.302 18.9979 159.13 22.2883C147.957 25.5787 141.568 37.3031 144.858 48.4755" stroke="#F2F2F2" stroke-width="4.962" stroke-linecap="round"/>
<path d="M186.002 39.7727C187.255 49.2606 181.888 58.7091 172.55 62.2419C163.505 65.6641 153.578 62.4594 148.111 55.0368" stroke="#959595" stroke-width="4.962" stroke-linecap="round"/>
<path d="M169.306 30.0254C170.647 30.4804 171.869 31.1264 172.952 31.9226" stroke="#959595" stroke-width="4.962" stroke-linecap="round"/>
<path d="M154.215 34.7169C149.776 40.6649 150.999 49.0855 156.947 53.5248C162.895 57.9642 171.315 56.7412 175.755 50.7932C180.194 44.8452 178.971 36.4246 173.023 31.9853" stroke="#F2F2F2" stroke-width="4.962" stroke-linecap="round"/>
<path d="M176.689 49.3566C180.336 42.8926 178.053 34.6957 171.589 31.0484C165.125 27.4011 156.928 29.6845 153.28 36.1485C151.309 39.6417 151.07 43.6408 152.287 47.1546" stroke="#CACACA" stroke-width="4.962" stroke-linecap="round"/>
<path d="M153.544 49.8087C151.822 47.0165 151.112 43.591 151.807 40.1205C153.263 32.8428 160.343 28.1234 167.621 29.5796C173.601 30.7762 177.854 35.7704 178.372 41.5513" stroke="#CBCBCB" stroke-width="4.962" stroke-linecap="round"/>
<path d="M151.809 40.1211C153.265 32.8433 160.345 28.124 167.623 29.5801C171.337 30.3233 174.385 32.5314 176.286 35.483" stroke="#959595" stroke-width="4.962" stroke-linecap="round"/>
<path d="M185.549 37.4212C182.734 26.1196 171.29 19.2398 159.988 22.0547C148.687 24.8696 141.807 36.3132 144.622 47.6148C147.437 58.9164 158.88 65.7962 170.182 62.9813" stroke="#F2F2F2" stroke-width="4.962" stroke-linecap="round"/>
<path d="M171.043 62.7471C182.216 59.4567 188.605 47.7322 185.315 36.5598C182.025 25.3875 170.3 18.9979 159.128 22.2883C147.955 25.5787 141.566 37.3031 144.856 48.4755" stroke="#F2F2F2" stroke-width="4.962" stroke-linecap="round"/>
<path d="M182.474 54.4506C175.884 64.0544 162.758 66.4984 153.154 59.9093C149.596 57.4682 147.02 54.1297 145.523 50.4055" stroke="#656565" stroke-width="4.962" stroke-linecap="round"/>
<path d="M169.304 30.0254C170.645 30.4804 171.867 31.1264 172.95 31.9226" stroke="#959595" stroke-width="4.962" stroke-linecap="round"/>
</g>
<path d="M19.7146 57.5438H17.7794V62.7539H17.0847V57.5438H15.1496V56.8988H19.7146V57.5438ZM22.0982 56.8988H22.7928V62.7539H22.0982V56.8988ZM25.8095 56.8988H26.8432L28.828 61.4886H28.8445L30.8459 56.8988H31.8548V62.7539H31.1601V57.8415H31.1436L29.043 62.7539H28.6213L26.5207 57.8415H26.5041V62.7539H25.8095V56.8988ZM34.8752 56.8988H38.5554V57.5438H35.5699V59.3797H38.3569V60.0248H35.5699V62.1088H38.7042V62.7539H34.8752V56.8988ZM47.9261 62.9028C47.4795 62.9028 47.0687 62.8256 46.6938 62.6712C46.3244 62.5168 46.0019 62.3046 45.7262 62.0344C45.4561 61.7588 45.2438 61.4335 45.0895 61.0586C44.9406 60.6781 44.8662 60.2674 44.8662 59.8263C44.8662 59.3853 44.9406 58.9773 45.0895 58.6024C45.2438 58.2219 45.4561 57.8967 45.7262 57.6265C46.0019 57.3508 46.3244 57.1358 46.6938 56.9815C47.0687 56.8271 47.4795 56.7499 47.9261 56.7499C48.3726 56.7499 48.7806 56.8271 49.15 56.9815C49.5249 57.1358 49.8475 57.3508 50.1176 57.6265C50.3933 57.8967 50.6055 58.2219 50.7544 58.6024C50.9088 58.9773 50.986 59.3853 50.986 59.8263C50.986 60.2674 50.9088 60.6781 50.7544 61.0586C50.6055 61.4335 50.3933 61.7588 50.1176 62.0344C49.8475 62.3046 49.5249 62.5168 49.15 62.6712C48.7806 62.8256 48.3726 62.9028 47.9261 62.9028ZM47.9261 62.2577C48.2679 62.2577 48.5794 62.1943 48.8606 62.0675C49.1473 61.9407 49.3926 61.767 49.5966 61.5465C49.8006 61.326 49.9577 61.0696 50.068 60.7774C50.1838 60.4797 50.2417 60.1626 50.2417 59.8263C50.2417 59.49 50.1838 59.1758 50.068 58.8835C49.9577 58.5858 49.8006 58.3267 49.5966 58.1062C49.3926 57.8856 49.1473 57.712 48.8606 57.5852C48.5794 57.4584 48.2679 57.395 47.9261 57.395C47.5842 57.395 47.27 57.4584 46.9833 57.5852C46.7021 57.712 46.4595 57.8856 46.2555 58.1062C46.0515 58.3267 45.8916 58.5858 45.7759 58.8835C45.6656 59.1758 45.6105 59.49 45.6105 59.8263C45.6105 60.1626 45.6656 60.4797 45.7759 60.7774C45.8916 61.0696 46.0515 61.326 46.2555 61.5465C46.4595 61.767 46.7021 61.9407 46.9833 62.0675C47.27 62.1943 47.5842 62.2577 47.9261 62.2577ZM58.0567 60.521C58.0567 60.8408 58.0153 61.144 57.9326 61.4307C57.8554 61.7174 57.7286 61.971 57.5522 62.1915C57.3813 62.4066 57.1552 62.5802 56.8741 62.7126C56.5929 62.8394 56.2511 62.9028 55.8486 62.9028C55.4461 62.9028 55.1043 62.8394 54.8231 62.7126C54.5419 62.5802 54.3131 62.4066 54.1367 62.1915C53.9658 61.971 53.839 61.7174 53.7563 61.4307C53.6791 61.144 53.6405 60.8408 53.6405 60.521V56.8988H54.3352V60.4218C54.3352 60.6588 54.36 60.8876 54.4096 61.1082C54.4592 61.3287 54.5419 61.5244 54.6577 61.6953C54.7735 61.8663 54.9279 62.0041 55.1208 62.1088C55.3138 62.2081 55.5564 62.2577 55.8486 62.2577C56.1408 62.2577 56.3834 62.2081 56.5763 62.1088C56.7693 62.0041 56.9237 61.8663 57.0395 61.6953C57.1552 61.5244 57.2379 61.3287 57.2876 61.1082C57.3372 60.8876 57.362 60.6588 57.362 60.4218V56.8988H58.0567V60.521ZM64.9795 57.5438H63.0443V62.7539H62.3496V57.5438H60.4145V56.8988H64.9795V57.5438ZM70.1418 57.9325C70.026 57.745 69.8716 57.61 69.6787 57.5273C69.4857 57.4391 69.2845 57.395 69.075 57.395C68.9206 57.395 68.769 57.4142 68.6201 57.4528C68.4712 57.4914 68.3362 57.5493 68.2149 57.6265C68.0991 57.7037 68.0054 57.8057 67.9337 57.9325C67.862 58.0593 67.8262 58.2082 67.8262 58.3791C67.8262 58.5114 67.8455 58.6299 67.8841 58.7347C67.9282 58.8339 67.9971 58.9249 68.0908 59.0076C68.1846 59.0903 68.3114 59.1675 68.4712 59.2392C68.6311 59.3108 68.8269 59.3825 69.0584 59.4542C69.2845 59.5259 69.5022 59.603 69.7117 59.6857C69.9268 59.7684 70.1142 59.8732 70.2741 60C70.4395 60.1268 70.5691 60.2867 70.6628 60.4797C70.762 60.6671 70.8117 60.9042 70.8117 61.1909C70.8117 61.4831 70.7538 61.7367 70.638 61.9517C70.5222 62.1667 70.3678 62.3459 70.1749 62.4893C69.9874 62.6271 69.7696 62.7291 69.5215 62.7953C69.2734 62.8669 69.0171 62.9028 68.7524 62.9028C68.5815 62.9028 68.4106 62.8862 68.2397 62.8531C68.0688 62.8256 67.9034 62.7815 67.7435 62.7208C67.5891 62.6547 67.443 62.572 67.3052 62.4727C67.1673 62.368 67.0488 62.2412 66.9496 62.0923L67.545 61.6044C67.6718 61.8194 67.8482 61.982 68.0743 62.0923C68.3003 62.2026 68.5402 62.2577 68.7938 62.2577C68.9426 62.2577 69.0915 62.2357 69.2404 62.1915C69.3947 62.1474 69.5326 62.084 69.6539 62.0013C69.7751 61.9131 69.8744 61.8056 69.9516 61.6788C70.0288 61.552 70.0674 61.4059 70.0674 61.2405C70.0674 61.0586 70.037 60.9125 69.9764 60.8022C69.9157 60.6864 69.822 60.5872 69.6952 60.5045C69.5684 60.4218 69.4085 60.3473 69.2155 60.2812C69.0226 60.215 68.7965 60.1378 68.5374 60.0496C68.3279 59.9835 68.1349 59.909 67.9585 59.8263C67.7821 59.7381 67.6277 59.6334 67.4954 59.5121C67.3686 59.3853 67.2666 59.2364 67.1894 59.0655C67.1177 58.8891 67.0819 58.6796 67.0819 58.437C67.0819 58.1558 67.137 57.9104 67.2473 57.7009C67.3576 57.4914 67.5064 57.3178 67.6939 57.1799C67.8813 57.0366 68.0936 56.9291 68.3307 56.8574C68.5677 56.7857 68.8158 56.7499 69.075 56.7499C69.4058 56.7499 69.7062 56.8023 69.9764 56.907C70.2521 57.0063 70.4974 57.1827 70.7124 57.4363L70.1418 57.9325ZM73.5214 56.8988H74.2161V62.7539H73.5214V56.8988ZM77.1252 56.8988H79.3747C79.5676 56.8988 79.7716 56.9208 79.9866 56.9649C80.2016 57.009 80.4139 57.0807 80.6234 57.1799C80.8384 57.2737 81.0424 57.3977 81.2354 57.5521C81.4339 57.7065 81.6075 57.8939 81.7564 58.1144C81.9053 58.3295 82.0238 58.5803 82.112 58.867C82.2002 59.1482 82.2443 59.468 82.2443 59.8263C82.2443 60.1847 82.2002 60.5072 82.112 60.7939C82.0238 61.0751 81.9053 61.326 81.7564 61.5465C81.6075 61.7615 81.4339 61.9462 81.2354 62.1006C81.0424 62.2549 80.8384 62.3818 80.6234 62.481C80.4139 62.5747 80.2016 62.6436 79.9866 62.6877C79.7716 62.7319 79.5676 62.7539 79.3747 62.7539H77.1252V56.8988ZM77.8199 62.1088H79.1431C79.4794 62.1088 79.7909 62.0647 80.0776 61.9765C80.3643 61.8883 80.6124 61.7532 80.8219 61.5713C81.0314 61.3838 81.1968 61.1468 81.3181 60.8601C81.4394 60.5734 81.5 60.2288 81.5 59.8263C81.5 59.4239 81.4394 59.0793 81.3181 58.7926C81.1968 58.5059 81.0314 58.2716 80.8219 58.0896C80.6124 57.9022 80.3643 57.7643 80.0776 57.6761C79.7909 57.5879 79.4794 57.5438 79.1431 57.5438H77.8199V62.1088ZM84.9256 56.8988H88.6057V57.5438H85.6202V59.3797H88.4072V60.0248H85.6202V62.1088H88.7546V62.7539H84.9256V56.8988ZM95.2556 56.8988H95.9502V59.3797H99.0763V56.8988H99.771V62.7539H99.0763V60.0248H95.9502V62.7539H95.2556V56.8988ZM105.508 62.9028C105.061 62.9028 104.65 62.8256 104.275 62.6712C103.906 62.5168 103.584 62.3046 103.308 62.0344C103.038 61.7588 102.825 61.4335 102.671 61.0586C102.522 60.6781 102.448 60.2674 102.448 59.8263C102.448 59.3853 102.522 58.9773 102.671 58.6024C102.825 58.2219 103.038 57.8967 103.308 57.6265C103.584 57.3508 103.906 57.1358 104.275 56.9815C104.65 56.8271 105.061 56.7499 105.508 56.7499C105.954 56.7499 106.362 56.8271 106.732 56.9815C107.107 57.1358 107.429 57.3508 107.699 57.6265C107.975 57.8967 108.187 58.2219 108.336 58.6024C108.49 58.9773 108.568 59.3853 108.568 59.8263C108.568 60.2674 108.49 60.6781 108.336 61.0586C108.187 61.4335 107.975 61.7588 107.699 62.0344C107.429 62.3046 107.107 62.5168 106.732 62.6712C106.362 62.8256 105.954 62.9028 105.508 62.9028ZM105.508 62.2577C105.85 62.2577 106.161 62.1943 106.442 62.0675C106.729 61.9407 106.974 61.767 107.178 61.5465C107.382 61.326 107.539 61.0696 107.65 60.7774C107.765 60.4797 107.823 60.1626 107.823 59.8263C107.823 59.49 107.765 59.1758 107.65 58.8835C107.539 58.5858 107.382 58.3267 107.178 58.1062C106.974 57.8856 106.729 57.712 106.442 57.5852C106.161 57.4584 105.85 57.395 105.508 57.395C105.166 57.395 104.852 57.4584 104.565 57.5852C104.284 57.712 104.041 57.8856 103.837 58.1062C103.633 58.3267 103.473 58.5858 103.358 58.8835C103.247 59.1758 103.192 59.49 103.192 59.8263C103.192 60.1626 103.247 60.4797 103.358 60.7774C103.473 61.0696 103.633 61.326 103.837 61.5465C104.041 61.767 104.284 61.9407 104.565 62.0675C104.852 62.1943 105.166 62.2577 105.508 62.2577ZM111.247 56.8988H112.281L114.265 61.4886H114.282L116.283 56.8988H117.292V62.7539H116.598V57.8415H116.581L114.481 62.7539H114.059L111.958 57.8415H111.942V62.7539H111.247V56.8988ZM120.313 56.8988H123.993V57.5438H121.007V59.3797H123.794V60.0248H121.007V62.1088H124.142V62.7539H120.313V56.8988Z" fill="black" fill-opacity="0.6"/>
<line x1="130.021" y1="59.3404" x2="153.177" y2="59.3404" stroke="#656565" stroke-width="0.826999"/>
<path d="M19.7146 41.829H17.7794V47.0391H17.0847V41.829H15.1496V41.1839H19.7146V41.829ZM22.0982 41.1839H22.7928V47.0391H22.0982V41.1839ZM25.8095 41.1839H26.8432L28.828 45.7738H28.8445L30.8459 41.1839H31.8548V47.0391H31.1601V42.1267H31.1436L29.043 47.0391H28.6213L26.5207 42.1267H26.5041V47.0391H25.8095V41.1839ZM34.8752 41.1839H38.5554V41.829H35.5699V43.6649H38.3569V44.31H35.5699V46.394H38.7042V47.0391H34.8752V41.1839ZM47.1073 41.1839H47.7607L50.2499 47.0391H49.4395L48.844 45.6001H45.9165L45.3127 47.0391H44.5271L47.1073 41.1839ZM47.4216 42.0771H47.4051L46.1894 44.955H48.5794L47.4216 42.0771ZM55.7603 41.829H53.8251V47.0391H53.1304V41.829H51.1952V41.1839H55.7603V41.829ZM62.0086 41.1839H62.7033V43.6649H65.8293V41.1839H66.524V47.0391H65.8293V44.31H62.7033V47.0391H62.0086V41.1839ZM72.2607 47.1879C71.8141 47.1879 71.4034 47.1107 71.0285 46.9564C70.6591 46.802 70.3366 46.5897 70.0609 46.3196C69.7907 46.0439 69.5785 45.7186 69.4241 45.3437C69.2752 44.9633 69.2008 44.5526 69.2008 44.1115C69.2008 43.6704 69.2752 43.2624 69.4241 42.8875C69.5785 42.5071 69.7907 42.1818 70.0609 41.9117C70.3366 41.636 70.6591 41.421 71.0285 41.2666C71.4034 41.1122 71.8141 41.035 72.2607 41.035C72.7073 41.035 73.1153 41.1122 73.4847 41.2666C73.8596 41.421 74.1821 41.636 74.4523 41.9117C74.7279 42.1818 74.9402 42.5071 75.0891 42.8875C75.2434 43.2624 75.3206 43.6704 75.3206 44.1115C75.3206 44.5526 75.2434 44.9633 75.0891 45.3437C74.9402 45.7186 74.7279 46.0439 74.4523 46.3196C74.1821 46.5897 73.8596 46.802 73.4847 46.9564C73.1153 47.1107 72.7073 47.1879 72.2607 47.1879ZM72.2607 46.5429C72.6025 46.5429 72.914 46.4795 73.1952 46.3527C73.4819 46.2258 73.7273 46.0522 73.9313 45.8316C74.1352 45.6111 74.2924 45.3547 74.4026 45.0625C74.5184 44.7648 74.5763 44.4478 74.5763 44.1115C74.5763 43.7752 74.5184 43.4609 74.4026 43.1687C74.2924 42.871 74.1352 42.6119 73.9313 42.3913C73.7273 42.1708 73.4819 41.9971 73.1952 41.8703C72.914 41.7435 72.6025 41.6801 72.2607 41.6801C71.9189 41.6801 71.6046 41.7435 71.3179 41.8703C71.0368 41.9971 70.7942 42.1708 70.5902 42.3913C70.3862 42.6119 70.2263 42.871 70.1105 43.1687C70.0002 43.4609 69.9451 43.7752 69.9451 44.1115C69.9451 44.4478 70.0002 44.7648 70.1105 45.0625C70.2263 45.3547 70.3862 45.6111 70.5902 45.8316C70.7942 46.0522 71.0368 46.2258 71.3179 46.3527C71.6046 46.4795 71.9189 46.5429 72.2607 46.5429ZM78 41.1839H79.0337L81.0185 45.7738H81.035L83.0364 41.1839H84.0453V47.0391H83.3506V42.1267H83.3341L81.2335 47.0391H80.8118L78.7112 42.1267H78.6946V47.0391H78V41.1839ZM87.0657 41.1839H90.7459V41.829H87.7604V43.6649H90.5474V44.31H87.7604V46.394H90.8947V47.0391H87.0657V41.1839Z" fill="black" fill-opacity="0.6"/>
<line x1="97.0215" y1="43.6256" x2="150.776" y2="43.6256" stroke="#CACACA" stroke-width="0.826999"/>
<path d="M19.7146 26.9462H17.7794V32.1562H17.0847V26.9462H15.1496V26.3011H19.7146V26.9462ZM22.0982 26.3011H22.7928V32.1562H22.0982V26.3011ZM25.8095 26.3011H26.8432L28.828 30.8909H28.8445L30.8459 26.3011H31.8548V32.1562H31.1601V27.2439H31.1436L29.043 32.1562H28.6213L26.5207 27.2439H26.5041V32.1562H25.8095V26.3011ZM34.8752 26.3011H38.5554V26.9462H35.5699V28.7821H38.3569V29.4272H35.5699V31.5112H38.7042V32.1562H34.8752V26.3011ZM47.1073 26.3011H47.7607L50.2499 32.1562H49.4395L48.844 30.7173H45.9165L45.3127 32.1562H44.5271L47.1073 26.3011ZM47.4216 27.1943H47.4051L46.1894 30.0722H48.5794L47.4216 27.1943ZM55.3699 27.3348C55.2541 27.1474 55.0997 27.0123 54.9068 26.9296C54.7138 26.8414 54.5126 26.7973 54.3031 26.7973C54.1487 26.7973 53.9971 26.8166 53.8482 26.8552C53.6994 26.8938 53.5643 26.9517 53.443 27.0289C53.3272 27.106 53.2335 27.208 53.1618 27.3348C53.0901 27.4617 53.0543 27.6105 53.0543 27.7814C53.0543 27.9137 53.0736 28.0323 53.1122 28.137C53.1563 28.2363 53.2252 28.3272 53.3189 28.4099C53.4127 28.4926 53.5395 28.5698 53.6994 28.6415C53.8592 28.7132 54.055 28.7848 54.2865 28.8565C54.5126 28.9282 54.7304 29.0054 54.9399 29.0881C55.1549 29.1708 55.3423 29.2755 55.5022 29.4023C55.6676 29.5291 55.7972 29.689 55.8909 29.882C55.9901 30.0695 56.0398 30.3065 56.0398 30.5932C56.0398 30.8854 55.9819 31.139 55.8661 31.3541C55.7503 31.5691 55.5959 31.7483 55.403 31.8916C55.2155 32.0294 54.9977 32.1314 54.7496 32.1976C54.5016 32.2693 54.2452 32.3051 53.9805 32.3051C53.8096 32.3051 53.6387 32.2886 53.4678 32.2555C53.2969 32.2279 53.1315 32.1838 52.9716 32.1232C52.8172 32.057 52.6711 31.9743 52.5333 31.8751C52.3955 31.7703 52.2769 31.6435 52.1777 31.4947L52.7731 31.0067C52.8999 31.2217 53.0764 31.3844 53.3024 31.4947C53.5284 31.6049 53.7683 31.6601 54.0219 31.6601C54.1708 31.6601 54.3196 31.638 54.4685 31.5939C54.6228 31.5498 54.7607 31.4864 54.882 31.4037C55.0033 31.3155 55.1025 31.208 55.1797 31.0812C55.2569 30.9543 55.2955 30.8082 55.2955 30.6428C55.2955 30.4609 55.2651 30.3148 55.2045 30.2045C55.1439 30.0888 55.0501 29.9895 54.9233 29.9068C54.7965 29.8241 54.6366 29.7497 54.4437 29.6835C54.2507 29.6174 54.0246 29.5402 53.7655 29.452C53.556 29.3858 53.363 29.3114 53.1866 29.2287C53.0102 29.1405 52.8558 29.0357 52.7235 28.9144C52.5967 28.7876 52.4947 28.6387 52.4175 28.4678C52.3458 28.2914 52.31 28.0819 52.31 27.8393C52.31 27.5581 52.3651 27.3128 52.4754 27.1033C52.5857 26.8938 52.7345 26.7201 52.922 26.5823C53.1094 26.4389 53.3217 26.3314 53.5588 26.2597C53.7958 26.1881 54.0439 26.1522 54.3031 26.1522C54.6339 26.1522 54.9343 26.2046 55.2045 26.3094C55.4802 26.4086 55.7255 26.585 55.9405 26.8386L55.3699 27.3348ZM58.7495 26.3011H59.4442V31.5112H62.1237V32.1562H58.7495V26.3011ZM64.4476 26.3011H68.1277V26.9462H65.1423V28.7821H67.9292V29.4272H65.1423V31.5112H68.2766V32.1562H64.4476V26.3011ZM70.9128 26.3011H74.593V26.9462H71.6075V28.7821H74.3945V29.4272H71.6075V31.5112H74.7418V32.1562H70.9128V26.3011ZM77.3781 26.3011H79.1148C79.3849 26.3011 79.6413 26.3287 79.8839 26.3838C80.132 26.4334 80.3498 26.5216 80.5372 26.6484C80.7302 26.7697 80.8818 26.9351 80.9921 27.1446C81.1079 27.3486 81.1657 27.6022 81.1657 27.9055C81.1657 28.2252 81.1051 28.4899 80.9838 28.6994C80.8625 28.9089 80.7054 29.0743 80.5124 29.1956C80.325 29.3169 80.1182 29.4023 79.8922 29.452C79.6661 29.5016 79.4511 29.5264 79.2471 29.5264H78.0728V32.1562H77.3781V26.3011ZM78.0728 28.8813H79.2471C79.5945 28.8813 79.8756 28.8041 80.0907 28.6498C80.3112 28.4899 80.4215 28.2445 80.4215 27.9137C80.4215 27.5829 80.3112 27.3404 80.0907 27.186C79.8756 27.0261 79.5945 26.9462 79.2471 26.9462H78.0728V28.8813Z" fill="black" fill-opacity="0.6"/>
<line x1="87.0215" y1="28.7428" x2="164.759" y2="28.7427" stroke="#959595" stroke-width="0.826999"/>
<rect x="0.998047" y="81.8711" width="206.75" height="0.4135" fill="black" fill-opacity="0.1"/>
<path d="M19.0601 96.5632C18.8837 96.3261 18.6659 96.1497 18.4068 96.0339C18.1477 95.9126 17.8775 95.852 17.5964 95.852C17.2711 95.852 16.9706 95.9181 16.6949 96.0505C16.4248 96.1828 16.1905 96.362 15.992 96.588C15.7935 96.8085 15.6391 97.0677 15.5289 97.3654C15.4186 97.6576 15.3635 97.9636 15.3635 98.2834C15.3635 98.6252 15.4186 98.945 15.5289 99.2427C15.6391 99.5349 15.7907 99.7913 15.9837 100.012C16.1822 100.227 16.4165 100.398 16.6867 100.525C16.9623 100.651 17.2656 100.715 17.5964 100.715C17.9547 100.715 18.2745 100.646 18.5557 100.508C18.8369 100.365 19.0822 100.161 19.2917 99.896L19.8127 100.334C19.5481 100.687 19.2283 100.946 18.8534 101.112C18.484 101.277 18.065 101.36 17.5964 101.36C17.1773 101.36 16.7859 101.283 16.422 101.128C16.0581 100.974 15.7411 100.762 15.471 100.491C15.2063 100.216 14.9968 99.8905 14.8424 99.5156C14.6936 99.1407 14.6192 98.7299 14.6192 98.2834C14.6192 97.8533 14.6908 97.4508 14.8342 97.0759C14.983 96.701 15.1898 96.3757 15.4544 96.1001C15.7191 95.8244 16.0333 95.6066 16.3972 95.4468C16.7611 95.2869 17.1608 95.2069 17.5964 95.2069C17.9933 95.2069 18.3737 95.2786 18.7376 95.4219C19.107 95.5653 19.4158 95.7996 19.6639 96.1249L19.0601 96.5632ZM24.2463 95.3558H24.8996L27.3889 101.211H26.5784L25.983 99.772H23.0554L22.4517 101.211H21.666L24.2463 95.3558ZM24.5605 96.2489H24.544L23.3283 99.1269H25.7183L24.5605 96.2489ZM29.7301 95.3558H31.227C31.5082 95.3558 31.7866 95.3723 32.0623 95.4054C32.3434 95.4385 32.5943 95.5102 32.8148 95.6204C33.0354 95.7307 33.2145 95.8933 33.3524 96.1084C33.4902 96.3179 33.5591 96.6046 33.5591 96.9684C33.5591 97.3985 33.4296 97.7458 33.1704 98.0105C32.9113 98.2751 32.5529 98.4432 32.0953 98.5149L33.7576 101.211H32.9058L31.318 98.5811H30.4248V101.211H29.7301V95.3558ZM30.4248 97.936H31.045C31.238 97.936 31.4365 97.9305 31.6405 97.9195C31.85 97.9085 32.0402 97.8726 32.2111 97.812C32.3875 97.7513 32.5309 97.6576 32.6412 97.5308C32.7569 97.3985 32.8148 97.211 32.8148 96.9684C32.8148 96.7589 32.7735 96.5908 32.6908 96.464C32.6081 96.3372 32.4978 96.2407 32.36 96.1745C32.2277 96.1028 32.076 96.056 31.9051 96.0339C31.7397 96.0119 31.5716 96.0008 31.4007 96.0008H30.4248V97.936ZM36.3488 95.3558H40.029V96.0008H37.0435V97.8368H39.8305V98.4818H37.0435V100.566H40.1778V101.211H36.3488V95.3558Z" fill="black" fill-opacity="0.6"/>
<line x1="134.973" y1="97.3839" x2="194.517" y2="97.3839" stroke="#3F67F3" stroke-opacity="0.8" stroke-width="1.654"/>
<path d="M14.9582 110.664H16.4551C16.7363 110.664 17.0147 110.681 17.2904 110.714C17.5715 110.747 17.8224 110.819 18.0429 110.929C18.2635 111.039 18.4427 111.202 18.5805 111.417C18.7183 111.626 18.7872 111.913 18.7872 112.277C18.7872 112.707 18.6577 113.054 18.3985 113.319C18.1394 113.584 17.7811 113.752 17.3234 113.824L18.9857 116.52H18.1339L16.5461 113.89H15.6529V116.52H14.9582V110.664ZM15.6529 113.245H16.2732C16.4661 113.245 16.6646 113.239 16.8686 113.228C17.0781 113.217 17.2683 113.181 17.4392 113.121C17.6157 113.06 17.759 112.966 17.8693 112.839C17.985 112.707 18.0429 112.52 18.0429 112.277C18.0429 112.068 18.0016 111.899 17.9189 111.773C17.8362 111.646 17.7259 111.549 17.5881 111.483C17.4558 111.411 17.3041 111.365 17.1332 111.343C16.9678 111.32 16.7997 111.309 16.6288 111.309H15.6529V113.245ZM21.5769 110.664H25.2571V111.309H22.2716V113.145H25.0586V113.79H22.2716V115.874H25.4059V116.52H21.5769V110.664ZM30.8209 111.698C30.7051 111.511 30.5508 111.376 30.3578 111.293C30.1648 111.205 29.9636 111.161 29.7541 111.161C29.5997 111.161 29.4481 111.18 29.2992 111.218C29.1504 111.257 29.0153 111.315 28.894 111.392C28.7782 111.469 28.6845 111.571 28.6128 111.698C28.5412 111.825 28.5053 111.974 28.5053 112.145C28.5053 112.277 28.5246 112.396 28.5632 112.5C28.6073 112.6 28.6762 112.691 28.77 112.773C28.8637 112.856 28.9905 112.933 29.1504 113.005C29.3103 113.076 29.506 113.148 29.7375 113.22C29.9636 113.291 30.1814 113.369 30.3909 113.451C30.6059 113.534 30.7933 113.639 30.9532 113.766C31.1186 113.892 31.2482 114.052 31.3419 114.245C31.4412 114.433 31.4908 114.67 31.4908 114.957C31.4908 115.249 31.4329 115.502 31.3171 115.717C31.2013 115.932 31.047 116.112 30.854 116.255C30.6665 116.393 30.4488 116.495 30.2007 116.561C29.9526 116.633 29.6962 116.668 29.4316 116.668C29.2606 116.668 29.0897 116.652 28.9188 116.619C28.7479 116.591 28.5825 116.547 28.4226 116.486C28.2682 116.42 28.1221 116.338 27.9843 116.238C27.8465 116.134 27.7279 116.007 27.6287 115.858L28.2241 115.37C28.3509 115.585 28.5274 115.748 28.7534 115.858C28.9795 115.968 29.2193 116.023 29.4729 116.023C29.6218 116.023 29.7706 116.001 29.9195 115.957C30.0739 115.913 30.2117 115.85 30.333 115.767C30.4543 115.679 30.5535 115.571 30.6307 115.444C30.7079 115.318 30.7465 115.172 30.7465 115.006C30.7465 114.824 30.7162 114.678 30.6555 114.568C30.5949 114.452 30.5011 114.353 30.3743 114.27C30.2475 114.187 30.0876 114.113 29.8947 114.047C29.7017 113.981 29.4757 113.903 29.2165 113.815C29.007 113.749 28.8141 113.675 28.6376 113.592C28.4612 113.504 28.3068 113.399 28.1745 113.278C28.0477 113.151 27.9457 113.002 27.8685 112.831C27.7969 112.655 27.761 112.445 27.761 112.203C27.761 111.921 27.8162 111.676 27.9264 111.467C28.0367 111.257 28.1855 111.083 28.373 110.946C28.5605 110.802 28.7727 110.695 29.0098 110.623C29.2469 110.551 29.495 110.516 29.7541 110.516C30.0849 110.516 30.3854 110.568 30.6555 110.673C30.9312 110.772 31.1765 110.948 31.3915 111.202L30.8209 111.698ZM34.2006 110.664H35.9373C36.2074 110.664 36.4638 110.692 36.7064 110.747C36.9545 110.797 37.1722 110.885 37.3597 111.012C37.5527 111.133 37.7043 111.298 37.8145 111.508C37.9303 111.712 37.9882 111.966 37.9882 112.269C37.9882 112.589 37.9276 112.853 37.8063 113.063C37.685 113.272 37.5279 113.438 37.3349 113.559C37.1474 113.68 36.9407 113.766 36.7146 113.815C36.4886 113.865 36.2736 113.89 36.0696 113.89H34.8952V116.52H34.2006V110.664ZM34.8952 113.245H36.0696C36.4169 113.245 36.6981 113.167 36.9131 113.013C37.1337 112.853 37.2439 112.608 37.2439 112.277C37.2439 111.946 37.1337 111.704 36.9131 111.549C36.6981 111.389 36.4169 111.309 36.0696 111.309H34.8952V113.245ZM43.3867 116.668C42.9401 116.668 42.5293 116.591 42.1544 116.437C41.785 116.282 41.4625 116.07 41.1868 115.8C40.9167 115.524 40.7044 115.199 40.55 114.824C40.4012 114.444 40.3268 114.033 40.3268 113.592C40.3268 113.151 40.4012 112.743 40.55 112.368C40.7044 111.988 40.9167 111.662 41.1868 111.392C41.4625 111.116 41.785 110.901 42.1544 110.747C42.5293 110.593 42.9401 110.516 43.3867 110.516C43.8332 110.516 44.2412 110.593 44.6106 110.747C44.9855 110.901 45.308 111.116 45.5782 111.392C45.8539 111.662 46.0661 111.988 46.215 112.368C46.3694 112.743 46.4465 113.151 46.4465 113.592C46.4465 114.033 46.3694 114.444 46.215 114.824C46.0661 115.199 45.8539 115.524 45.5782 115.8C45.308 116.07 44.9855 116.282 44.6106 116.437C44.2412 116.591 43.8332 116.668 43.3867 116.668ZM43.3867 116.023C43.7285 116.023 44.04 115.96 44.3212 115.833C44.6079 115.706 44.8532 115.533 45.0572 115.312C45.2612 115.092 45.4183 114.835 45.5286 114.543C45.6444 114.245 45.7022 113.928 45.7022 113.592C45.7022 113.256 45.6444 112.941 45.5286 112.649C45.4183 112.351 45.2612 112.092 45.0572 111.872C44.8532 111.651 44.6079 111.478 44.3212 111.351C44.04 111.224 43.7285 111.161 43.3867 111.161C43.0448 111.161 42.7306 111.224 42.4439 111.351C42.1627 111.478 41.9201 111.651 41.7161 111.872C41.5121 112.092 41.3522 112.351 41.2365 112.649C41.1262 112.941 41.0711 113.256 41.0711 113.592C41.0711 113.928 41.1262 114.245 41.2365 114.543C41.3522 114.835 41.5121 115.092 41.7161 115.312C41.9201 115.533 42.1627 115.706 42.4439 115.833C42.7306 115.96 43.0448 116.023 43.3867 116.023ZM49.1259 110.664H50.0025L53.3932 115.527H53.4098V110.664H54.1044V116.52H53.2278L49.8371 111.657H49.8206V116.52H49.1259V110.664ZM59.9043 111.698C59.7886 111.511 59.6342 111.376 59.4412 111.293C59.2483 111.205 59.047 111.161 58.8375 111.161C58.6831 111.161 58.5315 111.18 58.3827 111.218C58.2338 111.257 58.0987 111.315 57.9774 111.392C57.8617 111.469 57.7679 111.571 57.6963 111.698C57.6246 111.825 57.5887 111.974 57.5887 112.145C57.5887 112.277 57.608 112.396 57.6466 112.5C57.6907 112.6 57.7597 112.691 57.8534 112.773C57.9471 112.856 58.0739 112.933 58.2338 113.005C58.3937 113.076 58.5894 113.148 58.821 113.22C59.047 113.291 59.2648 113.369 59.4743 113.451C59.6893 113.534 59.8768 113.639 60.0367 113.766C60.2021 113.892 60.3316 114.052 60.4254 114.245C60.5246 114.433 60.5742 114.67 60.5742 114.957C60.5742 115.249 60.5163 115.502 60.4005 115.717C60.2848 115.932 60.1304 116.112 59.9374 116.255C59.75 116.393 59.5322 116.495 59.2841 116.561C59.036 116.633 58.7796 116.668 58.515 116.668C58.3441 116.668 58.1732 116.652 58.0022 116.619C57.8313 116.591 57.6659 116.547 57.506 116.486C57.3517 116.42 57.2056 116.338 57.0677 116.238C56.9299 116.134 56.8114 116.007 56.7121 115.858L57.3076 115.37C57.4344 115.585 57.6108 115.748 57.8368 115.858C58.0629 115.968 58.3027 116.023 58.5563 116.023C58.7052 116.023 58.8541 116.001 59.0029 115.957C59.1573 115.913 59.2951 115.85 59.4164 115.767C59.5377 115.679 59.6369 115.571 59.7141 115.444C59.7913 115.318 59.8299 115.172 59.8299 115.006C59.8299 114.824 59.7996 114.678 59.7389 114.568C59.6783 114.452 59.5846 114.353 59.4578 114.27C59.331 114.187 59.1711 114.113 58.9781 114.047C58.7851 113.981 58.5591 113.903 58.3 113.815C58.0905 113.749 57.8975 113.675 57.7211 113.592C57.5446 113.504 57.3903 113.399 57.2579 113.278C57.1311 113.151 57.0291 113.002 56.952 112.831C56.8803 112.655 56.8444 112.445 56.8444 112.203C56.8444 111.921 56.8996 111.676 57.0098 111.467C57.1201 111.257 57.269 111.083 57.4564 110.946C57.6439 110.802 57.8561 110.695 58.0932 110.623C58.3303 110.551 58.5784 110.516 58.8375 110.516C59.1683 110.516 59.4688 110.568 59.7389 110.673C60.0146 110.772 60.26 110.948 60.475 111.202L59.9043 111.698ZM63.284 110.664H63.9787V116.52H63.284V110.664ZM66.9953 110.664H68.7816C69.0242 110.664 69.2613 110.689 69.4928 110.739C69.7244 110.788 69.9311 110.871 70.1131 110.987C70.295 111.097 70.4411 111.243 70.5514 111.425C70.6672 111.607 70.7251 111.833 70.7251 112.103C70.7251 112.445 70.6313 112.729 70.4439 112.955C70.2619 113.176 70.0138 113.333 69.6996 113.427V113.443C69.887 113.46 70.0607 113.509 70.2206 113.592C70.386 113.669 70.5266 113.771 70.6424 113.898C70.7636 114.025 70.8574 114.174 70.9235 114.345C70.9897 114.51 71.0228 114.689 71.0228 114.882C71.0228 115.207 70.9539 115.475 70.816 115.684C70.6837 115.894 70.5073 116.062 70.2867 116.189C70.0717 116.31 69.8264 116.395 69.5507 116.445C69.2806 116.495 69.0104 116.52 68.7403 116.52H66.9953V110.664ZM67.69 113.145H68.6493C68.8147 113.145 68.9746 113.134 69.1289 113.112C69.2888 113.09 69.4322 113.046 69.559 112.98C69.6858 112.908 69.7878 112.812 69.865 112.691C69.9422 112.564 69.9808 112.398 69.9808 112.194C69.9808 112.012 69.9449 111.866 69.8732 111.756C69.8016 111.64 69.7051 111.549 69.5838 111.483C69.468 111.417 69.3329 111.373 69.1786 111.351C69.0297 111.323 68.8781 111.309 68.7237 111.309H67.69V113.145ZM67.69 115.874H68.8643C69.0352 115.874 69.2034 115.858 69.3688 115.825C69.5397 115.786 69.6913 115.728 69.8236 115.651C69.9615 115.568 70.0717 115.464 70.1544 115.337C70.2371 115.205 70.2785 115.045 70.2785 114.857C70.2785 114.653 70.2371 114.482 70.1544 114.345C70.0772 114.207 69.9725 114.096 69.8402 114.014C69.7134 113.931 69.5645 113.873 69.3936 113.84C69.2282 113.807 69.0573 113.79 68.8808 113.79H67.69V115.874ZM73.7674 110.664H74.4621V116.52H73.7674V110.664ZM77.4787 110.664H78.1734V115.874H80.8529V116.52H77.4787V110.664ZM83.1767 110.664H83.8714V116.52H83.1767V110.664ZM90.8163 111.309H88.8811V116.52H88.1864V111.309H86.2512V110.664H90.8163V111.309ZM94.5809 113.997L92.3977 110.664H93.2826L94.9283 113.311L96.6236 110.664H97.4589L95.2756 113.997V116.52H94.5809V113.997Z" fill="black" fill-opacity="0.6"/>
<line x1="134.973" y1="112.693" x2="194.517" y2="112.693" stroke="#F8743C" stroke-opacity="0.6" stroke-width="1.654"/>
<path d="M14.9582 125.973H15.6529V131.183H18.3324V131.828H14.9582V125.973ZM20.6563 125.973H21.3509V131.828H20.6563V125.973ZM24.3675 125.973H25.2442L28.6349 130.836H28.6514V125.973H29.3461V131.828H28.4695L25.0788 126.965H25.0622V131.828H24.3675V125.973ZM32.3673 125.973H33.062V128.504H33.1612L35.8241 125.973H36.8248L33.9303 128.644L36.9654 131.828H35.9482L33.1612 128.851H33.062V131.828H32.3673V125.973Z" fill="black" fill-opacity="0.6"/>
<line x1="134.973" y1="128.001" x2="194.517" y2="128.001" stroke="#CCCCCC" stroke-width="1.654" stroke-dasharray="3.31 3.31"/>
<path d="M17.7369 142.315C17.6212 142.128 17.4668 141.993 17.2738 141.91C17.0809 141.822 16.8796 141.778 16.6701 141.778C16.5157 141.778 16.3641 141.797 16.2153 141.836C16.0664 141.874 15.9313 141.932 15.81 142.009C15.6943 142.087 15.6005 142.189 15.5289 142.315C15.4572 142.442 15.4213 142.591 15.4213 142.762C15.4213 142.894 15.4406 143.013 15.4792 143.118C15.5233 143.217 15.5923 143.308 15.686 143.39C15.7797 143.473 15.9065 143.55 16.0664 143.622C16.2263 143.694 16.422 143.765 16.6536 143.837C16.8796 143.909 17.0974 143.986 17.3069 144.069C17.5219 144.151 17.7094 144.256 17.8693 144.383C18.0347 144.51 18.1642 144.67 18.258 144.862C18.3572 145.05 18.4068 145.287 18.4068 145.574C18.4068 145.866 18.3489 146.12 18.2331 146.335C18.1174 146.55 17.963 146.729 17.77 146.872C17.5826 147.01 17.3648 147.112 17.1167 147.178C16.8686 147.25 16.6122 147.286 16.3476 147.286C16.1767 147.286 16.0058 147.269 15.8348 147.236C15.6639 147.208 15.4985 147.164 15.3386 147.104C15.1843 147.037 15.0382 146.955 14.9003 146.856C14.7625 146.751 14.644 146.624 14.5447 146.475L15.1402 145.987C15.267 146.202 15.4434 146.365 15.6694 146.475C15.8955 146.585 16.1353 146.641 16.3889 146.641C16.5378 146.641 16.6867 146.618 16.8355 146.574C16.9899 146.53 17.1277 146.467 17.249 146.384C17.3703 146.296 17.4695 146.188 17.5467 146.062C17.6239 145.935 17.6625 145.789 17.6625 145.623C17.6625 145.441 17.6322 145.295 17.5715 145.185C17.5109 145.069 17.4172 144.97 17.2904 144.887C17.1636 144.805 17.0037 144.73 16.8107 144.664C16.6177 144.598 16.3917 144.521 16.1326 144.432C15.9231 144.366 15.7301 144.292 15.5537 144.209C15.3772 144.121 15.2229 144.016 15.0905 143.895C14.9637 143.768 14.8617 143.619 14.7846 143.448C14.7129 143.272 14.677 143.062 14.677 142.82C14.677 142.539 14.7322 142.293 14.8424 142.084C14.9527 141.874 15.1016 141.701 15.289 141.563C15.4765 141.419 15.6887 141.312 15.9258 141.24C16.1629 141.169 16.411 141.133 16.6701 141.133C17.0009 141.133 17.3014 141.185 17.5715 141.29C17.8472 141.389 18.0926 141.566 18.3076 141.819L17.7369 142.315ZM21.1166 141.282H24.7967V141.927H21.8113V143.763H24.5983V144.408H21.8113V146.492H24.9456V147.137H21.1166V141.282ZM26.7797 141.282H27.5653L29.3682 146.095H29.3847L31.2455 141.282H31.9815L29.6907 147.137H29.0208L26.7797 141.282ZM34.2006 141.282H37.8807V141.927H34.8952V143.763H37.6822V144.408H34.8952V146.492H38.0296V147.137H34.2006V141.282ZM40.6658 141.282H42.1627C42.4439 141.282 42.7223 141.298 42.998 141.331C43.2791 141.364 43.53 141.436 43.7505 141.546C43.9711 141.656 44.1502 141.819 44.2881 142.034C44.4259 142.244 44.4948 142.53 44.4948 142.894C44.4948 143.324 44.3653 143.672 44.1061 143.936C43.847 144.201 43.4886 144.369 43.031 144.441L44.6933 147.137H43.8415L42.2537 144.507H41.3605V147.137H40.6658V141.282ZM41.3605 143.862H41.9808C42.1737 143.862 42.3722 143.856 42.5762 143.845C42.7857 143.834 42.9759 143.798 43.1468 143.738C43.3232 143.677 43.4666 143.583 43.5769 143.457C43.6926 143.324 43.7505 143.137 43.7505 142.894C43.7505 142.685 43.7092 142.517 43.6265 142.39C43.5438 142.263 43.4335 142.166 43.2957 142.1C43.1634 142.029 43.0117 141.982 42.8408 141.96C42.6754 141.938 42.5073 141.927 42.3364 141.927H41.3605V143.862ZM47.2845 141.282H50.9647V141.927H47.9792V143.763H50.7662V144.408H47.9792V146.492H51.1135V147.137H47.2845V141.282ZM53.6423 141.282H55.8917C56.0847 141.282 56.2887 141.304 56.5037 141.348C56.7187 141.392 56.931 141.464 57.1405 141.563C57.3555 141.656 57.5595 141.781 57.7525 141.935C57.9509 142.089 58.1246 142.277 58.2735 142.497C58.4223 142.712 58.5409 142.963 58.6291 143.25C58.7173 143.531 58.7614 143.851 58.7614 144.209C58.7614 144.568 58.7173 144.89 58.6291 145.177C58.5409 145.458 58.4223 145.709 58.2735 145.929C58.1246 146.144 57.9509 146.329 57.7525 146.483C57.5595 146.638 57.3555 146.765 57.1405 146.864C56.931 146.958 56.7187 147.026 56.5037 147.071C56.2887 147.115 56.0847 147.137 55.8917 147.137H53.6423V141.282ZM54.337 146.492H55.6602C55.9965 146.492 56.308 146.448 56.5947 146.359C56.8814 146.271 57.1295 146.136 57.339 145.954C57.5485 145.767 57.7139 145.53 57.8352 145.243C57.9565 144.956 58.0171 144.612 58.0171 144.209C58.0171 143.807 57.9565 143.462 57.8352 143.175C57.7139 142.889 57.5485 142.654 57.339 142.472C57.1295 142.285 56.8814 142.147 56.5947 142.059C56.308 141.971 55.9965 141.927 55.6602 141.927H54.337V146.492ZM65.3074 141.282H66.002V146.492H68.6815V147.137H65.3074V141.282ZM71.0054 141.282H71.7001V147.137H71.0054V141.282ZM74.7167 141.282H75.5933L78.984 146.144H79.0005V141.282H79.6952V147.137H78.8186L75.4279 142.274H75.4114V147.137H74.7167V141.282ZM82.7164 141.282H83.4111V143.812H83.5103L86.1733 141.282H87.1739L84.2794 143.953L87.3145 147.137H86.2973L83.5103 144.16H83.4111V147.137H82.7164V141.282Z" fill="black" fill-opacity="0.6"/>
<line x1="134.973" y1="143.31" x2="194.517" y2="143.31" stroke="#F2F2F2" stroke-width="1.654"/>
</g>
<defs>
<filter id="filter0_d_390_9904" x="80.8485" y="-40.062" width="168.471" height="168.471" filterUnits="userSpaceOnUse" color-interpolation-filters="sRGB">
<feFlood flood-opacity="0" result="BackgroundImageFix"/>
<feColorMatrix in="SourceAlpha" type="matrix" values="0 0 0 0 0 0 0 0 0 0 0 0 0 0 0 0 0 0 127 0" result="hardAlpha"/>
<feOffset dy="1.654"/>
<feGaussianBlur stdDeviation="23.983"/>
<feComposite in2="hardAlpha" operator="out"/>
<feColorMatrix type="matrix" values="0 0 0 0 0 0 0 0 0 0 0 0 0 0 0 0 0 0 0.05 0"/>
<feBlend mode="normal" in2="BackgroundImageFix" result="effect1_dropShadow_390_9904"/>
<feBlend mode="normal" in="SourceGraphic" in2="effect1_dropShadow_390_9904" result="shape"/>
</filter>
<clipPath id="clip0_390_9904">
<rect width="206.75" height="163.366" fill="white" transform="translate(0.998047)"/>
</clipPath>
</defs>
</svg>
