<svg width="208" height="133" viewBox="0 0 208 133" fill="none" xmlns="http://www.w3.org/2000/svg">
<g clip-path="url(#clip0_390_9862)">
<rect width="206.75" height="132.75" transform="translate(0.998047)" fill="white"/>
<g filter="url(#filter0_d_390_9862)">
<rect x="128.814" y="22.5234" width="58.5715" height="58.5715" rx="29.2857" transform="rotate(-16.132 128.814 22.5234)" fill="white" shape-rendering="crispEdges"/>
<path d="M154.217 34.7169C149.778 40.6649 151.001 49.0855 156.949 53.5248C162.897 57.9642 171.317 56.7412 175.757 50.7932C180.196 44.8452 178.973 36.4246 173.025 31.9853" stroke="#F2F2F2" stroke-width="4.962" stroke-linecap="round"/>
<path d="M153.546 49.8087C151.824 47.0165 151.114 43.591 151.809 40.1205C153.265 32.8428 160.345 28.1234 167.623 29.5796C173.603 30.7762 177.856 35.7704 178.374 41.5513" stroke="#CBCBCB" stroke-width="4.962" stroke-linecap="round"/>
<path d="M185.551 37.4212C182.736 26.1196 171.292 19.2398 159.99 22.0547C148.689 24.8696 141.809 36.3132 144.624 47.6148C147.439 58.9164 158.882 65.7962 170.184 62.9813" stroke="#F2F2F2" stroke-width="4.962" stroke-linecap="round"/>
<path d="M171.045 62.7471C182.218 59.4567 188.607 47.7322 185.317 36.5598C182.027 25.3875 170.302 18.9979 159.13 22.2883C147.957 25.5787 141.568 37.3031 144.858 48.4755" stroke="#F2F2F2" stroke-width="4.962" stroke-linecap="round"/>
<path d="M186.002 39.7727C187.255 49.2606 181.888 58.7091 172.55 62.2419C163.505 65.6641 153.578 62.4594 148.111 55.0368" stroke="#959595" stroke-width="4.962" stroke-linecap="round"/>
<path d="M169.306 30.0254C170.647 30.4804 171.869 31.1264 172.952 31.9226" stroke="#959595" stroke-width="4.962" stroke-linecap="round"/>
<path d="M154.215 34.7169C149.776 40.6649 150.999 49.0855 156.947 53.5248C162.895 57.9642 171.315 56.7412 175.755 50.7932C180.194 44.8452 178.971 36.4246 173.023 31.9853" stroke="#F2F2F2" stroke-width="4.962" stroke-linecap="round"/>
<path d="M176.689 49.3566C180.336 42.8926 178.053 34.6957 171.589 31.0484C165.125 27.4011 156.928 29.6845 153.28 36.1485C151.309 39.6417 151.07 43.6408 152.287 47.1546" stroke="#CACACA" stroke-width="4.962" stroke-linecap="round"/>
<path d="M153.544 49.8087C151.822 47.0165 151.112 43.591 151.807 40.1205C153.263 32.8428 160.343 28.1234 167.621 29.5796C173.601 30.7762 177.854 35.7704 178.372 41.5513" stroke="#CBCBCB" stroke-width="4.962" stroke-linecap="round"/>
<path d="M151.809 40.1211C153.265 32.8433 160.345 28.124 167.623 29.5801C171.337 30.3233 174.385 32.5314 176.286 35.483" stroke="#959595" stroke-width="4.962" stroke-linecap="round"/>
<path d="M185.549 37.4212C182.734 26.1196 171.29 19.2398 159.988 22.0547C148.687 24.8696 141.807 36.3132 144.622 47.6148C147.437 58.9164 158.88 65.7962 170.182 62.9813" stroke="#F2F2F2" stroke-width="4.962" stroke-linecap="round"/>
<path d="M171.043 62.7471C182.216 59.4567 188.605 47.7322 185.315 36.5598C182.025 25.3875 170.3 18.9979 159.128 22.2883C147.955 25.5787 141.566 37.3031 144.856 48.4755" stroke="#F2F2F2" stroke-width="4.962" stroke-linecap="round"/>
<path d="M182.474 54.4506C175.884 64.0544 162.758 66.4984 153.154 59.9093C149.596 57.4682 147.02 54.1297 145.523 50.4055" stroke="#656565" stroke-width="4.962" stroke-linecap="round"/>
<path d="M169.304 30.0254C170.645 30.4804 171.867 31.1264 172.95 31.9226" stroke="#959595" stroke-width="4.962" stroke-linecap="round"/>
</g>
<path d="M19.7146 57.5438H17.7794V62.7539H17.0847V57.5438H15.1496V56.8988H19.7146V57.5438ZM22.0982 56.8988H22.7928V62.7539H22.0982V56.8988ZM25.8095 56.8988H26.8432L28.828 61.4886H28.8445L30.8459 56.8988H31.8548V62.7539H31.1601V57.8415H31.1436L29.043 62.7539H28.6213L26.5207 57.8415H26.5041V62.7539H25.8095V56.8988ZM34.8752 56.8988H38.5554V57.5438H35.5699V59.3797H38.3569V60.0248H35.5699V62.1088H38.7042V62.7539H34.8752V56.8988ZM47.9261 62.9028C47.4795 62.9028 47.0687 62.8256 46.6938 62.6712C46.3244 62.5168 46.0019 62.3046 45.7262 62.0344C45.4561 61.7588 45.2438 61.4335 45.0895 61.0586C44.9406 60.6781 44.8662 60.2674 44.8662 59.8263C44.8662 59.3853 44.9406 58.9773 45.0895 58.6024C45.2438 58.2219 45.4561 57.8967 45.7262 57.6265C46.0019 57.3508 46.3244 57.1358 46.6938 56.9815C47.0687 56.8271 47.4795 56.7499 47.9261 56.7499C48.3726 56.7499 48.7806 56.8271 49.15 56.9815C49.5249 57.1358 49.8475 57.3508 50.1176 57.6265C50.3933 57.8967 50.6055 58.2219 50.7544 58.6024C50.9088 58.9773 50.986 59.3853 50.986 59.8263C50.986 60.2674 50.9088 60.6781 50.7544 61.0586C50.6055 61.4335 50.3933 61.7588 50.1176 62.0344C49.8475 62.3046 49.5249 62.5168 49.15 62.6712C48.7806 62.8256 48.3726 62.9028 47.9261 62.9028ZM47.9261 62.2577C48.2679 62.2577 48.5794 62.1943 48.8606 62.0675C49.1473 61.9407 49.3926 61.767 49.5966 61.5465C49.8006 61.326 49.9577 61.0696 50.068 60.7774C50.1838 60.4797 50.2417 60.1626 50.2417 59.8263C50.2417 59.49 50.1838 59.1758 50.068 58.8835C49.9577 58.5858 49.8006 58.3267 49.5966 58.1062C49.3926 57.8856 49.1473 57.712 48.8606 57.5852C48.5794 57.4584 48.2679 57.395 47.9261 57.395C47.5842 57.395 47.27 57.4584 46.9833 57.5852C46.7021 57.712 46.4595 57.8856 46.2555 58.1062C46.0515 58.3267 45.8916 58.5858 45.7759 58.8835C45.6656 59.1758 45.6105 59.49 45.6105 59.8263C45.6105 60.1626 45.6656 60.4797 45.7759 60.7774C45.8916 61.0696 46.0515 61.326 46.2555 61.5465C46.4595 61.767 46.7021 61.9407 46.9833 62.0675C47.27 62.1943 47.5842 62.2577 47.9261 62.2577ZM58.0567 60.521C58.0567 60.8408 58.0153 61.144 57.9326 61.4307C57.8554 61.7174 57.7286 61.971 57.5522 62.1915C57.3813 62.4066 57.1552 62.5802 56.8741 62.7126C56.5929 62.8394 56.2511 62.9028 55.8486 62.9028C55.4461 62.9028 55.1043 62.8394 54.8231 62.7126C54.5419 62.5802 54.3131 62.4066 54.1367 62.1915C53.9658 61.971 53.839 61.7174 53.7563 61.4307C53.6791 61.144 53.6405 60.8408 53.6405 60.521V56.8988H54.3352V60.4218C54.3352 60.6588 54.36 60.8876 54.4096 61.1082C54.4592 61.3287 54.5419 61.5244 54.6577 61.6953C54.7735 61.8663 54.9279 62.0041 55.1208 62.1088C55.3138 62.2081 55.5564 62.2577 55.8486 62.2577C56.1408 62.2577 56.3834 62.2081 56.5763 62.1088C56.7693 62.0041 56.9237 61.8663 57.0395 61.6953C57.1552 61.5244 57.2379 61.3287 57.2876 61.1082C57.3372 60.8876 57.362 60.6588 57.362 60.4218V56.8988H58.0567V60.521ZM64.9795 57.5438H63.0443V62.7539H62.3496V57.5438H60.4145V56.8988H64.9795V57.5438ZM70.1418 57.9325C70.026 57.745 69.8716 57.61 69.6787 57.5273C69.4857 57.4391 69.2845 57.395 69.075 57.395C68.9206 57.395 68.769 57.4142 68.6201 57.4528C68.4712 57.4914 68.3362 57.5493 68.2149 57.6265C68.0991 57.7037 68.0054 57.8057 67.9337 57.9325C67.862 58.0593 67.8262 58.2082 67.8262 58.3791C67.8262 58.5114 67.8455 58.6299 67.8841 58.7347C67.9282 58.8339 67.9971 58.9249 68.0908 59.0076C68.1846 59.0903 68.3114 59.1675 68.4712 59.2392C68.6311 59.3108 68.8269 59.3825 69.0584 59.4542C69.2845 59.5259 69.5022 59.603 69.7117 59.6857C69.9268 59.7684 70.1142 59.8732 70.2741 60C70.4395 60.1268 70.5691 60.2867 70.6628 60.4797C70.762 60.6671 70.8117 60.9042 70.8117 61.1909C70.8117 61.4831 70.7538 61.7367 70.638 61.9517C70.5222 62.1667 70.3678 62.3459 70.1749 62.4893C69.9874 62.6271 69.7696 62.7291 69.5215 62.7953C69.2734 62.8669 69.0171 62.9028 68.7524 62.9028C68.5815 62.9028 68.4106 62.8862 68.2397 62.8531C68.0688 62.8256 67.9034 62.7815 67.7435 62.7208C67.5891 62.6547 67.443 62.572 67.3052 62.4727C67.1673 62.368 67.0488 62.2412 66.9496 62.0923L67.545 61.6044C67.6718 61.8194 67.8482 61.982 68.0743 62.0923C68.3003 62.2026 68.5402 62.2577 68.7938 62.2577C68.9426 62.2577 69.0915 62.2357 69.2404 62.1915C69.3947 62.1474 69.5326 62.084 69.6539 62.0013C69.7751 61.9131 69.8744 61.8056 69.9516 61.6788C70.0288 61.552 70.0674 61.4059 70.0674 61.2405C70.0674 61.0586 70.037 60.9125 69.9764 60.8022C69.9157 60.6864 69.822 60.5872 69.6952 60.5045C69.5684 60.4218 69.4085 60.3473 69.2155 60.2812C69.0226 60.215 68.7965 60.1378 68.5374 60.0496C68.3279 59.9835 68.1349 59.909 67.9585 59.8263C67.7821 59.7381 67.6277 59.6334 67.4954 59.5121C67.3686 59.3853 67.2666 59.2364 67.1894 59.0655C67.1177 58.8891 67.0819 58.6796 67.0819 58.437C67.0819 58.1558 67.137 57.9104 67.2473 57.7009C67.3576 57.4914 67.5064 57.3178 67.6939 57.1799C67.8813 57.0366 68.0936 56.9291 68.3307 56.8574C68.5677 56.7857 68.8158 56.7499 69.075 56.7499C69.4058 56.7499 69.7062 56.8023 69.9764 56.907C70.2521 57.0063 70.4974 57.1827 70.7124 57.4363L70.1418 57.9325ZM73.5214 56.8988H74.2161V62.7539H73.5214V56.8988ZM77.1252 56.8988H79.3747C79.5676 56.8988 79.7716 56.9208 79.9866 56.9649C80.2016 57.009 80.4139 57.0807 80.6234 57.1799C80.8384 57.2737 81.0424 57.3977 81.2354 57.5521C81.4339 57.7065 81.6075 57.8939 81.7564 58.1144C81.9053 58.3295 82.0238 58.5803 82.112 58.867C82.2002 59.1482 82.2443 59.468 82.2443 59.8263C82.2443 60.1847 82.2002 60.5072 82.112 60.7939C82.0238 61.0751 81.9053 61.326 81.7564 61.5465C81.6075 61.7615 81.4339 61.9462 81.2354 62.1006C81.0424 62.2549 80.8384 62.3818 80.6234 62.481C80.4139 62.5747 80.2016 62.6436 79.9866 62.6877C79.7716 62.7319 79.5676 62.7539 79.3747 62.7539H77.1252V56.8988ZM77.8199 62.1088H79.1431C79.4794 62.1088 79.7909 62.0647 80.0776 61.9765C80.3643 61.8883 80.6124 61.7532 80.8219 61.5713C81.0314 61.3838 81.1968 61.1468 81.3181 60.8601C81.4394 60.5734 81.5 60.2288 81.5 59.8263C81.5 59.4239 81.4394 59.0793 81.3181 58.7926C81.1968 58.5059 81.0314 58.2716 80.8219 58.0896C80.6124 57.9022 80.3643 57.7643 80.0776 57.6761C79.7909 57.5879 79.4794 57.5438 79.1431 57.5438H77.8199V62.1088ZM84.9256 56.8988H88.6057V57.5438H85.6202V59.3797H88.4072V60.0248H85.6202V62.1088H88.7546V62.7539H84.9256V56.8988ZM95.2556 56.8988H95.9502V59.3797H99.0763V56.8988H99.771V62.7539H99.0763V60.0248H95.9502V62.7539H95.2556V56.8988ZM105.508 62.9028C105.061 62.9028 104.65 62.8256 104.275 62.6712C103.906 62.5168 103.584 62.3046 103.308 62.0344C103.038 61.7588 102.825 61.4335 102.671 61.0586C102.522 60.6781 102.448 60.2674 102.448 59.8263C102.448 59.3853 102.522 58.9773 102.671 58.6024C102.825 58.2219 103.038 57.8967 103.308 57.6265C103.584 57.3508 103.906 57.1358 104.275 56.9815C104.65 56.8271 105.061 56.7499 105.508 56.7499C105.954 56.7499 106.362 56.8271 106.732 56.9815C107.107 57.1358 107.429 57.3508 107.699 57.6265C107.975 57.8967 108.187 58.2219 108.336 58.6024C108.49 58.9773 108.568 59.3853 108.568 59.8263C108.568 60.2674 108.49 60.6781 108.336 61.0586C108.187 61.4335 107.975 61.7588 107.699 62.0344C107.429 62.3046 107.107 62.5168 106.732 62.6712C106.362 62.8256 105.954 62.9028 105.508 62.9028ZM105.508 62.2577C105.85 62.2577 106.161 62.1943 106.442 62.0675C106.729 61.9407 106.974 61.767 107.178 61.5465C107.382 61.326 107.539 61.0696 107.65 60.7774C107.765 60.4797 107.823 60.1626 107.823 59.8263C107.823 59.49 107.765 59.1758 107.65 58.8835C107.539 58.5858 107.382 58.3267 107.178 58.1062C106.974 57.8856 106.729 57.712 106.442 57.5852C106.161 57.4584 105.85 57.395 105.508 57.395C105.166 57.395 104.852 57.4584 104.565 57.5852C104.284 57.712 104.041 57.8856 103.837 58.1062C103.633 58.3267 103.473 58.5858 103.358 58.8835C103.247 59.1758 103.192 59.49 103.192 59.8263C103.192 60.1626 103.247 60.4797 103.358 60.7774C103.473 61.0696 103.633 61.326 103.837 61.5465C104.041 61.767 104.284 61.9407 104.565 62.0675C104.852 62.1943 105.166 62.2577 105.508 62.2577ZM111.247 56.8988H112.281L114.265 61.4886H114.282L116.283 56.8988H117.292V62.7539H116.598V57.8415H116.581L114.481 62.7539H114.059L111.958 57.8415H111.942V62.7539H111.247V56.8988ZM120.313 56.8988H123.993V57.5438H121.007V59.3797H123.794V60.0248H121.007V62.1088H124.142V62.7539H120.313V56.8988Z" fill="black" fill-opacity="0.6"/>
<line x1="130.021" y1="59.3404" x2="153.177" y2="59.3404" stroke="#656565" stroke-width="0.826999"/>
<path d="M19.7146 41.829H17.7794V47.0391H17.0847V41.829H15.1496V41.1839H19.7146V41.829ZM22.0982 41.1839H22.7928V47.0391H22.0982V41.1839ZM25.8095 41.1839H26.8432L28.828 45.7738H28.8445L30.8459 41.1839H31.8548V47.0391H31.1601V42.1267H31.1436L29.043 47.0391H28.6213L26.5207 42.1267H26.5041V47.0391H25.8095V41.1839ZM34.8752 41.1839H38.5554V41.829H35.5699V43.6649H38.3569V44.31H35.5699V46.394H38.7042V47.0391H34.8752V41.1839ZM47.1073 41.1839H47.7607L50.2499 47.0391H49.4395L48.844 45.6001H45.9165L45.3127 47.0391H44.5271L47.1073 41.1839ZM47.4216 42.0771H47.4051L46.1894 44.955H48.5794L47.4216 42.0771ZM55.7603 41.829H53.8251V47.0391H53.1304V41.829H51.1952V41.1839H55.7603V41.829ZM62.0086 41.1839H62.7033V43.6649H65.8293V41.1839H66.524V47.0391H65.8293V44.31H62.7033V47.0391H62.0086V41.1839ZM72.2607 47.1879C71.8141 47.1879 71.4034 47.1107 71.0285 46.9564C70.6591 46.802 70.3366 46.5897 70.0609 46.3196C69.7907 46.0439 69.5785 45.7186 69.4241 45.3437C69.2752 44.9633 69.2008 44.5526 69.2008 44.1115C69.2008 43.6704 69.2752 43.2624 69.4241 42.8875C69.5785 42.5071 69.7907 42.1818 70.0609 41.9117C70.3366 41.636 70.6591 41.421 71.0285 41.2666C71.4034 41.1122 71.8141 41.035 72.2607 41.035C72.7073 41.035 73.1153 41.1122 73.4847 41.2666C73.8596 41.421 74.1821 41.636 74.4523 41.9117C74.7279 42.1818 74.9402 42.5071 75.0891 42.8875C75.2434 43.2624 75.3206 43.6704 75.3206 44.1115C75.3206 44.5526 75.2434 44.9633 75.0891 45.3437C74.9402 45.7186 74.7279 46.0439 74.4523 46.3196C74.1821 46.5897 73.8596 46.802 73.4847 46.9564C73.1153 47.1107 72.7073 47.1879 72.2607 47.1879ZM72.2607 46.5429C72.6025 46.5429 72.914 46.4795 73.1952 46.3527C73.4819 46.2258 73.7273 46.0522 73.9313 45.8316C74.1352 45.6111 74.2924 45.3547 74.4026 45.0625C74.5184 44.7648 74.5763 44.4478 74.5763 44.1115C74.5763 43.7752 74.5184 43.4609 74.4026 43.1687C74.2924 42.871 74.1352 42.6119 73.9313 42.3913C73.7273 42.1708 73.4819 41.9971 73.1952 41.8703C72.914 41.7435 72.6025 41.6801 72.2607 41.6801C71.9189 41.6801 71.6046 41.7435 71.3179 41.8703C71.0368 41.9971 70.7942 42.1708 70.5902 42.3913C70.3862 42.6119 70.2263 42.871 70.1105 43.1687C70.0002 43.4609 69.9451 43.7752 69.9451 44.1115C69.9451 44.4478 70.0002 44.7648 70.1105 45.0625C70.2263 45.3547 70.3862 45.6111 70.5902 45.8316C70.7942 46.0522 71.0368 46.2258 71.3179 46.3527C71.6046 46.4795 71.9189 46.5429 72.2607 46.5429ZM78 41.1839H79.0337L81.0185 45.7738H81.035L83.0364 41.1839H84.0453V47.0391H83.3506V42.1267H83.3341L81.2335 47.0391H80.8118L78.7112 42.1267H78.6946V47.0391H78V41.1839ZM87.0657 41.1839H90.7459V41.829H87.7604V43.6649H90.5474V44.31H87.7604V46.394H90.8947V47.0391H87.0657V41.1839Z" fill="black" fill-opacity="0.6"/>
<line x1="97.0215" y1="43.6256" x2="150.776" y2="43.6256" stroke="#CACACA" stroke-width="0.826999"/>
<path d="M19.7146 26.9462H17.7794V32.1562H17.0847V26.9462H15.1496V26.3011H19.7146V26.9462ZM22.0982 26.3011H22.7928V32.1562H22.0982V26.3011ZM25.8095 26.3011H26.8432L28.828 30.8909H28.8445L30.8459 26.3011H31.8548V32.1562H31.1601V27.2439H31.1436L29.043 32.1562H28.6213L26.5207 27.2439H26.5041V32.1562H25.8095V26.3011ZM34.8752 26.3011H38.5554V26.9462H35.5699V28.7821H38.3569V29.4272H35.5699V31.5112H38.7042V32.1562H34.8752V26.3011ZM47.1073 26.3011H47.7607L50.2499 32.1562H49.4395L48.844 30.7173H45.9165L45.3127 32.1562H44.5271L47.1073 26.3011ZM47.4216 27.1943H47.4051L46.1894 30.0722H48.5794L47.4216 27.1943ZM55.3699 27.3348C55.2541 27.1474 55.0997 27.0123 54.9068 26.9296C54.7138 26.8414 54.5126 26.7973 54.3031 26.7973C54.1487 26.7973 53.9971 26.8166 53.8482 26.8552C53.6994 26.8938 53.5643 26.9517 53.443 27.0289C53.3272 27.106 53.2335 27.208 53.1618 27.3348C53.0901 27.4617 53.0543 27.6105 53.0543 27.7814C53.0543 27.9137 53.0736 28.0323 53.1122 28.137C53.1563 28.2363 53.2252 28.3272 53.3189 28.4099C53.4127 28.4926 53.5395 28.5698 53.6994 28.6415C53.8592 28.7132 54.055 28.7848 54.2865 28.8565C54.5126 28.9282 54.7304 29.0054 54.9399 29.0881C55.1549 29.1708 55.3423 29.2755 55.5022 29.4023C55.6676 29.5291 55.7972 29.689 55.8909 29.882C55.9901 30.0695 56.0398 30.3065 56.0398 30.5932C56.0398 30.8854 55.9819 31.139 55.8661 31.3541C55.7503 31.5691 55.5959 31.7483 55.403 31.8916C55.2155 32.0294 54.9977 32.1314 54.7496 32.1976C54.5016 32.2693 54.2452 32.3051 53.9805 32.3051C53.8096 32.3051 53.6387 32.2886 53.4678 32.2555C53.2969 32.2279 53.1315 32.1838 52.9716 32.1232C52.8172 32.057 52.6711 31.9743 52.5333 31.8751C52.3955 31.7703 52.2769 31.6435 52.1777 31.4947L52.7731 31.0067C52.8999 31.2217 53.0764 31.3844 53.3024 31.4947C53.5284 31.6049 53.7683 31.6601 54.0219 31.6601C54.1708 31.6601 54.3196 31.638 54.4685 31.5939C54.6228 31.5498 54.7607 31.4864 54.882 31.4037C55.0033 31.3155 55.1025 31.208 55.1797 31.0812C55.2569 30.9543 55.2955 30.8082 55.2955 30.6428C55.2955 30.4609 55.2651 30.3148 55.2045 30.2045C55.1439 30.0888 55.0501 29.9895 54.9233 29.9068C54.7965 29.8241 54.6366 29.7497 54.4437 29.6835C54.2507 29.6174 54.0246 29.5402 53.7655 29.452C53.556 29.3858 53.363 29.3114 53.1866 29.2287C53.0102 29.1405 52.8558 29.0357 52.7235 28.9144C52.5967 28.7876 52.4947 28.6387 52.4175 28.4678C52.3458 28.2914 52.31 28.0819 52.31 27.8393C52.31 27.5581 52.3651 27.3128 52.4754 27.1033C52.5857 26.8938 52.7345 26.7201 52.922 26.5823C53.1094 26.4389 53.3217 26.3314 53.5588 26.2597C53.7958 26.1881 54.0439 26.1522 54.3031 26.1522C54.6339 26.1522 54.9343 26.2046 55.2045 26.3094C55.4802 26.4086 55.7255 26.585 55.9405 26.8386L55.3699 27.3348ZM58.7495 26.3011H59.4442V31.5112H62.1237V32.1562H58.7495V26.3011ZM64.4476 26.3011H68.1277V26.9462H65.1423V28.7821H67.9292V29.4272H65.1423V31.5112H68.2766V32.1562H64.4476V26.3011ZM70.9128 26.3011H74.593V26.9462H71.6075V28.7821H74.3945V29.4272H71.6075V31.5112H74.7418V32.1562H70.9128V26.3011ZM77.3781 26.3011H79.1148C79.3849 26.3011 79.6413 26.3287 79.8839 26.3838C80.132 26.4334 80.3498 26.5216 80.5372 26.6484C80.7302 26.7697 80.8818 26.9351 80.9921 27.1446C81.1079 27.3486 81.1657 27.6022 81.1657 27.9055C81.1657 28.2252 81.1051 28.4899 80.9838 28.6994C80.8625 28.9089 80.7054 29.0743 80.5124 29.1956C80.325 29.3169 80.1182 29.4023 79.8922 29.452C79.6661 29.5016 79.4511 29.5264 79.2471 29.5264H78.0728V32.1562H77.3781V26.3011ZM78.0728 28.8813H79.2471C79.5945 28.8813 79.8756 28.8041 80.0907 28.6498C80.3112 28.4899 80.4215 28.2445 80.4215 27.9137C80.4215 27.5829 80.3112 27.3404 80.0907 27.186C79.8756 27.0261 79.5945 26.9462 79.2471 26.9462H78.0728V28.8813Z" fill="black" fill-opacity="0.6"/>
<line x1="87.0215" y1="28.7428" x2="164.759" y2="28.7427" stroke="#959595" stroke-width="0.826999"/>
<rect x="0.998047" y="81.8711" width="206.75" height="0.4135" fill="black" fill-opacity="0.1"/>
<path d="M14.9582 95.3558H16.4551C16.7363 95.3558 17.0147 95.3723 17.2904 95.4054C17.5715 95.4385 17.8224 95.5102 18.0429 95.6204C18.2635 95.7307 18.4427 95.8933 18.5805 96.1084C18.7183 96.3179 18.7872 96.6046 18.7872 96.9684C18.7872 97.3985 18.6577 97.7458 18.3985 98.0105C18.1394 98.2751 17.7811 98.4432 17.3234 98.5149L18.9857 101.211H18.1339L16.5461 98.5811H15.6529V101.211H14.9582V95.3558ZM15.6529 97.936H16.2732C16.4661 97.936 16.6646 97.9305 16.8686 97.9195C17.0781 97.9085 17.2683 97.8726 17.4392 97.812C17.6157 97.7513 17.759 97.6576 17.8693 97.5308C17.985 97.3985 18.0429 97.211 18.0429 96.9684C18.0429 96.7589 18.0016 96.5908 17.9189 96.464C17.8362 96.3372 17.7259 96.2407 17.5881 96.1745C17.4558 96.1028 17.3041 96.056 17.1332 96.0339C16.9678 96.0119 16.7997 96.0008 16.6288 96.0008H15.6529V97.936ZM21.5769 95.3558H25.2571V96.0008H22.2716V97.8368H25.0586V98.4818H22.2716V100.566H25.4059V101.211H21.5769V95.3558ZM30.8209 96.3895C30.7051 96.2021 30.5508 96.067 30.3578 95.9843C30.1648 95.8961 29.9636 95.852 29.7541 95.852C29.5997 95.852 29.4481 95.8713 29.2992 95.9099C29.1504 95.9485 29.0153 96.0064 28.894 96.0835C28.7782 96.1607 28.6845 96.2627 28.6128 96.3895C28.5412 96.5163 28.5053 96.6652 28.5053 96.8361C28.5053 96.9684 28.5246 97.087 28.5632 97.1917C28.6073 97.291 28.6762 97.3819 28.77 97.4646C28.8637 97.5473 28.9905 97.6245 29.1504 97.6962C29.3103 97.7679 29.506 97.8395 29.7375 97.9112C29.9636 97.9829 30.1814 98.0601 30.3909 98.1428C30.6059 98.2255 30.7933 98.3302 30.9532 98.457C31.1186 98.5838 31.2482 98.7437 31.3419 98.9367C31.4412 99.1241 31.4908 99.3612 31.4908 99.6479C31.4908 99.9401 31.4329 100.194 31.3171 100.409C31.2013 100.624 31.047 100.803 30.854 100.946C30.6665 101.084 30.4488 101.186 30.2007 101.252C29.9526 101.324 29.6962 101.36 29.4316 101.36C29.2606 101.36 29.0897 101.343 28.9188 101.31C28.7479 101.283 28.5825 101.239 28.4226 101.178C28.2682 101.112 28.1221 101.029 27.9843 100.93C27.8465 100.825 27.7279 100.698 27.6287 100.549L28.2241 100.061C28.3509 100.276 28.5274 100.439 28.7534 100.549C28.9795 100.66 29.2193 100.715 29.4729 100.715C29.6218 100.715 29.7706 100.693 29.9195 100.649C30.0739 100.604 30.2117 100.541 30.333 100.458C30.4543 100.37 30.5535 100.263 30.6307 100.136C30.7079 100.009 30.7465 99.8629 30.7465 99.6975C30.7465 99.5156 30.7162 99.3695 30.6555 99.2592C30.5949 99.1434 30.5011 99.0442 30.3743 98.9615C30.2475 98.8788 30.0876 98.8044 29.8947 98.7382C29.7017 98.672 29.4757 98.5949 29.2165 98.5066C29.007 98.4405 28.8141 98.3661 28.6376 98.2834C28.4612 98.1951 28.3068 98.0904 28.1745 97.9691C28.0477 97.8423 27.9457 97.6934 27.8685 97.5225C27.7969 97.3461 27.761 97.1366 27.761 96.894C27.761 96.6128 27.8162 96.3675 27.9264 96.158C28.0367 95.9485 28.1855 95.7748 28.373 95.637C28.5605 95.4936 28.7727 95.3861 29.0098 95.3144C29.2469 95.2428 29.495 95.2069 29.7541 95.2069C30.0849 95.2069 30.3854 95.2593 30.6555 95.3641C30.9312 95.4633 31.1765 95.6397 31.3915 95.8933L30.8209 96.3895ZM34.2006 95.3558H35.9373C36.2074 95.3558 36.4638 95.3833 36.7064 95.4385C36.9545 95.4881 37.1722 95.5763 37.3597 95.7031C37.5527 95.8244 37.7043 95.9898 37.8145 96.1993C37.9303 96.4033 37.9882 96.6569 37.9882 96.9602C37.9882 97.2799 37.9276 97.5446 37.8063 97.7541C37.685 97.9636 37.5279 98.129 37.3349 98.2503C37.1474 98.3716 36.9407 98.457 36.7146 98.5066C36.4886 98.5563 36.2736 98.5811 36.0696 98.5811H34.8952V101.211H34.2006V95.3558ZM34.8952 97.936H36.0696C36.4169 97.936 36.6981 97.8588 36.9131 97.7045C37.1337 97.5446 37.2439 97.2992 37.2439 96.9684C37.2439 96.6376 37.1337 96.395 36.9131 96.2407C36.6981 96.0808 36.4169 96.0008 36.0696 96.0008H34.8952V97.936ZM43.3867 101.36C42.9401 101.36 42.5293 101.283 42.1544 101.128C41.785 100.974 41.4625 100.762 41.1868 100.491C40.9167 100.216 40.7044 99.8905 40.55 99.5156C40.4012 99.1352 40.3268 98.7244 40.3268 98.2834C40.3268 97.8423 40.4012 97.4343 40.55 97.0594C40.7044 96.679 40.9167 96.3537 41.1868 96.0835C41.4625 95.8079 41.785 95.5929 42.1544 95.4385C42.5293 95.2841 42.9401 95.2069 43.3867 95.2069C43.8332 95.2069 44.2412 95.2841 44.6106 95.4385C44.9855 95.5929 45.308 95.8079 45.5782 96.0835C45.8539 96.3537 46.0661 96.679 46.215 97.0594C46.3694 97.4343 46.4465 97.8423 46.4465 98.2834C46.4465 98.7244 46.3694 99.1352 46.215 99.5156C46.0661 99.8905 45.8539 100.216 45.5782 100.491C45.308 100.762 44.9855 100.974 44.6106 101.128C44.2412 101.283 43.8332 101.36 43.3867 101.36ZM43.3867 100.715C43.7285 100.715 44.04 100.651 44.3212 100.525C44.6079 100.398 44.8532 100.224 45.0572 100.004C45.2612 99.783 45.4183 99.5266 45.5286 99.2344C45.6444 98.9367 45.7022 98.6197 45.7022 98.2834C45.7022 97.947 45.6444 97.6328 45.5286 97.3406C45.4183 97.0429 45.2612 96.7837 45.0572 96.5632C44.8532 96.3427 44.6079 96.169 44.3212 96.0422C44.04 95.9154 43.7285 95.852 43.3867 95.852C43.0448 95.852 42.7306 95.9154 42.4439 96.0422C42.1627 96.169 41.9201 96.3427 41.7161 96.5632C41.5121 96.7837 41.3522 97.0429 41.2365 97.3406C41.1262 97.6328 41.0711 97.947 41.0711 98.2834C41.0711 98.6197 41.1262 98.9367 41.2365 99.2344C41.3522 99.5266 41.5121 99.783 41.7161 100.004C41.9201 100.224 42.1627 100.398 42.4439 100.525C42.7306 100.651 43.0448 100.715 43.3867 100.715ZM49.1259 95.3558H50.0025L53.3932 100.219H53.4098V95.3558H54.1044V101.211H53.2278L49.8371 96.3482H49.8206V101.211H49.1259V95.3558ZM59.9043 96.3895C59.7886 96.2021 59.6342 96.067 59.4412 95.9843C59.2483 95.8961 59.047 95.852 58.8375 95.852C58.6831 95.852 58.5315 95.8713 58.3827 95.9099C58.2338 95.9485 58.0987 96.0064 57.9774 96.0835C57.8617 96.1607 57.7679 96.2627 57.6963 96.3895C57.6246 96.5163 57.5887 96.6652 57.5887 96.8361C57.5887 96.9684 57.608 97.087 57.6466 97.1917C57.6907 97.291 57.7597 97.3819 57.8534 97.4646C57.9471 97.5473 58.0739 97.6245 58.2338 97.6962C58.3937 97.7679 58.5894 97.8395 58.821 97.9112C59.047 97.9829 59.2648 98.0601 59.4743 98.1428C59.6893 98.2255 59.8768 98.3302 60.0367 98.457C60.2021 98.5838 60.3316 98.7437 60.4254 98.9367C60.5246 99.1241 60.5742 99.3612 60.5742 99.6479C60.5742 99.9401 60.5163 100.194 60.4005 100.409C60.2848 100.624 60.1304 100.803 59.9374 100.946C59.75 101.084 59.5322 101.186 59.2841 101.252C59.036 101.324 58.7796 101.36 58.515 101.36C58.3441 101.36 58.1732 101.343 58.0022 101.31C57.8313 101.283 57.6659 101.239 57.506 101.178C57.3517 101.112 57.2056 101.029 57.0677 100.93C56.9299 100.825 56.8114 100.698 56.7121 100.549L57.3076 100.061C57.4344 100.276 57.6108 100.439 57.8368 100.549C58.0629 100.66 58.3027 100.715 58.5563 100.715C58.7052 100.715 58.8541 100.693 59.0029 100.649C59.1573 100.604 59.2951 100.541 59.4164 100.458C59.5377 100.37 59.6369 100.263 59.7141 100.136C59.7913 100.009 59.8299 99.8629 59.8299 99.6975C59.8299 99.5156 59.7996 99.3695 59.7389 99.2592C59.6783 99.1434 59.5846 99.0442 59.4578 98.9615C59.331 98.8788 59.1711 98.8044 58.9781 98.7382C58.7851 98.672 58.5591 98.5949 58.3 98.5066C58.0905 98.4405 57.8975 98.3661 57.7211 98.2834C57.5446 98.1951 57.3903 98.0904 57.2579 97.9691C57.1311 97.8423 57.0291 97.6934 56.952 97.5225C56.8803 97.3461 56.8444 97.1366 56.8444 96.894C56.8444 96.6128 56.8996 96.3675 57.0098 96.158C57.1201 95.9485 57.269 95.7748 57.4564 95.637C57.6439 95.4936 57.8561 95.3861 58.0932 95.3144C58.3303 95.2428 58.5784 95.2069 58.8375 95.2069C59.1683 95.2069 59.4688 95.2593 59.7389 95.3641C60.0146 95.4633 60.26 95.6397 60.475 95.8933L59.9043 96.3895ZM63.284 95.3558H63.9787V101.211H63.284V95.3558ZM66.9953 95.3558H68.7816C69.0242 95.3558 69.2613 95.3806 69.4928 95.4302C69.7244 95.4798 69.9311 95.5625 70.1131 95.6783C70.295 95.7886 70.4411 95.9347 70.5514 96.1166C70.6672 96.2986 70.7251 96.5246 70.7251 96.7948C70.7251 97.1366 70.6313 97.4205 70.4439 97.6466C70.2619 97.8671 70.0138 98.0242 69.6996 98.118V98.1345C69.887 98.151 70.0607 98.2007 70.2206 98.2834C70.386 98.3605 70.5266 98.4625 70.6424 98.5893C70.7636 98.7162 70.8574 98.865 70.9235 99.0359C70.9897 99.2013 71.0228 99.3805 71.0228 99.5735C71.0228 99.8988 70.9539 100.166 70.816 100.376C70.6837 100.585 70.5073 100.753 70.2867 100.88C70.0717 101.001 69.8264 101.087 69.5507 101.137C69.2806 101.186 69.0104 101.211 68.7403 101.211H66.9953V95.3558ZM67.69 97.8368H68.6493C68.8147 97.8368 68.9746 97.8258 69.1289 97.8037C69.2888 97.7816 69.4322 97.7375 69.559 97.6714C69.6858 97.5997 69.7878 97.5032 69.865 97.3819C69.9422 97.2551 69.9808 97.0897 69.9808 96.8857C69.9808 96.7038 69.9449 96.5577 69.8732 96.4474C69.8016 96.3316 69.7051 96.2407 69.5838 96.1745C69.468 96.1084 69.3329 96.0642 69.1786 96.0422C69.0297 96.0146 68.8781 96.0008 68.7237 96.0008H67.69V97.8368ZM67.69 100.566H68.8643C69.0352 100.566 69.2034 100.549 69.3688 100.516C69.5397 100.478 69.6913 100.42 69.8236 100.343C69.9615 100.26 70.0717 100.155 70.1544 100.028C70.2371 99.896 70.2785 99.7361 70.2785 99.5487C70.2785 99.3447 70.2371 99.1738 70.1544 99.0359C70.0772 98.8981 69.9725 98.7878 69.8402 98.7051C69.7134 98.6224 69.5645 98.5645 69.3936 98.5315C69.2282 98.4984 69.0573 98.4818 68.8808 98.4818H67.69V100.566ZM73.7674 95.3558H74.4621V101.211H73.7674V95.3558ZM77.4787 95.3558H78.1734V100.566H80.8529V101.211H77.4787V95.3558ZM83.1767 95.3558H83.8714V101.211H83.1767V95.3558ZM90.8163 96.0008H88.8811V101.211H88.1864V96.0008H86.2512V95.3558H90.8163V96.0008ZM94.5809 98.6886L92.3977 95.3558H93.2826L94.9283 98.0022L96.6236 95.3558H97.4589L95.2756 98.6886V101.211H94.5809V98.6886Z" fill="black" fill-opacity="0.6"/>
<line x1="134.973" y1="97.3839" x2="194.517" y2="97.3839" stroke="#F8743C" stroke-opacity="0.6" stroke-width="1.654"/>
<path d="M14.9582 110.664H15.6529V115.874H18.3324V116.52H14.9582V110.664ZM20.6563 110.664H21.3509V116.52H20.6563V110.664ZM24.3675 110.664H25.2442L28.6349 115.527H28.6514V110.664H29.3461V116.52H28.4695L25.0788 111.657H25.0622V116.52H24.3675V110.664ZM32.3673 110.664H33.062V113.195H33.1612L35.8241 110.664H36.8248L33.9303 113.336L36.9654 116.52H35.9482L33.1612 113.542H33.062V116.52H32.3673V110.664Z" fill="black" fill-opacity="0.6"/>
<line x1="134.973" y1="112.693" x2="194.517" y2="112.693" stroke="#CCCCCC" stroke-width="1.654" stroke-dasharray="3.31 3.31"/>
</g>
<defs>
<filter id="filter0_d_390_9862" x="80.8485" y="-40.062" width="168.471" height="168.471" filterUnits="userSpaceOnUse" color-interpolation-filters="sRGB">
<feFlood flood-opacity="0" result="BackgroundImageFix"/>
<feColorMatrix in="SourceAlpha" type="matrix" values="0 0 0 0 0 0 0 0 0 0 0 0 0 0 0 0 0 0 127 0" result="hardAlpha"/>
<feOffset dy="1.654"/>
<feGaussianBlur stdDeviation="23.983"/>
<feComposite in2="hardAlpha" operator="out"/>
<feColorMatrix type="matrix" values="0 0 0 0 0 0 0 0 0 0 0 0 0 0 0 0 0 0 0.05 0"/>
<feBlend mode="normal" in2="BackgroundImageFix" result="effect1_dropShadow_390_9862"/>
<feBlend mode="normal" in="SourceGraphic" in2="effect1_dropShadow_390_9862" result="shape"/>
</filter>
<clipPath id="clip0_390_9862">
<rect width="206.75" height="132.75" fill="white" transform="translate(0.998047)"/>
</clipPath>
</defs>
</svg>
