<svg width="207" height="86" viewBox="0 0 207 86" fill="none" xmlns="http://www.w3.org/2000/svg">
<g clip-path="url(#clip0_390_9820)">
<rect width="206.767" height="85.188" fill="white"/>
<g filter="url(#filter0_d_390_9820)">
<rect x="127.826" y="22.5273" width="58.5763" height="58.5764" rx="29.2882" transform="rotate(-16.132 127.826 22.5273)" fill="white" shape-rendering="crispEdges"/>
<path d="M153.23 34.7243C148.791 40.6728 150.014 49.0941 155.962 53.5338C161.911 57.9735 170.332 56.7504 174.772 50.8019C179.211 44.8534 177.988 36.4322 172.04 31.9924" stroke="#F2F2F2" stroke-width="4.96241" stroke-linecap="round"/>
<path d="M152.56 49.8127C150.838 47.0203 150.128 43.5944 150.822 40.1237C152.279 32.8453 159.36 28.1256 166.638 29.5819C172.619 30.7785 176.872 35.7732 177.39 41.5546" stroke="#CBCBCB" stroke-width="4.96241" stroke-linecap="round"/>
<path d="M184.565 37.4304C181.75 26.1279 170.305 19.2475 159.003 22.0626C147.7 24.8777 140.82 36.3223 143.635 47.6248C146.45 58.9274 157.895 65.8077 169.197 62.9926" stroke="#F2F2F2" stroke-width="4.96241" stroke-linecap="round"/>
<path d="M170.058 62.7577C181.231 59.467 187.621 47.7417 184.331 36.5683C181.04 25.395 169.315 19.0049 158.141 22.2956C146.968 25.5863 140.578 37.3117 143.868 48.485" stroke="#F2F2F2" stroke-width="4.96241" stroke-linecap="round"/>
<path d="M185.017 39.7792C186.271 49.2679 180.903 58.7172 171.564 62.2503C162.518 65.6728 152.59 62.4678 147.123 55.0446" stroke="#959595" stroke-width="4.96241" stroke-linecap="round"/>
<path d="M168.32 30.0332C169.661 30.4882 170.883 31.1342 171.966 31.9305" stroke="#959595" stroke-width="4.96241" stroke-linecap="round"/>
<path d="M153.23 34.7243C148.791 40.6728 150.014 49.0941 155.962 53.5338C161.911 57.9735 170.332 56.7504 174.772 50.8019C179.211 44.8534 177.988 36.4322 172.04 31.9924" stroke="#F2F2F2" stroke-width="4.96241" stroke-linecap="round"/>
<path d="M175.705 49.3648C179.352 42.9002 177.069 34.7027 170.604 31.0551C164.14 27.4075 155.942 29.6911 152.295 36.1556C150.323 39.649 150.084 43.6485 151.301 47.1626" stroke="#CACACA" stroke-width="4.96241" stroke-linecap="round"/>
<path d="M152.56 49.8127C150.838 47.0203 150.128 43.5944 150.822 40.1237C152.279 32.8453 159.36 28.1256 166.638 29.5819C172.619 30.7785 176.872 35.7732 177.39 41.5546" stroke="#CBCBCB" stroke-width="4.96241" stroke-linecap="round"/>
<path d="M150.822 40.125C152.279 32.8466 159.359 28.1269 166.638 29.5832C170.352 30.3264 173.401 32.5347 175.301 35.4865" stroke="#959595" stroke-width="4.96241" stroke-linecap="round"/>
<path d="M184.565 37.4304C181.75 26.1279 170.305 19.2475 159.003 22.0626C147.7 24.8777 140.82 36.3223 143.635 47.6248C146.45 58.9274 157.895 65.8077 169.197 62.9926" stroke="#F2F2F2" stroke-width="4.96241" stroke-linecap="round"/>
<path d="M170.058 62.7577C181.231 59.467 187.621 47.7417 184.331 36.5683C181.04 25.395 169.315 19.0049 158.141 22.2956C146.968 25.5863 140.578 37.3117 143.868 48.485" stroke="#F2F2F2" stroke-width="4.96241" stroke-linecap="round"/>
<path d="M181.49 54.457C174.901 64.0616 161.773 66.5057 152.168 59.9161C148.61 57.4748 146.034 54.1361 144.537 50.4116" stroke="#656565" stroke-width="4.96241" stroke-linecap="round"/>
<path d="M168.32 30.0332C169.661 30.4882 170.883 31.1342 171.966 31.9305" stroke="#959595" stroke-width="4.96241" stroke-linecap="round"/>
</g>
<path d="M18.715 57.5512H16.7796V62.7617H16.0849V57.5512H14.1496V56.9061H18.715V57.5512ZM21.0987 56.9061H21.7935V62.7617H21.0987V56.9061ZM24.8103 56.9061H25.8442L27.8291 61.4963H27.8457L29.8472 56.9061H30.8562V62.7617H30.1615V57.8489H30.1449L28.0442 62.7617H27.6224L25.5216 57.8489H25.5051V62.7617H24.8103V56.9061ZM33.8769 56.9061H37.5573V57.5512H34.5716V59.3873H37.3588V60.0324H34.5716V62.1166H37.7062V62.7617H33.8769V56.9061ZM46.9288 62.9106C46.4822 62.9106 46.0714 62.8334 45.6965 62.679C45.327 62.5246 45.0045 62.3123 44.7288 62.0422C44.4586 61.7665 44.2463 61.4412 44.0919 61.0662C43.9431 60.6858 43.8686 60.275 43.8686 59.8339C43.8686 59.3928 43.9431 58.9848 44.0919 58.6098C44.2463 58.2294 44.4586 57.9041 44.7288 57.6339C45.0045 57.3582 45.327 57.1432 45.6965 56.9888C46.0714 56.8344 46.4822 56.7572 46.9288 56.7572C47.3754 56.7572 47.7834 56.8344 48.1528 56.9888C48.5278 57.1432 48.8503 57.3582 49.1205 57.6339C49.3962 57.9041 49.6085 58.2294 49.7574 58.6098C49.9117 58.9848 49.9889 59.3928 49.9889 59.8339C49.9889 60.275 49.9117 60.6858 49.7574 61.0662C49.6085 61.4412 49.3962 61.7665 49.1205 62.0422C48.8503 62.3123 48.5278 62.5246 48.1528 62.679C47.7834 62.8334 47.3754 62.9106 46.9288 62.9106ZM46.9288 62.2655C47.2706 62.2655 47.5822 62.2021 47.8634 62.0753C48.1501 61.9484 48.3954 61.7748 48.5995 61.5542C48.8035 61.3336 48.9606 61.0773 49.0709 60.785C49.1867 60.4873 49.2446 60.1702 49.2446 59.8339C49.2446 59.4976 49.1867 59.1833 49.0709 58.891C48.9606 58.5933 48.8035 58.3341 48.5995 58.1136C48.3954 57.893 48.1501 57.7194 47.8634 57.5925C47.5822 57.4657 47.2706 57.4023 46.9288 57.4023C46.5869 57.4023 46.2726 57.4657 45.9859 57.5925C45.7047 57.7194 45.4621 57.893 45.2581 58.1136C45.0541 58.3341 44.8942 58.5933 44.7784 58.891C44.6681 59.1833 44.613 59.4976 44.613 59.8339C44.613 60.1702 44.6681 60.4873 44.7784 60.785C44.8942 61.0773 45.0541 61.3336 45.2581 61.5542C45.4621 61.7748 45.7047 61.9484 45.9859 62.0753C46.2726 62.2021 46.5869 62.2655 46.9288 62.2655ZM57.0602 60.5286C57.0602 60.8484 57.0189 61.1517 56.9362 61.4384C56.859 61.7251 56.7322 61.9788 56.5557 62.1993C56.3848 62.4144 56.1587 62.588 55.8775 62.7204C55.5963 62.8472 55.2545 62.9106 54.852 62.9106C54.4495 62.9106 54.1076 62.8472 53.8264 62.7204C53.5452 62.588 53.3164 62.4144 53.1399 62.1993C52.969 61.9788 52.8422 61.7251 52.7595 61.4384C52.6823 61.1517 52.6437 60.8484 52.6437 60.5286V56.9061H53.3384V60.4294C53.3384 60.6665 53.3632 60.8953 53.4129 61.1159C53.4625 61.3364 53.5452 61.5321 53.661 61.7031C53.7768 61.874 53.9312 62.0118 54.1241 62.1166C54.3171 62.2159 54.5597 62.2655 54.852 62.2655C55.1442 62.2655 55.3868 62.2159 55.5798 62.1166C55.7728 62.0118 55.9271 61.874 56.0429 61.7031C56.1587 61.5321 56.2414 61.3364 56.2911 61.1159C56.3407 60.8953 56.3655 60.6665 56.3655 60.4294V56.9061H57.0602V60.5286ZM63.9836 57.5512H62.0483V62.7617H61.3536V57.5512H59.4182V56.9061H63.9836V57.5512ZM69.1463 57.9399C69.0305 57.7524 68.8762 57.6174 68.6832 57.5347C68.4902 57.4464 68.2889 57.4023 68.0794 57.4023C67.925 57.4023 67.7734 57.4216 67.6245 57.4602C67.4757 57.4988 67.3406 57.5567 67.2193 57.6339C67.1035 57.7111 67.0097 57.8131 66.9381 57.9399C66.8664 58.0667 66.8305 58.2156 66.8305 58.3865C66.8305 58.5189 66.8498 58.6374 66.8884 58.7422C66.9326 58.8414 67.0015 58.9324 67.0952 59.0151C67.1889 59.0978 67.3158 59.175 67.4757 59.2467C67.6356 59.3184 67.8313 59.39 68.0629 59.4617C68.2889 59.5334 68.5067 59.6106 68.7163 59.6933C68.9313 59.776 69.1188 59.8808 69.2787 60.0076C69.4441 60.1344 69.5737 60.2943 69.6674 60.4873C69.7666 60.6748 69.8163 60.9118 69.8163 61.1986C69.8163 61.4908 69.7584 61.7444 69.6426 61.9595C69.5268 62.1745 69.3724 62.3537 69.1794 62.4971C68.992 62.6349 68.7742 62.7369 68.526 62.8031C68.2779 62.8748 68.0215 62.9106 67.7569 62.9106C67.5859 62.9106 67.415 62.894 67.2441 62.861C67.0732 62.8334 66.9077 62.7893 66.7478 62.7286C66.5935 62.6625 66.4473 62.5798 66.3095 62.4805C66.1717 62.3758 66.0531 62.2489 65.9539 62.1001L66.5493 61.6121C66.6762 61.8271 66.8526 61.9898 67.0787 62.1001C67.3047 62.2103 67.5446 62.2655 67.7982 62.2655C67.9471 62.2655 68.096 62.2434 68.2448 62.1993C68.3992 62.1552 68.5371 62.0918 68.6584 62.0091C68.7797 61.9209 68.8789 61.8133 68.9561 61.6865C69.0333 61.5597 69.0719 61.4136 69.0719 61.2482C69.0719 61.0662 69.0416 60.9201 68.9809 60.8098C68.9203 60.694 68.8265 60.5948 68.6997 60.5121C68.5729 60.4294 68.413 60.355 68.22 60.2888C68.027 60.2226 67.801 60.1454 67.5418 60.0572C67.3323 59.991 67.1393 59.9166 66.9629 59.8339C66.7864 59.7457 66.6321 59.6409 66.4997 59.5196C66.3729 59.3928 66.2709 59.2439 66.1937 59.073C66.122 58.8966 66.0862 58.687 66.0862 58.4444C66.0862 58.1632 66.1413 57.9179 66.2516 57.7083C66.3619 57.4988 66.5108 57.3251 66.6982 57.1873C66.8857 57.0439 67.098 56.9364 67.3351 56.8647C67.5722 56.793 67.8203 56.7572 68.0794 56.7572C68.4102 56.7572 68.7108 56.8096 68.9809 56.9144C69.2566 57.0136 69.502 57.19 69.717 57.4437L69.1463 57.9399ZM72.5263 56.9061H73.221V62.7617H72.5263V56.9061ZM76.1303 56.9061H78.38C78.573 56.9061 78.777 56.9281 78.992 56.9722C79.207 57.0164 79.4193 57.088 79.6288 57.1873C79.8439 57.281 80.0479 57.4051 80.2409 57.5595C80.4394 57.7138 80.6131 57.9013 80.7619 58.1219C80.9108 58.3369 81.0293 58.5878 81.1176 58.8745C81.2058 59.1557 81.2499 59.4755 81.2499 59.8339C81.2499 60.1923 81.2058 60.5149 81.1176 60.8016C81.0293 61.0828 80.9108 61.3336 80.7619 61.5542C80.6131 61.7692 80.4394 61.9539 80.2409 62.1083C80.0479 62.2627 79.8439 62.3895 79.6288 62.4888C79.4193 62.5825 79.207 62.6514 78.992 62.6956C78.777 62.7397 78.573 62.7617 78.38 62.7617H76.1303V56.9061ZM76.8251 62.1166H78.1484C78.4847 62.1166 78.7963 62.0725 79.083 61.9843C79.3697 61.8961 79.6178 61.761 79.8273 61.579C80.0369 61.3915 80.2023 61.1545 80.3236 60.8677C80.4449 60.581 80.5055 60.2364 80.5055 59.8339C80.5055 59.4314 80.4449 59.0868 80.3236 58.8001C80.2023 58.5133 80.0369 58.279 79.8273 58.0971C79.6178 57.9096 79.3697 57.7717 79.083 57.6835C78.7963 57.5953 78.4847 57.5512 78.1484 57.5512H76.8251V62.1166ZM83.9313 56.9061H87.6118V57.5512H84.6261V59.3873H87.4133V60.0324H84.6261V62.1166H87.7607V62.7617H83.9313V56.9061ZM94.2622 56.9061H94.9569V59.3873H98.0832V56.9061H98.778V62.7617H98.0832V60.0324H94.9569V62.7617H94.2622V56.9061ZM104.515 62.9106C104.069 62.9106 103.658 62.8334 103.283 62.679C102.913 62.5246 102.591 62.3123 102.315 62.0422C102.045 61.7665 101.833 61.4412 101.678 61.0662C101.529 60.6858 101.455 60.275 101.455 59.8339C101.455 59.3928 101.529 58.9848 101.678 58.6098C101.833 58.2294 102.045 57.9041 102.315 57.6339C102.591 57.3582 102.913 57.1432 103.283 56.9888C103.658 56.8344 104.069 56.7572 104.515 56.7572C104.962 56.7572 105.37 56.8344 105.739 56.9888C106.114 57.1432 106.437 57.3582 106.707 57.6339C106.983 57.9041 107.195 58.2294 107.344 58.6098C107.498 58.9848 107.575 59.3928 107.575 59.8339C107.575 60.275 107.498 60.6858 107.344 61.0662C107.195 61.4412 106.983 61.7665 106.707 62.0422C106.437 62.3123 106.114 62.5246 105.739 62.679C105.37 62.8334 104.962 62.9106 104.515 62.9106ZM104.515 62.2655C104.857 62.2655 105.169 62.2021 105.45 62.0753C105.736 61.9484 105.982 61.7748 106.186 61.5542C106.39 61.3336 106.547 61.0773 106.657 60.785C106.773 60.4873 106.831 60.1702 106.831 59.8339C106.831 59.4976 106.773 59.1833 106.657 58.891C106.547 58.5933 106.39 58.3341 106.186 58.1136C105.982 57.893 105.736 57.7194 105.45 57.5925C105.169 57.4657 104.857 57.4023 104.515 57.4023C104.173 57.4023 103.859 57.4657 103.572 57.5925C103.291 57.7194 103.049 57.893 102.845 58.1136C102.64 58.3341 102.481 58.5933 102.365 58.891C102.255 59.1833 102.199 59.4976 102.199 59.8339C102.199 60.1702 102.255 60.4873 102.365 60.785C102.481 61.0773 102.64 61.3336 102.845 61.5542C103.049 61.7748 103.291 61.9484 103.572 62.0753C103.859 62.2021 104.173 62.2655 104.515 62.2655ZM110.255 56.9061H111.289L113.274 61.4963H113.29L115.292 56.9061H116.301V62.7617H115.606V57.8489H115.589L113.489 62.7617H113.067L110.966 57.8489H110.95V62.7617H110.255V56.9061ZM119.321 56.9061H123.002V57.5512H120.016V59.3873H122.803V60.0324H120.016V62.1166H123.151V62.7617H119.321V56.9061Z" fill="black" fill-opacity="0.6"/>
<line x1="129.021" y1="59.3482" x2="152.179" y2="59.3482" stroke="#656565" stroke-width="0.827068"/>
<path d="M18.715 41.8363H16.7796V47.0469H16.0849V41.8363H14.1496V41.1912H18.715V41.8363ZM21.0987 41.1912H21.7935V47.0469H21.0987V41.1912ZM24.8103 41.1912H25.8442L27.8291 45.7815H27.8457L29.8472 41.1912H30.8562V47.0469H30.1615V42.1341H30.1449L28.0442 47.0469H27.6224L25.5216 42.1341H25.5051V47.0469H24.8103V41.1912ZM33.8769 41.1912H37.5573V41.8363H34.5716V43.6724H37.3588V44.3176H34.5716V46.4018H37.7062V47.0469H33.8769V41.1912ZM46.11 41.1912H46.7634L49.2528 47.0469H48.4423L47.8468 45.6078H44.919L44.3152 47.0469H43.5295L46.11 41.1912ZM46.4243 42.0845H46.4077L45.1919 44.9627H47.5822L46.4243 42.0845ZM54.7636 41.8363H52.8283V47.0469H52.1336V41.8363H50.1982V41.1912H54.7636V41.8363ZM61.0125 41.1912H61.7072V43.6724H64.8335V41.1912H65.5282V47.0469H64.8335V44.3176H61.7072V47.0469H61.0125V41.1912ZM71.2654 47.1957C70.8188 47.1957 70.408 47.1186 70.0331 46.9642C69.6637 46.8098 69.3411 46.5975 69.0654 46.3273C68.7953 46.0516 68.583 45.7263 68.4286 45.3514C68.2797 44.9709 68.2053 44.5602 68.2053 44.1191C68.2053 43.678 68.2797 43.2699 68.4286 42.895C68.583 42.5145 68.7953 42.1892 69.0654 41.9191C69.3411 41.6434 69.6637 41.4283 70.0331 41.2739C70.408 41.1196 70.8188 41.0424 71.2654 41.0424C71.7121 41.0424 72.1201 41.1196 72.4895 41.2739C72.8644 41.4283 73.187 41.6434 73.4572 41.9191C73.7329 42.1892 73.9451 42.5145 74.094 42.895C74.2484 43.2699 74.3256 43.678 74.3256 44.1191C74.3256 44.5602 74.2484 44.9709 74.094 45.3514C73.9451 45.7263 73.7329 46.0516 73.4572 46.3273C73.187 46.5975 72.8644 46.8098 72.4895 46.9642C72.1201 47.1186 71.7121 47.1957 71.2654 47.1957ZM71.2654 46.5506C71.6073 46.5506 71.9188 46.4872 72.2 46.3604C72.4867 46.2336 72.7321 46.0599 72.9361 45.8394C73.1401 45.6188 73.2973 45.3624 73.4075 45.0702C73.5233 44.7724 73.5812 44.4554 73.5812 44.1191C73.5812 43.7827 73.5233 43.4684 73.4075 43.1762C73.2973 42.8785 73.1401 42.6193 72.9361 42.3988C72.7321 42.1782 72.4867 42.0045 72.2 41.8777C71.9188 41.7509 71.6073 41.6875 71.2654 41.6875C70.9236 41.6875 70.6093 41.7509 70.3226 41.8777C70.0414 42.0045 69.7988 42.1782 69.5948 42.3988C69.3908 42.6193 69.2309 42.8785 69.1151 43.1762C69.0048 43.4684 68.9497 43.7827 68.9497 44.1191C68.9497 44.4554 69.0048 44.7724 69.1151 45.0702C69.2309 45.3624 69.3908 45.6188 69.5948 45.8394C69.7988 46.0599 70.0414 46.2336 70.3226 46.3604C70.6093 46.4872 70.9236 46.5506 71.2654 46.5506ZM77.0052 41.1912H78.039L80.024 45.7815H80.0405L82.042 41.1912H83.051V47.0469H82.3563V42.1341H82.3398L80.239 47.0469H79.8172L77.7164 42.1341H77.6999V47.0469H77.0052V41.1912ZM86.0717 41.1912H89.7522V41.8363H86.7664V43.6724H89.5537V44.3176H86.7664V46.4018H89.901V47.0469H86.0717V41.1912Z" fill="black" fill-opacity="0.6"/>
<line x1="96.0215" y1="43.6333" x2="149.781" y2="43.6333" stroke="#CACACA" stroke-width="0.827068"/>
<path d="M18.715 26.9496H16.7796V32.1602H16.0849V26.9496H14.1496V26.3045H18.715V26.9496ZM21.0987 26.3045H21.7935V32.1602H21.0987V26.3045ZM24.8103 26.3045H25.8442L27.8291 30.8947H27.8457L29.8472 26.3045H30.8562V32.1602H30.1615V27.2474H30.1449L28.0442 32.1602H27.6224L25.5216 27.2474H25.5051V32.1602H24.8103V26.3045ZM33.8769 26.3045H37.5573V26.9496H34.5716V28.7857H37.3588V29.4308H34.5716V31.515H37.7062V32.1602H33.8769V26.3045ZM46.11 26.3045H46.7634L49.2528 32.1602H48.4423L47.8468 30.7211H44.919L44.3152 32.1602H43.5295L46.11 26.3045ZM46.4243 27.1978H46.4077L45.1919 30.0759H47.5822L46.4243 27.1978ZM54.3732 27.3384C54.2574 27.1509 54.1031 27.0158 53.9101 26.9331C53.7171 26.8449 53.5158 26.8008 53.3063 26.8008C53.1519 26.8008 53.0003 26.8201 52.8514 26.8587C52.7026 26.8972 52.5675 26.9551 52.4462 27.0323C52.3304 27.1095 52.2366 27.2115 52.165 27.3384C52.0933 27.4652 52.0574 27.614 52.0574 27.785C52.0574 27.9173 52.0767 28.0358 52.1153 28.1406C52.1594 28.2399 52.2284 28.3308 52.3221 28.4135C52.4158 28.4962 52.5427 28.5734 52.7026 28.6451C52.8625 28.7168 53.0582 28.7885 53.2898 28.8602C53.5158 28.9318 53.7336 29.009 53.9432 29.0917C54.1582 29.1744 54.3457 29.2792 54.5056 29.406C54.671 29.5328 54.8005 29.6927 54.8943 29.8857C54.9935 30.0732 55.0432 30.3103 55.0432 30.597C55.0432 30.8892 54.9853 31.1429 54.8695 31.3579C54.7537 31.5729 54.5993 31.7521 54.4063 31.8955C54.2188 32.0333 54.001 32.1353 53.7529 32.2015C53.5048 32.2732 53.2484 32.309 52.9838 32.309C52.8128 32.309 52.6419 32.2925 52.471 32.2594C52.3 32.2318 52.1346 32.1877 51.9747 32.1271C51.8203 32.0609 51.6742 31.9782 51.5364 31.879C51.3985 31.7742 51.28 31.6474 51.1807 31.4985L51.7762 31.0105C51.9031 31.2256 52.0795 31.3882 52.3056 31.4985C52.5316 31.6088 52.7715 31.6639 53.0251 31.6639C53.174 31.6639 53.3229 31.6419 53.4717 31.5978C53.6261 31.5536 53.764 31.4902 53.8853 31.4075C54.0066 31.3193 54.1058 31.2118 54.183 31.085C54.2602 30.9582 54.2988 30.812 54.2988 30.6466C54.2988 30.4647 54.2685 30.3186 54.2078 30.2083C54.1472 30.0925 54.0534 29.9932 53.9266 29.9105C53.7998 29.8278 53.6399 29.7534 53.4469 29.6872C53.2539 29.6211 53.0279 29.5439 52.7687 29.4556C52.5592 29.3895 52.3662 29.315 52.1898 29.2323C52.0133 29.1441 51.8589 29.0394 51.7266 28.9181C51.5998 28.7912 51.4978 28.6424 51.4206 28.4714C51.3489 28.295 51.3131 28.0855 51.3131 27.8429C51.3131 27.5617 51.3682 27.3163 51.4785 27.1068C51.5888 26.8972 51.7376 26.7236 51.9251 26.5857C52.1126 26.4424 52.3249 26.3348 52.562 26.2632C52.799 26.1915 53.0472 26.1556 53.3063 26.1556C53.6371 26.1556 53.9376 26.208 54.2078 26.3128C54.4835 26.412 54.7289 26.5885 54.9439 26.8421L54.3732 27.3384ZM57.7532 26.3045H58.4479V31.515H61.1276V32.1602H57.7532V26.3045ZM63.4517 26.3045H67.1321V26.9496H64.1464V28.7857H66.9336V29.4308H64.1464V31.515H67.281V32.1602H63.4517V26.3045ZM69.9175 26.3045H73.5979V26.9496H70.6122V28.7857H73.3994V29.4308H70.6122V31.515H73.7468V32.1602H69.9175V26.3045ZM76.3832 26.3045H78.1201C78.3903 26.3045 78.6467 26.3321 78.8893 26.3872C79.1374 26.4368 79.3552 26.5251 79.5426 26.6519C79.7356 26.7732 79.8873 26.9386 79.9975 27.1481C80.1133 27.3521 80.1712 27.6058 80.1712 27.909C80.1712 28.2288 80.1106 28.4935 79.9893 28.703C79.868 28.9125 79.7108 29.078 79.5178 29.1993C79.3304 29.3206 79.1236 29.406 78.8975 29.4556C78.6715 29.5053 78.4564 29.5301 78.2524 29.5301H77.078V32.1602H76.3832V26.3045ZM77.078 28.885H78.2524C78.5998 28.885 78.881 28.8078 79.096 28.6534C79.3166 28.4935 79.4269 28.2481 79.4269 27.9173C79.4269 27.5865 79.3166 27.3439 79.096 27.1895C78.881 27.0296 78.5998 26.9496 78.2524 26.9496H77.078V28.885Z" fill="black" fill-opacity="0.6"/>
<line x1="86.0215" y1="28.7466" x2="163.766" y2="28.7466" stroke="#959595" stroke-width="0.827068"/>
</g>
<defs>
<filter id="filter0_d_390_9820" x="79.8562" y="-40.0658" width="168.485" height="168.487" filterUnits="userSpaceOnUse" color-interpolation-filters="sRGB">
<feFlood flood-opacity="0" result="BackgroundImageFix"/>
<feColorMatrix in="SourceAlpha" type="matrix" values="0 0 0 0 0 0 0 0 0 0 0 0 0 0 0 0 0 0 127 0" result="hardAlpha"/>
<feOffset dy="1.65414"/>
<feGaussianBlur stdDeviation="23.985"/>
<feComposite in2="hardAlpha" operator="out"/>
<feColorMatrix type="matrix" values="0 0 0 0 0 0 0 0 0 0 0 0 0 0 0 0 0 0 0.05 0"/>
<feBlend mode="normal" in2="BackgroundImageFix" result="effect1_dropShadow_390_9820"/>
<feBlend mode="normal" in="SourceGraphic" in2="effect1_dropShadow_390_9820" result="shape"/>
</filter>
<clipPath id="clip0_390_9820">
<rect width="206.767" height="85.188" fill="white"/>
</clipPath>
</defs>
</svg>
