<svg width="175" height="200" viewBox="0 0 175 200" fill="none" xmlns="http://www.w3.org/2000/svg">
<g filter="url(#filter0_bd_321_2655)">
<g clip-path="url(#clip0_321_2655)">
<rect x="93" y="90" width="50" height="34" rx="17" fill="white" fill-opacity="0.1"/>
<path d="M118.999 108.707L124.146 113.854C124.342 114.049 124.658 114.049 124.854 113.854C125.049 113.658 125.049 113.342 124.854 113.146L111.854 100.146C111.658 99.9512 111.342 99.9512 111.146 100.146C110.951 100.342 110.951 100.658 111.146 100.854L114.286 103.993H113.5C112.671 103.993 112 104.664 112 105.493V108.482C112 109.31 112.671 109.982 113.5 109.982H115.223L118.149 112.857C118.293 112.998 118.507 113.039 118.693 112.961C118.879 112.883 118.999 112.701 118.999 112.5V108.707ZM117.999 107.707V111.308L115.778 109.125C115.684 109.033 115.558 108.982 115.427 108.982H113.5C113.223 108.982 113 108.758 113 108.482V105.493C113 105.217 113.223 104.993 113.5 104.993H115.286L117.999 107.707ZM117.999 104.878V102.685L116.888 103.767L116.181 103.06L118.151 101.142C118.295 101.002 118.509 100.961 118.694 101.039C118.879 101.117 118.999 101.299 118.999 101.5V105.878L117.999 104.878ZM121.709 108.588L120.914 107.793C120.969 107.561 121.004 107.296 121.004 106.999C121.004 106.251 120.785 105.715 120.576 105.371C120.47 105.197 120.366 105.071 120.292 104.991C120.255 104.951 120.225 104.923 120.207 104.906C120.198 104.898 120.192 104.892 120.189 104.89L120.19 104.891C119.974 104.719 119.939 104.405 120.111 104.189C120.283 103.973 120.597 103.937 120.813 104.109L120.814 104.109L120.815 104.11L120.817 104.112L120.823 104.116L120.838 104.129C120.849 104.139 120.865 104.152 120.883 104.169C120.92 104.203 120.968 104.25 121.025 104.311C121.139 104.434 121.285 104.613 121.43 104.851C121.722 105.331 122.004 106.044 122.004 106.999C122.004 107.634 121.879 108.163 121.709 108.588ZM123.226 110.105L122.481 109.36C122.776 108.732 123.003 107.944 123.003 107.004C123.003 105.668 122.544 104.636 122.084 103.935C121.854 103.584 121.624 103.318 121.454 103.141C121.369 103.053 121.299 102.988 121.253 102.946C121.229 102.925 121.212 102.91 121.201 102.901L121.19 102.891C120.974 102.719 120.938 102.404 121.11 102.189C121.282 101.973 121.597 101.937 121.813 102.109L121.814 102.11L121.817 102.112L121.824 102.118L121.846 102.137C121.865 102.152 121.89 102.174 121.922 102.203C121.984 102.259 122.071 102.341 122.174 102.448C122.379 102.661 122.65 102.975 122.92 103.386C123.46 104.209 124.003 105.429 124.003 107.004C124.003 108.278 123.648 109.319 123.226 110.105Z" fill="white"/>
</g>
</g>
<defs>
<filter id="filter0_bd_321_2655" x="0.199997" y="0.399997" width="235.6" height="219.6" filterUnits="userSpaceOnUse" color-interpolation-filters="sRGB">
<feFlood flood-opacity="0" result="BackgroundImageFix"/>
<feGaussianBlur in="BackgroundImageFix" stdDeviation="2"/>
<feComposite in2="SourceAlpha" operator="in" result="effect1_backgroundBlur_321_2655"/>
<feColorMatrix in="SourceAlpha" type="matrix" values="0 0 0 0 0 0 0 0 0 0 0 0 0 0 0 0 0 0 127 0" result="hardAlpha"/>
<feOffset dy="3.2"/>
<feGaussianBlur stdDeviation="46.4"/>
<feComposite in2="hardAlpha" operator="out"/>
<feColorMatrix type="matrix" values="0 0 0 0 0 0 0 0 0 0 0 0 0 0 0 0 0 0 0.05 0"/>
<feBlend mode="normal" in2="effect1_backgroundBlur_321_2655" result="effect2_dropShadow_321_2655"/>
<feBlend mode="normal" in="SourceGraphic" in2="effect2_dropShadow_321_2655" result="shape"/>
</filter>
<clipPath id="clip0_321_2655">
<rect x="93" y="90" width="50" height="34" rx="17" fill="white"/>
</clipPath>
</defs>
</svg>
