<svg width="34" height="34" viewBox="0 0 34 34" fill="none" xmlns="http://www.w3.org/2000/svg">
<g clip-path="url(#clip0_387_9264)">
<rect width="34" height="34" rx="17" fill="white" fill-opacity="0.2"/>
<path d="M17.6943 11.0393C17.8796 11.1175 18 11.299 18 11.5V22.5C18 22.7014 17.8791 22.8832 17.6934 22.9611C17.5076 23.039 17.2933 22.9978 17.1496 22.8567L14.2231 19.9817H12.5C11.6716 19.9817 11 19.3101 11 18.4817V15.4927C11 14.6643 11.6716 13.9927 12.5 13.9927H14.2244L17.1511 11.1419C17.2951 11.0016 17.5091 10.9612 17.6943 11.0393ZM17 12.6851L14.7765 14.8509C14.6832 14.9418 14.558 14.9927 14.4277 14.9927H12.5C12.2239 14.9927 12 15.2166 12 15.4927V18.4817C12 18.7579 12.2239 18.9817 12.5 18.9817H14.4277C14.5587 18.9817 14.6846 19.0332 14.7781 19.125L17 21.3079V12.6851ZM19.1113 14.1887C19.2832 13.9726 19.5977 13.9368 19.8138 14.1087L19.8147 14.1094L19.8156 14.1102L19.8177 14.1119L19.8231 14.1163L19.8381 14.1288C19.8499 14.1388 19.8652 14.1522 19.8835 14.169C19.9201 14.2026 19.9689 14.2499 20.0257 14.3112C20.1392 14.4336 20.2857 14.613 20.4306 14.8514C20.7222 15.331 21.0043 16.0444 21.0043 16.9986C21.0043 17.9527 20.7222 18.6669 20.4309 19.1471C20.286 19.3859 20.1397 19.5657 20.0263 19.6884C19.9695 19.7498 19.9208 19.7973 19.8842 19.8309C19.8645 19.849 19.8444 19.8666 19.824 19.8838L19.8155 19.8907L19.8147 19.8914C19.8147 19.8914 19.3683 20.1337 19.112 19.8129C18.9404 19.5983 18.9743 19.2858 19.1871 19.1128L19.1887 19.1115L19.1879 19.1122L19.1896 19.1108L19.1887 19.1115C19.1916 19.109 19.1979 19.1036 19.207 19.0952C19.2252 19.0784 19.2547 19.05 19.2918 19.0098C19.3662 18.9292 19.4703 18.8025 19.5759 18.6285C19.7854 18.283 20.0043 17.7461 20.0043 16.9986C20.0043 16.2511 19.7855 15.7152 19.5762 15.3709C19.4707 15.1974 19.3667 15.0712 19.2924 14.9911C19.2553 14.951 19.2258 14.9228 19.2077 14.9061C19.1986 14.8978 19.1924 14.8924 19.1895 14.89L19.1905 14.8907C18.9748 14.7187 18.9394 14.4047 19.1113 14.1887ZM20.813 12.1089C20.597 11.9369 20.2825 11.9725 20.1104 12.1886C19.9385 12.4045 19.9746 12.7193 20.1904 12.8914L20.2014 12.9006C20.2123 12.9097 20.2298 12.9248 20.2531 12.9458C20.2998 12.9878 20.3693 13.0532 20.4542 13.1413C20.6242 13.3179 20.8541 13.5841 21.0845 13.9351C21.5449 14.6364 22.0033 15.6685 22.0033 17.004C22.0033 18.3395 21.545 19.3694 21.0848 20.0685C20.8545 20.4184 20.6248 20.6835 20.4549 20.8593C20.3701 20.947 20.3006 21.0121 20.254 21.0538C20.2307 21.0747 20.2132 21.0897 20.2023 21.0988L20.1908 21.1083L20.1899 21.1091C19.9745 21.2808 19.9385 21.5945 20.1097 21.8105C20.2811 22.0269 20.5964 22.0628 20.8129 21.8913L20.8458 21.8642C20.8643 21.8487 20.8898 21.8268 20.9213 21.7986C20.9841 21.7423 21.071 21.6607 21.1739 21.5543C21.3793 21.3418 21.65 21.0286 21.9201 20.6183C22.4608 19.797 23.0033 18.5788 23.0033 17.004C23.0033 15.4293 22.4608 14.2094 21.9204 13.3863C21.6504 12.975 21.3798 12.6609 21.1745 12.4477C21.0718 12.341 20.9849 12.2591 20.9221 12.2025C20.8907 12.1743 20.8652 12.1523 20.8467 12.1367L20.8243 12.118L20.8172 12.1122L20.8148 12.1102L20.813 12.1089ZM19.1895 14.89L19.1881 14.8887Z" fill="white"/>
</g>
<defs>
<clipPath id="clip0_387_9264">
<rect width="34" height="34" rx="17" fill="white"/>
</clipPath>
</defs>
</svg>
